<?xml version="1.0" standalone="no"?>
<!DOCTYPE svg PUBLIC "-//W3C//DTD SVG 1.1//EN" "http://www.w3.org/Graphics/SVG/1.1/DTD/svg11.dtd" >
<svg xmlns="http://www.w3.org/2000/svg" xmlns:xlink="http://www.w3.org/1999/xlink" version="1.1">
<metadata>
Created by FontForge 20170731 at Tue Jul 27 01:18:51 2021
 By Aleksey,,,
</metadata>
<defs>
<font id="MountainBridgeRegular" horiz-adv-x="0" >
  <font-face 
    font-family="Mountain Bridge"
    font-weight="400"
    font-stretch="normal"
    units-per-em="2048"
    panose-1="0 0 0 0 0 0 0 0 0 0"
    ascent="1638"
    descent="-410"
    x-height="953"
    cap-height="1615"
    bbox="-714.492 -804.581 2614 1880"
    underline-thickness="102"
    underline-position="-307"
    unicode-range="U+000A-F04F"
  />
<missing-glyph horiz-adv-x="1079" 
d="M102 1434h875v-1434h-875v1434zM160 1393l379 -633l381 633h-760zM514 717l-369 614v-1231zM541 674l-379 -631h758zM565 717l371 -621v1239z" />
    <glyph glyph-name="Br.liga" unicode="Br" horiz-adv-x="1665" 
d="M1754 612q16 -5 20.5 -20t-4.5 -29q-146 -236 -304 -401.5t-240 -161.5q-33 2 -67.5 16.5t-64 45.5t-29.5 77.5t36 111.5q10 17 55 87t79 126t72 122t54 108t4 50q-23 16 -126 50q-88 -109 -184 -199q3 -81 -21.5 -171.5t-76 -175.5t-121.5 -154t-165.5 -111t-199.5 -42
q-38 0 -72.5 7.5t-64.5 23t-48 43.5t-18 65q0 41 23.5 77t60 63t94 58t114.5 57t133 66t138 79q42 121 40.5 213t-54.5 96q-70 5 -140 -27q-157 -105 -206 -115q-31 -7 -60 -2q-159 -314 -166 -419q-72 -5 -132.5 63.5t-44.5 152.5q10 54 197.5 438t194.5 447q4 35 2 56.5
t-6.5 30.5t-9.5 10q53 -1 94 -10t77.5 -30t54 -60.5t12.5 -96.5q-5 -63 -142 -329q255 166 389 362q117 170 92 287q-23 112 -171 129q-18 2 -38 3q-46 1 -102 -8.5t-120.5 -33t-127 -57.5t-121 -86t-103 -115t-72 -148t-29.5 -180q-28 0 -44.5 1.5t-38.5 8.5t-33.5 20.5
t-19.5 40.5t-7 65q1 66 29.5 135.5t78.5 133.5t123 120.5t159 98t191 64.5t214 21q59 -1 114.5 -10t115.5 -33.5t102.5 -62t67 -101t17.5 -144.5q-8 -96 -72.5 -202t-146.5 -188.5t-186 -164.5q105 0 167 -54.5t79 -147.5q74 74 133 163q-63 27 -89 66t-1 104
q26 66 69.5 102t89.5 39q44 3 86 -37t20 -87q-32 -63 -90 -162q30 -14 104 -34q68 -18 112 -57.5t53.5 -98t-37.5 -130.5q-254 -389 -251 -445q52 5 196 161.5t273 362.5q14 21 37 13zM451 18q100 11 192.5 119.5t156.5 260.5q-99 -63 -228 -122.5t-182 -94t-54 -80.5
q-1 -33 32 -60.5t83 -22.5zM1220 877q71 115 65 119q-16 9 -38 -9.5t-31 -46.5t1 -55q1 -1 2 -4t1 -4z" />
    <glyph glyph-name="tt.liga" unicode="tt" horiz-adv-x="1052" 
d="M1468 1384q20 -16 29 -41t0 -58q-28 10 -372 -12q-10 -23 -19 -44q-28 -59 -189.5 -397t-237.5 -512.5t-76 -217.5q0 -17 20 -22.5t42 9.5q116 84 237.5 229t207.5 281q10 15 28 15q19 0 28 -16.5t-1 -32.5q-147 -237 -305 -403t-240 -162q-109 0 -171.5 76t-42.5 181
q4 19 13 44q-111 -139 -208 -221.5t-153 -79.5q-108 0 -170.5 76t-42.5 181q5 24 31 90t75 177t91 204t111 245t103 227q-65 -7 -131 -12q-29 -3 -63.5 1.5t-70.5 19t-55.5 49t-10.5 83.5q82 -37 163.5 -44t214.5 9q134 302 128 322q20 5 58 -2t77.5 -25t63 -56.5
t11.5 -88.5q-9 -34 -47 -120l36 4l256 18q111 256 106 270q20 5 58 -2t78 -25t63.5 -56.5t11.5 -88.5q-1 -5 -32 -78q282 18 297 6zM817 1200q8 17 24 53q-231 -18 -296 -24q-28 -59 -189.5 -397t-237.5 -512.5t-76 -217.5q0 -17 19.5 -22.5t41.5 9.5q112 81 229.5 219
t203.5 271q47 106 147.5 327t133.5 294z" />
    <glyph glyph-name="ox.liga" unicode="ox" horiz-adv-x="1949" 
d="M684 852q-60 0 -141 -110q-88 -120 -124 -256q-42 -161 31 -214q24 -17 59 -21q130 138 193 333q49 150 26 227q-13 41 -44 41zM175 77q146 13 268 112q-39 13 -75.5 37.5t-68 59t-50.5 83.5t-19 105q0 39 12 90q-69 -115 -104 -228t-25.5 -185t62.5 -74zM1171 868
q-42 -27 -82 -76t-72.5 -106.5t-66.5 -122t-71.5 -126t-80.5 -114t-101 -91.5t-125 -54q-167 -181 -333 -181q-144 0 -234.5 69t-90.5 173q0 109 47 240.5t110 231t124.5 168.5t92.5 71q32 2 74 -14.5t73 -40.5q23 23 26 25q33 25 99.5 27.5t151.5 -26.5q39 -15 65 -37
t37.5 -47.5t15.5 -47t4 -48.5q0 -97 -52.5 -228t-138.5 -248q42 11 93 73.5t99.5 149t97.5 174t103.5 161.5t101.5 99q37 20 80 28t84.5 1.5t74 -39.5t42.5 -90q9 -52 29 -187l337 306q23 21 64 3q23 -12 18 -21l-408 -367q46 -327 72 -434q5 -20 21.5 -28t33.5 3
q77 54 195.5 192.5t224.5 306.5q14 22 37 14q16 -5 20.5 -20.5t-4.5 -29.5q-145 -233 -303.5 -398t-240.5 -165q-166 0 -198 143q-9 39 -35 257l-353 -318q-12 -10 -48 -7q-31 2 -29 16l3 9l418 379q-24 195 -50 307q-7 32 -12.5 50t-12 29t-12.5 10.5t-15 -4.5z" />
    <glyph glyph-name="th.liga" unicode="th" horiz-adv-x="1529" 
d="M1613 610q19 0 28 -16.5t-1 -32.5q-146 -236 -304.5 -400.5t-241.5 -160.5q-70 4 -127.5 64t-26.5 139q5 12 132.5 274t178.5 385q-117 -90 -319.5 -351t-325.5 -511q-109 0 -164 46t-27 115q5 13 44 102q-100 -121 -187 -191t-139 -67q-109 0 -171.5 76t-42.5 181
q5 24 31.5 91t74.5 175.5t91.5 205t111 244t103.5 227.5q1 1 1 2v2q-93 27 -153 42t-128 26t-115.5 5.5t-78.5 -27.5q-32 115 23.5 180t157.5 59q42 -2 105.5 -25t110.5 -46t141 -71q116 266 111 280q20 5 58 -2t77.5 -24.5t63 -56t11.5 -88.5q-9 -34 -93 -220
q138 -60 243 -85q96 208 129 289q67 162 205 226q114 54 221 19q94 -32 126 -118q24 -66 1 -149q-38 -135 -149 -225.5t-243 -116.5q-18 -4 -58 -8q-281 -574 -343 -706q66 116 176.5 253.5t217 235t154.5 97.5q87 0 126 -53.5t18 -116.5q-50 -132 -135 -302t-141 -278
t-55 -128q53 5 197.5 160t272.5 360q10 15 27 15zM1246 1374q-7 -15 -22 -46t-42.5 -86.5t-47.5 -97.5q75 16 140 53q129 76 171 196q29 83 2 134q-24 44 -72 19q-64 -34 -129 -172zM178 93q105 76 215 203t198 257q134 294 242 530q-114 17 -258 56q-25 -54 -112 -235.5
t-129.5 -273t-102.5 -223.5t-87 -204t-27 -97q0 -17 19.5 -22.5t41.5 9.5z" />
    <glyph glyph-name="az.liga" unicode="az" horiz-adv-x="2025" 
d="M2110 620q19 3 30.5 -15t1.5 -34q-95 -154 -209.5 -263t-269.5 -206q-129 -278 -325 -474q-63 -63 -131.5 -86t-120 -9.5t-85 49.5t-33.5 84q0 38 23.5 76.5t64.5 74t97 72t119.5 72.5t133.5 74q24 13 36 19q120 213 129 316q-27 4 -230.5 -132t-222.5 -162
q-10 -13 -46 17.5t-63.5 74t-17.5 62.5q17 32 603 632q-17 0 -66.5 -4t-81 -4.5t-82 7t-95.5 24.5q-86 -182 -221.5 -385.5t-276 -352.5t-218.5 -150q-69 -1 -130 58t-30 138q2 5 9 19q-85 -93 -167.5 -152.5t-136.5 -59.5q-30 0 -58.5 5.5t-59.5 21.5t-53 41.5t-34.5 70.5
t-8.5 104q6 86 77 211.5t164 233t191.5 185t156.5 77.5q64 0 113.5 -15t77 -39t41 -42.5t21.5 -37.5q1 -3 -1.5 -5t-5.5 0q-29 15 -76 0q-117 -41 -274.5 -224.5t-244 -348.5t-31.5 -165q40 0 91.5 30t99 74.5t99.5 103t91 108.5t77.5 98.5t54.5 65.5q60 97 65 106
q12 18 63.5 -5t92 -67t25.5 -76q-6 -8 -16 -22t-39 -55.5t-55.5 -80t-58.5 -87t-55 -85.5t-38.5 -67.5t-14.5 -40.5q62 16 186 161t246.5 329.5t210.5 346.5q-53 34 -53 82q0 31 16 51.5t39.5 26.5t47.5 4.5t41.5 -12.5t20.5 -27q4 -20 -34 -97q43 -16 107.5 -17.5t118 6
t113.5 16.5t84 10q51 1 92 -48t20 -83q-25 -40 -480 -492q187 121 256 121q66 0 111.5 -52t22.5 -111q-5 -14 -15.5 -39.5t-12.5 -31.5q235 166 374 388q9 13 23 15zM1263 1022q-2 0 -5 -0.5t-8.5 -7.5t-6.5 -19t5 -23q13 31 15 50zM1066 -375q51 -1 135.5 89t172.5 228
q-257 -133 -316 -244q-26 -49 -4 -68q5 -5 12 -5z" />
    <glyph glyph-name=".notdef" horiz-adv-x="1079" 
d="M102 1434h875v-1434h-875v1434zM160 1393l379 -633l381 633h-760zM514 717l-369 614v-1231zM541 674l-379 -631h758zM565 717l371 -621v1239z" />
    <glyph glyph-name=".null" 
 />
    <glyph glyph-name=".null" 
 />
    <glyph glyph-name="nonmarkingreturn" horiz-adv-x="682" 
 />
    <glyph glyph-name="controlLF" unicode="&#xa;" 
 />
    <glyph glyph-name="controlCR" unicode="&#xd;" 
 />
    <glyph glyph-name="space" unicode=" " horiz-adv-x="698" 
 />
    <glyph glyph-name="exclam" unicode="!" horiz-adv-x="516" 
d="M458 1412q15 16 47.5 12.5t66 -15.5t55 -36.5t13.5 -50.5q-14 -46 -227.5 -523t-230.5 -511q-3 -2 -23 -2t-48 11t-53.5 25t-38.5 40.5t-4 57.5q22 74 226.5 526.5t216.5 465.5zM-30 218q26 -4 61 -18.5t66 -42t28 -58.5q-2 -15 -18.5 -48.5t-32.5 -59.5l-16 -26
q-4 -1 -11 -3.5t-27.5 -5t-38.5 -1.5t-40 10.5t-37 27.5t-18 43.5t5 52.5t17 50t20 45t13 28q0 1 1.5 2.5t8.5 4t19 -0.5z" />
    <glyph glyph-name="quotedbl" unicode="&#x22;" horiz-adv-x="636" 
d="M296 1331q10 26 42.5 28.5t58.5 -17.5t20 -49q-6 -27 -40.5 -109.5t-72.5 -165.5l-38 -84q-6 -16 -47 -43q-61 -41 -69 -9q-3 11 2 31q12 44 48 148.5t66 186.5zM487 1331q10 26 42.5 28.5t58.5 -17.5t20 -49q-6 -27 -41 -109.5t-73 -165.5t-38 -84q-6 -16 -47 -43
q-61 -41 -69 -9q-3 11 2 31q12 44 48 148.5t66 186.5z" />
    <glyph glyph-name="quotedbl" unicode="&#x201d;" horiz-adv-x="636" 
d="M296 1331q10 26 42.5 28.5t58.5 -17.5t20 -49q-6 -27 -40.5 -109.5t-72.5 -165.5l-38 -84q-6 -16 -47 -43q-61 -41 -69 -9q-3 11 2 31q12 44 48 148.5t66 186.5zM487 1331q10 26 42.5 28.5t58.5 -17.5t20 -49q-6 -27 -41 -109.5t-73 -165.5t-38 -84q-6 -16 -47 -43
q-61 -41 -69 -9q-3 11 2 31q12 44 48 148.5t66 186.5z" />
    <glyph glyph-name="quotedbl" unicode="&#x201c;" horiz-adv-x="636" 
d="M296 1331q10 26 42.5 28.5t58.5 -17.5t20 -49q-6 -27 -40.5 -109.5t-72.5 -165.5l-38 -84q-6 -16 -47 -43q-61 -41 -69 -9q-3 11 2 31q12 44 48 148.5t66 186.5zM487 1331q10 26 42.5 28.5t58.5 -17.5t20 -49q-6 -27 -41 -109.5t-73 -165.5t-38 -84q-6 -16 -47 -43
q-61 -41 -69 -9q-3 11 2 31q12 44 48 148.5t66 186.5z" />
    <glyph glyph-name="numbersign" unicode="#" horiz-adv-x="1024" 
d="M952 658q-3 -10 -198 -10q-4 -12 -19.5 -55t-23.5 -67h93q23 0 54 -31.5t26 -47.5q-3 -9 -203 -9q-75 -215 -84 -245q-8 0 -20.5 1t-43.5 16.5t-52 45.5q-18 26 28 183q-118 2 -173 3q-81 -237 -85 -249q-8 0 -20.5 1t-43.5 16.5t-52 45.5q-19 28 30 190q-37 1 -67 1
q-21 0 -43 37q-21 36 -6 41q2 1 4 1h137q14 42 46 130q-16 0 -33.5 0.5t-26.5 1t-11 0.5q-21 0 -43 38q-20 34 -6 39l4 1h145l107 272q4 7 19.5 7.5t37 -6.5t40.5 -17.5t30.5 -25.5t7.5 -29q-3 -11 -69 -201h174l106 272q4 7 19.5 7.5t37 -6.5t40.5 -17.5t30.5 -25.5
t7.5 -29q-3 -11 -69 -201h87q23 0 54.5 -31.5t26.5 -46.5zM537 526q13 40 43 124q-28 0 -86 0.5t-85 1.5q-22 -64 -44 -126h172z" />
    <glyph glyph-name="dollar" unicode="$" horiz-adv-x="849" 
d="M713 542q-6 -204 -174 -257v-2v-191q0 -16 -11 -26.5t-27 -10.5h-62q-16 0 -27 10.5t-11 26.5v176q-27 0 -58 4.5t-72.5 18.5t-74.5 36t-58 62t-30 92q-2 28 22 39q27 12 45 -19q10 -16 13 -43q6 -50 92 -77t168.5 12t77.5 151q-1 36 -30 68.5t-71 56.5t-90 57t-88.5 68
t-66 92t-22.5 127q4 95 72.5 149t170.5 72v163q0 16 11 27t27 11h62q16 0 27 -11t11 -27v-169q37 -11 61 -23.5t48.5 -36.5t33.5 -65t3 -99q-1 -11 -18.5 -17t-35 -3t-17.5 17q-3 58 -35 94.5t-101 36.5q-80 0 -134 -56t-18 -131q13 -28 59.5 -61t101 -65.5t107 -70.5
t87 -91.5t32.5 -114.5z" />
    <glyph glyph-name="percent" unicode="%" horiz-adv-x="899" 
d="M822 1258q8 17 52.5 0.5t81.5 -52.5t25 -68q-12 -31 -244 -302t-459 -526l-226 -255q-40 0 -89 51t-49 118q0 43 223 293t452 491t233 250zM208 838q-100 0 -170.5 75.5t-70.5 181.5t70.5 181.5t170.5 75.5t170.5 -75.5t70.5 -181.5t-70.5 -181.5t-170.5 -75.5zM128 1195
q-56 -47 -71.5 -108t18.5 -102q34 -40 97 -36t119 51t71.5 107.5t-18.5 101.5t-97.5 36.5t-118.5 -50.5zM742 607q100 0 170.5 -75.5t70.5 -181.5t-70.5 -181.5t-170.5 -75.5t-170.5 75.5t-70.5 181.5t70.5 181.5t170.5 75.5zM826 254q56 47 71.5 108t-18.5 102
q-34 40 -97 36t-119 -51t-71.5 -108t18.5 -102q34 -40 97 -36t119 51z" />
    <glyph glyph-name="ampersand" unicode="&#x26;" horiz-adv-x="1179" 
d="M1045 664q21 4 43.5 -16.5t35.5 -50.5t10 -64.5t-26 -55.5q-17 -15 -51 -26.5t-97 -26t-92 -22.5q51 -55 51 -152q0 -66 -35.5 -134t-94.5 -122t-142.5 -88.5t-172.5 -34.5q-102 0 -189 26t-156.5 78t-109.5 140.5t-40 204.5q0 83 30 160.5t75.5 133.5t101.5 101
t105.5 70.5t89.5 34.5q-74 86 -74 215q0 130 111 197q95 58 214 43q117 -15 170 -91q31 -44 31 -101q0 -73 -31.5 -99t-65 -13.5t-41.5 36.5q11 3 21.5 23t15 48t1.5 55t-23 45.5t-54 18.5q-35 0 -76.5 -29t-72.5 -75t-50.5 -95.5t-13.5 -97t42 -74.5q29 -22 78 -44
t68.5 -41.5t17.5 -60.5q-72 9 -150 49q-118 -20 -215 -148q-94 -124 -112 -272q-20 -165 73 -252q72 -69 204 -72q63 -1 116 17t86.5 49t59.5 71t35.5 82t13.5 82.5t-6 71.5q-99 -55 -114 -149q-27 8 -54 30.5t-25 55.5q4 68 56.5 114.5t123 71t140.5 46t117.5 55t46.5 82.5
z" />
    <glyph glyph-name="quotesingle" unicode="'" horiz-adv-x="536" 
d="M309 1366q2 6 18 7.5t37.5 -3t41.5 -12.5t33 -24.5t10 -36.5q-5 -41 -31.5 -117.5t-68 -145.5t-76.5 -66q-28 2 -40.5 23.5t-10.5 41.5l1 20q70 272 86 313z" />
    <glyph glyph-name="quotesingle" unicode="&#x2019;" horiz-adv-x="536" 
d="M309 1366q2 6 18 7.5t37.5 -3t41.5 -12.5t33 -24.5t10 -36.5q-5 -41 -31.5 -117.5t-68 -145.5t-76.5 -66q-28 2 -40.5 23.5t-10.5 41.5l1 20q70 272 86 313z" />
    <glyph glyph-name="quotesingle" unicode="&#x2018;" horiz-adv-x="536" 
d="M309 1366q2 6 18 7.5t37.5 -3t41.5 -12.5t33 -24.5t10 -36.5q-5 -41 -31.5 -117.5t-68 -145.5t-76.5 -66q-28 2 -40.5 23.5t-10.5 41.5l1 20q70 272 86 313z" />
    <glyph glyph-name="parenleft" unicode="(" horiz-adv-x="446" 
d="M365 1256q69 41 129 -4q37 -28 38 -60q0 -15 -10 -22q-63 -39 -123.5 -114.5t-107 -185t-68 -233t-2.5 -270t84 -283.5q5 -10 6 -13t5.5 -13t5.5 -14.5t2.5 -13t-0.5 -13t-5.5 -10t-11 -8t-17.5 -3.5q-53 -4 -104 49.5t-86.5 139t-54.5 196t-12 214.5q8 121 45.5 237
t88 199t102.5 141t96 84z" />
    <glyph glyph-name="parenright" unicode=")" horiz-adv-x="571" 
d="M248 1249q53 4 104 -49.5t86.5 -139t54.5 -196t12 -214.5q-8 -121 -45.5 -236.5t-88 -198.5t-102.5 -141t-96 -84q-69 -41 -129 3q-37 28 -38 60q-1 15 10 22q63 39 123.5 114.5t107 185t68 233t2.5 270t-84 283.5q-5 10 -6 13t-5.5 13t-5.5 14.5t-2.5 13t0.5 13t5.5 10
t11 8t17.5 3.5z" />
    <glyph glyph-name="asterisk" unicode="*" horiz-adv-x="675" 
d="M731 932q34 -7 57 -47q18 -31 4 -36q-2 -1 -4 -1h-282q145 -204 150 -223q4 -20 -24.5 -32t-36.5 3q-3 6 -143 202q-172 -211 -173 -221q-4 2 -11 5t-24.5 14.5t-30.5 23.5t-21.5 32t-5.5 40q6 35 106 156h-128q-36 0 -63 44q-22 33 -10 43l4 2q49 8 253 8l-141 197
q-15 21 18 29q33 9 49 -3l2 -2q14 -16 133 -182l158 174q17 18 42 -2.5t39 -54.5t5 -51q-8 -13 -85 -109q139 -3 163 -9z" />
    <glyph glyph-name="plus" unicode="+" horiz-adv-x="509" 
d="M401 635q38 1 60 -44q22 -43 4 -73q-9 -16 -31 -18q-36 -4 -190 -7v-159q1 -39 -45 -61q-45 -22 -73 -3q-15 10 -17 30q-4 36 -7 190q-188 -2 -204 10q-13 11 -22.5 43.5t-2 62t36.5 29.5h189q-2 186 10 202q11 13 43.5 22.5t62 2t29.5 -36.5v-190h157z" />
    <glyph glyph-name="comma" unicode="," horiz-adv-x="591" 
d="M184 260q5 10 46 14t80 -12.5t36 -57.5q-6 -73 -64 -166t-130 -125q-18 -4 -27 14t0 46q4 11 31.5 75.5t47 116t11.5 55.5q-14 7 -20 11.5t-11.5 13t0.5 15.5z" />
    <glyph glyph-name="hyphen" unicode="-" horiz-adv-x="993" 
d="M185 728q-12 0 -26.5 37.5t-18 69.5t6.5 37h638q20 0 46.5 -57.5t21.5 -86.5q-2 -10 -68.5 -14t-163.5 -2t-190.5 5.5t-168 7t-77.5 3.5z" />
    <glyph glyph-name="period" unicode="." horiz-adv-x="563" 
d="M129 291q18 37 61.5 28t88 -43.5t43.5 -57.5q-16 -117 -42 -125q-35 -11 -76.5 0t-67.5 32t-25 38q0 3 -0.5 15.5t0 24t5 35.5t13.5 53z" />
    <glyph glyph-name="slash" unicode="/" horiz-adv-x="935" 
d="M696 1175q8 17 52.5 0.5t81.5 -53t25 -68.5q-12 -31 -171 -327t-312 -576l-154 -280q-40 0 -89 51t-49 118q0 43 149 316.5t307.5 545t159.5 273.5z" />
    <glyph glyph-name="zero" unicode="0" horiz-adv-x="999" 
d="M1013 1037q19 -49 21 -117.5t-12 -145.5t-44 -161t-72 -164.5t-99 -155t-121.5 -134t-143 -101t-160.5 -54.5q-26 -3 -54 -3t-56.5 10.5t-55.5 26t-50.5 44.5t-42 65.5t-30.5 88.5t-15 115q-7 138 33 292t105.5 278t149.5 213.5t162 110.5q81 22 129 -77q71 43 140 40.5
t127.5 -48.5t88.5 -123zM253 279q-3 -77 44.5 -125t108.5 -36q70 13 150.5 78.5t151.5 158.5t125.5 206.5t79.5 219.5t6.5 201t-87.5 148q-21 16 -43 19t-45 -8t-33.5 -18t-30.5 -23v-1q1 -1 1 -2q2 -11 -19 -31.5t-57 -52t-80 -74t-89.5 -106t-84.5 -139.5t-66 -184.5
t-32 -230.5z" />
    <glyph glyph-name="one" unicode="1" horiz-adv-x="557" 
d="M369 70q12 -12 20 -21.5t15 -20t6.5 -16t-6.5 -10.5q-5 -3 -61.5 -3.5t-136.5 0t-157 1t-139.5 1.5t-67.5 1q-24 0 -51 40q-17 27 -8 28q15 0 41 1.5t67 3t70 2.5q-33 21 -33 64q0 42 79.5 227t143.5 319t124 254q-20 -16 -55 -45t-61 -50.5t-29 -23.5q-9 -7 -33 4.5
t-23 32.5q37 31 93.5 79.5t160.5 153t125 153.5q31 10 75.5 -8.5t42.5 -60.5q-1 -24 -105 -266.5t-214 -504t-121 -322.5q221 4 238 -13z" />
    <glyph glyph-name="two" unicode="2" horiz-adv-x="1024" 
d="M775 74q15 -11 23 -30.5t6.5 -31t-4.5 -13.5q-79 10 -316.5 12.5t-402.5 -12.5q-9 -5 -24 11t-21 34.5t5 30.5q308 223 533 528q170 229 218 398q37 131 -25 151l-21 3q-74 0 -138.5 -23.5t-108 -62t-79 -84.5t-56 -92.5t-34 -84.5t-18.5 -62l-5 -24q-11 0 -27.5 3
t-37.5 10.5t-35 24t-14 38.5q0 20 25.5 71t73.5 115.5t106.5 124t133.5 100t146 40.5q144 0 220 -70.5t58 -183.5q-68 -423 -582 -881q309 28 401 -40z" />
    <glyph glyph-name="three" unicode="3" horiz-adv-x="800" 
d="M511 710q125 -7 177 -116q49 -106 9 -246q-43 -153 -167 -249q-125 -97 -294 -99q-91 -1 -157.5 24t-98 60t-49 78.5t-20 70t-0.5 44.5t31.5 25.5t60 0.5t34.5 -23q0 -1 4.5 -25t8.5 -40t16.5 -41.5t29.5 -41.5t47.5 -28.5t69.5 -12.5q74 0 141 46t111 114.5t70 144.5
t26 139q0 71 -31 96.5t-83 28.5q-87 -61 -193 -91q-26 -9 -43 -3t-27.5 23t-16.5 34.5t-7 30.5l-2 14q31 2 86 31.5t115 80t111 110t77 130t11 130.5q-4 16 -44 25t-100 -3t-122.5 -45t-118 -114.5t-80.5 -198.5q-2 -10 -19 -2q-35 24 -37 82q0 27 13 68t44 92t74.5 94
t113 72.5t150.5 29.5q76 0 130.5 -16.5t81 -38.5t40.5 -55.5t16 -56t0 -51.5q-3 -53 -52 -147.5t-137 -174.5z" />
    <glyph glyph-name="four" unicode="4" horiz-adv-x="829" 
d="M842 907q0 -48 -172 -477.5t-188 -429.5q-35 0 -73.5 39.5t-45.5 65.5q-2 7 21 77t64 181t83 213h-350q-24 -3 -76 35t-42 53q6 9 134 155.5t253 288.5l124 142q41 -4 88.5 -39.5t47.5 -59.5q0 -17 -160.5 -199.5t-283.5 -309.5h304l155 374q7 13 35.5 -1t55 -45.5
t26.5 -62.5z" />
    <glyph glyph-name="five" unicode="5" horiz-adv-x="737" 
d="M605 811q39 -26 63.5 -75t31.5 -110t-3.5 -131.5t-36 -139.5t-71.5 -132.5t-105 -112t-141 -77.5t-176 -29q-93 0 -167 49t-74 136q1 -2 4 -5.5t13 -14.5t21.5 -19.5t30 -20t39 -16.5t48 -9t56.5 3q82 13 151 54t114.5 97t77 122t43 129.5t8 120t-22.5 93.5
q-20 39 -65.5 44.5t-93.5 -14t-87.5 -43.5t-57.5 -43q-5 -7 -6 -7q-15 0 -68.5 39.5t-53.5 59.5q0 29 142 455l-1 5l4 26q9 0 23.5 0.5t57.5 2t83 3t90 2.5t87.5 1.5t67 0t37.5 -2.5q57 -14 49 -77q-1 -11 -380 -8q20 -18 23 -29q6 -20 -30.5 -138t-80.5 -231
q69 47 142.5 64t126 9t87.5 -31z" />
    <glyph glyph-name="six" unicode="6" horiz-adv-x="954" 
d="M895 642q0 -104 -46 -217.5t-120 -206.5t-176.5 -153.5t-206.5 -60.5q-176 0 -245.5 90t-58.5 254q6 98 61.5 222.5t132.5 236t159 211t145.5 162t88.5 75.5q24 12 99 -8q60 -16 57 -31q-1 -3 -4 -5q-77 -53 -225.5 -233.5t-214.5 -323.5q59 83 136 133t148.5 57.5
t133 -11t99 -70t37.5 -121.5zM344 91q100 0 211 136q102 123 148 273q50 158 -5 223q-28 33 -82 33q-99 0 -205 -142q-96 -128 -138 -284t9 -214q23 -25 62 -25z" />
    <glyph glyph-name="seven" unicode="7" horiz-adv-x="907" 
d="M648 690q-145 -236 -289.5 -461t-151.5 -225q-32 0 -62.5 30t-37.5 100q-4 35 309 556h-213q-11 0 -22.5 16t-13 31t6.5 20h282q124 205 251 410h-457q-10 0 -18 20.5t-12 40.5l-3 20q538 18 585 18q45 0 83.5 -35.5t20.5 -95.5q-14 -45 -218 -379h97q19 0 35 -36
q14 -30 3 -30h-175z" />
    <glyph glyph-name="eight" unicode="8" horiz-adv-x="819" 
d="M636 403q25 -81 7.5 -152t-61 -125t-102 -86.5t-116.5 -35.5q-89 -5 -157 18.5t-107 67t-59 102.5t-17.5 123.5t23.5 131t57.5 124.5t89.5 105.5t116 71.5q-44 69 -55 142q-20 130 43.5 227t170.5 125q30 8 65 9t73.5 -5.5t74.5 -25.5t66 -47.5t50 -75.5t24 -106
q5 -66 -22.5 -138t-74.5 -133t-83.5 -100t-72.5 -71q41 -64 67 -146zM656 1117q-34 43 -91.5 42.5t-109 -34t-86.5 -94t-27 -125.5q3 -27 8.5 -50.5t16.5 -45.5t18 -36.5t25.5 -36.5t25 -30t30 -33t29.5 -31q279 323 161 474zM359 99q66 0 110 30.5t61.5 74.5t22 93t-1 87
t-14.5 56q-20 40 -50 82.5t-46.5 62.5t-54.5 65q-57 -15 -103.5 -76.5t-65.5 -140t-17 -154.5t44 -128t115 -52z" />
    <glyph glyph-name="nine" unicode="9" horiz-adv-x="739" 
d="M810 815q-11 -47 -37.5 -109t-81.5 -150t-127.5 -176.5t-185 -190.5t-245.5 -189q-7 -5 -22.5 4.5t-30.5 26.5t-27 37.5t-13.5 37.5t11.5 27q257 167 430 396q-27 -8 -57 -8q-191 0 -274 134q-68 110 -39 261q28 147 130 242q104 97 242 93q101 -3 172 -32.5t106.5 -73.5
t51 -103.5t13.5 -114t-16 -112.5zM417 643q109 0 198 108q52 116 57.5 208.5t-41.5 148t-144 55.5q-86 0 -152 -105q-64 -100 -67 -220q-4 -127 70 -174q34 -21 79 -21z" />
    <glyph glyph-name="colon" unicode=":" horiz-adv-x="497" 
d="M147 117q18 37 61.5 28t88 -43.5t43.5 -57.5q-16 -116 -42 -124q-35 -11 -76.5 0t-67.5 32t-25 38q0 3 -0.5 15.5t0 23.5t5 35t13.5 53zM129 558q0 3 -0.5 15.5t0 24t5 35.5t13.5 53q18 37 61.5 28t88 -43.5t43.5 -57.5q-16 -116 -42 -124q-35 -11 -76.5 0t-67.5 31.5
t-25 37.5z" />
    <glyph glyph-name="semicolon" unicode=";" horiz-adv-x="585" 
d="M190 87q5 10 46 14t80 -12.5t36 -57.5q-6 -73 -64 -166.5t-130 -125.5q-18 -4 -27 14.5t0 46.5q4 11 31.5 75.5t47 116t11.5 55.5q-14 7 -20 11.5t-11.5 13t0.5 15.5zM206 686q18 37 61.5 28t88.5 -43.5t44 -57.5q-17 -116 -43 -124q-35 -11 -76 0t-67 31.5t-25 37.5
q0 3 -0.5 15.5t0 24t4.5 35.5t13 53z" />
    <glyph glyph-name="less" unicode="&#x3c;" horiz-adv-x="702" 
d="M623 243q17 -15 14 -32t-20 -28t-32 -3q-44 24 -255 167.5t-316 218.5q-8 11 -7.5 24.5t4.5 23.5q13 30 238.5 258.5t251.5 246.5q11 8 37.5 -16t43 -58t3.5 -50l-400 -451q399 -275 438 -301z" />
    <glyph glyph-name="equal" unicode="=" horiz-adv-x="847" 
d="M638 303q32 1 54 -40t17.5 -84t-37.5 -47q-66 -8 -279 -12t-258 12q-13 13 -22.5 54.5t-2 79t36.5 37.5h491zM672 501q-66 -8 -279 -12t-258 12q-13 13 -22.5 54t-2 78.5t36.5 37.5h491q32 1 54 -40t17.5 -83.5t-37.5 -46.5z" />
    <glyph glyph-name="greater" unicode="&#x3e;" horiz-adv-x="673" 
d="M630 732q8 -10 7.5 -24.5t-4.5 -24.5q-14 -30 -238.5 -258.5t-250.5 -246.5q-11 -8 -38 16t-43.5 58t-3.5 50l400 452q-399 275 -438 301q-17 15 -14 31.5t20 27.5t32 3q44 -24 256 -168t315 -217z" />
    <glyph glyph-name="question" unicode="?" horiz-adv-x="608" 
d="M-2 207q26 -4 61 -18.5t66 -42t28 -58.5q-2 -15 -18.5 -48.5t-32.5 -59.5l-16 -26q-4 -1 -11 -3.5t-27 -5t-38 -1.5t-40 10.5t-37 27.5t-18 43.5t4.5 52.5t17 50t20 45t12.5 28q0 1 1.5 2.5t8.5 4t19 -0.5zM479 1424q109 0 187.5 -53.5t110.5 -135.5t20.5 -184.5
t-72.5 -195.5q-75 -116 -155.5 -203t-140.5 -133.5t-113.5 -85.5t-92 -82.5t-57.5 -100.5q-4 0 -10.5 0.5t-25.5 3t-36 5.5t-37.5 9t-35 13.5t-23.5 18.5t-8 24q6 53 43 106t92 100t120.5 96.5t130 106t118 117.5t88 142t36.5 170q1 34 -5 62.5t-21 55.5t-44.5 42t-72.5 15
q-61 0 -112 -27.5t-82 -68t-56 -88.5t-37.5 -89t-23 -69.5t-16.5 -30.5q-20 -7 -46 21t-26 65q0 19 12.5 59t43.5 95t75 103.5t115.5 82.5t156.5 34z" />
    <glyph glyph-name="at" unicode="@" horiz-adv-x="806" 
d="M538 1171q116 0 191.5 -40.5t104 -104.5t29.5 -143t-23.5 -156t-64.5 -144q-114 -185 -269 -173q-32 3 -59 39.5t-12 74.5q0 1 1.5 4l2.5 5q-92 -101 -145 -101q-43 0 -74.5 25.5t-27.5 90.5q4 55 58 136.5t120 141t103 59.5q40 0 68.5 -13t38 -25t14.5 -25q1 -2 -0.5 -3
t-2.5 0q-16 7 -37 0q-56 -19 -131 -106.5t-116 -166.5t-15 -79q28 0 67.5 31t70 66.5t65 79.5t42.5 52q7 11 31 51q6 9 30.5 -2.5t43.5 -32.5t12 -36q-2 -2 -5 -6.5t-12 -17t-18 -25.5t-21 -30.5t-22 -33t-20.5 -32t-17.5 -29t-11.5 -22t-4.5 -13.5q1 0 15.5 0.5t22 2.5
t24 6t29.5 13t30.5 22.5t35.5 35.5t36 50q30 47 50 116t25 140.5t-21.5 133t-83.5 85.5q-35 15 -81.5 15.5t-99.5 -14t-107.5 -42t-107 -73t-97 -102.5t-78.5 -135t-50 -166t4 -161.5t66 -118.5t106.5 -68t131 -16.5t135.5 41.5q12 7 22 -14q14 -31 -13 -54q-5 -5 -13 -9
q-37 -19 -92.5 -28t-121 -6t-130 28t-117 67.5t-85.5 121t-33 180.5q0 79 27 168t81 175t126.5 155.5t171.5 112t208 42.5z" />
    <glyph glyph-name="A" unicode="A" horiz-adv-x="1087" 
d="M1121 1657q44 -2 106.5 -43.5t54.5 -73.5q-3 -10 -45.5 -120.5t-113 -299t-127.5 -355.5q29 -30 31 -59q0 -10 -6 -9q-25 8 -44 10q-231 -688 -181 -851q-1 2 -14 0t-36.5 2.5t-50.5 9.5t-55.5 21t-52 36.5t-39.5 56t-18 80.5q-8 154 174 638q-82 -9 -258 -33
q-535 -674 -654 -680q-36 -2 -61.5 3.5t-36.5 14.5t-17 18.5t-6 16.5v6q115 36 589 597q-125 -13 -206 -12q-52 1 -81 23t-33 52.5t-1 61t11 52.5l9 21q25 -34 66.5 -53t100.5 -22t114.5 0.5t134.5 14.5q83 99 201.5 243.5t194.5 236t153.5 183.5t120.5 136.5t54 43.5l1 -4
q14 27 21 37zM752 824q106 273 219 523q-45 -57 -186.5 -242.5t-229.5 -297.5q119 16 197 17z" />
    <glyph glyph-name="A" unicode="&#xc5;" horiz-adv-x="1087" 
d="M1121 1657q44 -2 106.5 -43.5t54.5 -73.5q-3 -10 -45.5 -120.5t-113 -299t-127.5 -355.5q29 -30 31 -59q0 -10 -6 -9q-25 8 -44 10q-231 -688 -181 -851q-1 2 -14 0t-36.5 2.5t-50.5 9.5t-55.5 21t-52 36.5t-39.5 56t-18 80.5q-8 154 174 638q-82 -9 -258 -33
q-535 -674 -654 -680q-36 -2 -61.5 3.5t-36.5 14.5t-17 18.5t-6 16.5v6q115 36 589 597q-125 -13 -206 -12q-52 1 -81 23t-33 52.5t-1 61t11 52.5l9 21q25 -34 66.5 -53t100.5 -22t114.5 0.5t134.5 14.5q83 99 201.5 243.5t194.5 236t153.5 183.5t120.5 136.5t54 43.5l1 -4
q14 27 21 37zM752 824q106 273 219 523q-45 -57 -186.5 -242.5t-229.5 -297.5q119 16 197 17z" />
    <glyph glyph-name="A" unicode="&#xc4;" horiz-adv-x="1087" 
d="M1121 1657q44 -2 106.5 -43.5t54.5 -73.5q-3 -10 -45.5 -120.5t-113 -299t-127.5 -355.5q29 -30 31 -59q0 -10 -6 -9q-25 8 -44 10q-231 -688 -181 -851q-1 2 -14 0t-36.5 2.5t-50.5 9.5t-55.5 21t-52 36.5t-39.5 56t-18 80.5q-8 154 174 638q-82 -9 -258 -33
q-535 -674 -654 -680q-36 -2 -61.5 3.5t-36.5 14.5t-17 18.5t-6 16.5v6q115 36 589 597q-125 -13 -206 -12q-52 1 -81 23t-33 52.5t-1 61t11 52.5l9 21q25 -34 66.5 -53t100.5 -22t114.5 0.5t134.5 14.5q83 99 201.5 243.5t194.5 236t153.5 183.5t120.5 136.5t54 43.5l1 -4
q14 27 21 37zM752 824q106 273 219 523q-45 -57 -186.5 -242.5t-229.5 -297.5q119 16 197 17z" />
    <glyph glyph-name="A" unicode="&#xc3;" horiz-adv-x="1087" 
d="M1121 1657q44 -2 106.5 -43.5t54.5 -73.5q-3 -10 -45.5 -120.5t-113 -299t-127.5 -355.5q29 -30 31 -59q0 -10 -6 -9q-25 8 -44 10q-231 -688 -181 -851q-1 2 -14 0t-36.5 2.5t-50.5 9.5t-55.5 21t-52 36.5t-39.5 56t-18 80.5q-8 154 174 638q-82 -9 -258 -33
q-535 -674 -654 -680q-36 -2 -61.5 3.5t-36.5 14.5t-17 18.5t-6 16.5v6q115 36 589 597q-125 -13 -206 -12q-52 1 -81 23t-33 52.5t-1 61t11 52.5l9 21q25 -34 66.5 -53t100.5 -22t114.5 0.5t134.5 14.5q83 99 201.5 243.5t194.5 236t153.5 183.5t120.5 136.5t54 43.5l1 -4
q14 27 21 37zM752 824q106 273 219 523q-45 -57 -186.5 -242.5t-229.5 -297.5q119 16 197 17z" />
    <glyph glyph-name="A" unicode="&#xc2;" horiz-adv-x="1087" 
d="M1121 1657q44 -2 106.5 -43.5t54.5 -73.5q-3 -10 -45.5 -120.5t-113 -299t-127.5 -355.5q29 -30 31 -59q0 -10 -6 -9q-25 8 -44 10q-231 -688 -181 -851q-1 2 -14 0t-36.5 2.5t-50.5 9.5t-55.5 21t-52 36.5t-39.5 56t-18 80.5q-8 154 174 638q-82 -9 -258 -33
q-535 -674 -654 -680q-36 -2 -61.5 3.5t-36.5 14.5t-17 18.5t-6 16.5v6q115 36 589 597q-125 -13 -206 -12q-52 1 -81 23t-33 52.5t-1 61t11 52.5l9 21q25 -34 66.5 -53t100.5 -22t114.5 0.5t134.5 14.5q83 99 201.5 243.5t194.5 236t153.5 183.5t120.5 136.5t54 43.5l1 -4
q14 27 21 37zM752 824q106 273 219 523q-45 -57 -186.5 -242.5t-229.5 -297.5q119 16 197 17z" />
    <glyph glyph-name="A" unicode="&#xc1;" horiz-adv-x="1087" 
d="M1121 1657q44 -2 106.5 -43.5t54.5 -73.5q-3 -10 -45.5 -120.5t-113 -299t-127.5 -355.5q29 -30 31 -59q0 -10 -6 -9q-25 8 -44 10q-231 -688 -181 -851q-1 2 -14 0t-36.5 2.5t-50.5 9.5t-55.5 21t-52 36.5t-39.5 56t-18 80.5q-8 154 174 638q-82 -9 -258 -33
q-535 -674 -654 -680q-36 -2 -61.5 3.5t-36.5 14.5t-17 18.5t-6 16.5v6q115 36 589 597q-125 -13 -206 -12q-52 1 -81 23t-33 52.5t-1 61t11 52.5l9 21q25 -34 66.5 -53t100.5 -22t114.5 0.5t134.5 14.5q83 99 201.5 243.5t194.5 236t153.5 183.5t120.5 136.5t54 43.5l1 -4
q14 27 21 37zM752 824q106 273 219 523q-45 -57 -186.5 -242.5t-229.5 -297.5q119 16 197 17z" />
    <glyph glyph-name="A" unicode="&#xc0;" horiz-adv-x="1087" 
d="M1121 1657q44 -2 106.5 -43.5t54.5 -73.5q-3 -10 -45.5 -120.5t-113 -299t-127.5 -355.5q29 -30 31 -59q0 -10 -6 -9q-25 8 -44 10q-231 -688 -181 -851q-1 2 -14 0t-36.5 2.5t-50.5 9.5t-55.5 21t-52 36.5t-39.5 56t-18 80.5q-8 154 174 638q-82 -9 -258 -33
q-535 -674 -654 -680q-36 -2 -61.5 3.5t-36.5 14.5t-17 18.5t-6 16.5v6q115 36 589 597q-125 -13 -206 -12q-52 1 -81 23t-33 52.5t-1 61t11 52.5l9 21q25 -34 66.5 -53t100.5 -22t114.5 0.5t134.5 14.5q83 99 201.5 243.5t194.5 236t153.5 183.5t120.5 136.5t54 43.5l1 -4
q14 27 21 37zM752 824q106 273 219 523q-45 -57 -186.5 -242.5t-229.5 -297.5q119 16 197 17z" />
    <glyph glyph-name="B" unicode="B" horiz-adv-x="1341" 
d="M1351 1298q-6 -73 -43 -150.5t-96 -149.5t-124 -134t-141 -121q164 0 224 -132q55 -122 5 -300q-52 -183 -184 -315q-165 -166 -378 -166q-36 0 -72.5 8.5t-71 26t-56.5 51t-22 78.5q0 153 377 375q36 20 68 -4l1 -1q9 -7 8 -18t-11 -16q-68 -35 -145 -89t-144 -126
t-67 -125q0 -23 33 -45t82 -17q130 13 253 192q103 150 148 327q41 159 0 212q-14 17 -35 19q-70 5 -139 -27q-157 -105 -207 -115q-31 -7 -59 -2q-160 -316 -167 -419q-72 -5 -132.5 63.5t-44.5 152.5q10 54 197.5 438t194.5 447q4 35 2 56.5t-6.5 30.5t-9.5 10
q53 -1 94 -10t77.5 -29.5t54 -60t12.5 -96.5q-6 -64 -142 -330q255 166 389 362q117 170 92 287q-23 112 -171 129q-18 2 -38 3q-46 1 -102 -8.5t-120.5 -33t-127 -57.5t-121 -86t-103 -115t-72 -148t-29.5 -180q-28 0 -44.5 1.5t-38.5 8.5t-33.5 20.5t-19.5 40.5t-7 65
q1 66 29.5 135.5t78.5 133.5t123 120.5t159 98t191 64.5t214 21q59 -1 114.5 -10t115.5 -33.5t102.5 -62t67 -101t17.5 -144.5z" />
    <glyph glyph-name="C" unicode="C" horiz-adv-x="1120" 
d="M1101 519q27 41 53 24q19 -12 16 -33q-1 -5 -4 -9q-48 -75 -84.5 -127.5t-90.5 -121.5t-101.5 -116.5t-111.5 -97.5t-128 -80t-143 -49.5t-163 -19.5q-253 0 -310 222q-53 205 67 542q108 304 303 570q189 258 369 350q84 44 157 42q113 -2 187 -32t104.5 -74.5t37 -103
t-6.5 -113t-36 -109.5t-42 -88t-33 -53q-20 -29 -51 -44.5t-58.5 -15.5t-49.5 13.5t-26 37.5q74 50 128 204q46 133 37 215q-5 48 -32 46q-144 -10 -342 -254q-185 -229 -330 -547q-148 -321 -156 -522q-8 -185 117 -188q366 -8 723 532z" />
    <glyph glyph-name="C" unicode="&#xc7;" horiz-adv-x="1120" 
d="M1101 519q27 41 53 24q19 -12 16 -33q-1 -5 -4 -9q-48 -75 -84.5 -127.5t-90.5 -121.5t-101.5 -116.5t-111.5 -97.5t-128 -80t-143 -49.5t-163 -19.5q-253 0 -310 222q-53 205 67 542q108 304 303 570q189 258 369 350q84 44 157 42q113 -2 187 -32t104.5 -74.5t37 -103
t-6.5 -113t-36 -109.5t-42 -88t-33 -53q-20 -29 -51 -44.5t-58.5 -15.5t-49.5 13.5t-26 37.5q74 50 128 204q46 133 37 215q-5 48 -32 46q-144 -10 -342 -254q-185 -229 -330 -547q-148 -321 -156 -522q-8 -185 117 -188q366 -8 723 532z" />
    <glyph glyph-name="D" unicode="D" horiz-adv-x="1331" 
d="M168 285q10 53 203 492t200 502q4 35 1.5 56.5t-7 30.5t-9.5 10q53 -1 94 -10t77.5 -29.5t54 -60t12.5 -96.5q-5 -51 -74 -209.5t-150 -324.5t-150 -336t-74 -241q-72 -5 -133 63.5t-45 152.5zM784 1615q188 0 319 -60t201 -189.5t62 -321.5q-5 -109 -38.5 -234.5
t-92 -255t-147 -248.5t-195 -211.5t-245.5 -148t-289 -55.5q-120 0 -214 32.5t-145.5 83t-77 103.5t-25.5 104q0 38 12 68.5t28.5 46t33.5 25.5t29 13l12 3q-9 -53 -9.5 -106.5t20.5 -103t54.5 -87t92.5 -60t135 -22.5q102 0 209.5 55.5t199 147t173.5 210.5t140 245
t91.5 253.5t33.5 233.5q0 30 -0.5 51t-6.5 62t-16 70.5t-31.5 65.5t-51 58.5t-76.5 38.5t-106 16q-113 0 -215.5 -35t-175 -90.5t-127 -124.5t-82 -137.5t-30.5 -129.5q-2 -39 7.5 -75t20.5 -52l10 -17q-50 0 -90.5 15.5t-68 58t-23.5 108.5q4 68 41 148.5t103 159
t149 143.5t189 105t212 40z" />
    <glyph glyph-name="E" unicode="E" horiz-adv-x="1257" 
d="M1166 1154q-5 -1 -13.5 -1.5t-30.5 1t-38.5 7t-30 20.5t-13.5 38q0 83 87 218q-15 94 -172 92q-73 -1 -145 -55.5t-110 -133.5t-44 -159t58 -140.5t191 -70.5q-3 -8 -8 -26t-8 -27t-8.5 -24t-11 -23.5t-12.5 -17.5t-16 -14t-19 -6q-16 -2 -51 -10.5t-95.5 -30t-122 -52
t-127.5 -80t-116.5 -108.5t-83 -144t-32.5 -182q0 -131 110 -196q109 -65 267 -34q186 36 328 184q99 103 157 245q34 25 77 -2t39 -96q-1 -23 -15 -56t-44.5 -74.5t-72.5 -83.5t-104.5 -82.5t-136.5 -71.5t-173 -50t-208 -19q-41 0 -89.5 14.5t-105 51.5t-101 92
t-74.5 145.5t-30 202.5q0 101 41.5 194.5t106 160.5t142 119.5t150 81t130.5 34.5q-54 45 -81.5 110.5t-26.5 135t30 139t80 124.5t132.5 89t178.5 34q216 0 258 -132q59 84 70 102q34 5 76.5 -8.5t69.5 -33.5t24 -33q-5 -20 -42.5 -69t-79 -98.5t-76 -104.5t-35.5 -86z" />
    <glyph glyph-name="E" unicode="&#xcb;" horiz-adv-x="1257" 
d="M1166 1154q-5 -1 -13.5 -1.5t-30.5 1t-38.5 7t-30 20.5t-13.5 38q0 83 87 218q-15 94 -172 92q-73 -1 -145 -55.5t-110 -133.5t-44 -159t58 -140.5t191 -70.5q-3 -8 -8 -26t-8 -27t-8.5 -24t-11 -23.5t-12.5 -17.5t-16 -14t-19 -6q-16 -2 -51 -10.5t-95.5 -30t-122 -52
t-127.5 -80t-116.5 -108.5t-83 -144t-32.5 -182q0 -131 110 -196q109 -65 267 -34q186 36 328 184q99 103 157 245q34 25 77 -2t39 -96q-1 -23 -15 -56t-44.5 -74.5t-72.5 -83.5t-104.5 -82.5t-136.5 -71.5t-173 -50t-208 -19q-41 0 -89.5 14.5t-105 51.5t-101 92
t-74.5 145.5t-30 202.5q0 101 41.5 194.5t106 160.5t142 119.5t150 81t130.5 34.5q-54 45 -81.5 110.5t-26.5 135t30 139t80 124.5t132.5 89t178.5 34q216 0 258 -132q59 84 70 102q34 5 76.5 -8.5t69.5 -33.5t24 -33q-5 -20 -42.5 -69t-79 -98.5t-76 -104.5t-35.5 -86z" />
    <glyph glyph-name="E" unicode="&#xca;" horiz-adv-x="1257" 
d="M1166 1154q-5 -1 -13.5 -1.5t-30.5 1t-38.5 7t-30 20.5t-13.5 38q0 83 87 218q-15 94 -172 92q-73 -1 -145 -55.5t-110 -133.5t-44 -159t58 -140.5t191 -70.5q-3 -8 -8 -26t-8 -27t-8.5 -24t-11 -23.5t-12.5 -17.5t-16 -14t-19 -6q-16 -2 -51 -10.5t-95.5 -30t-122 -52
t-127.5 -80t-116.5 -108.5t-83 -144t-32.5 -182q0 -131 110 -196q109 -65 267 -34q186 36 328 184q99 103 157 245q34 25 77 -2t39 -96q-1 -23 -15 -56t-44.5 -74.5t-72.5 -83.5t-104.5 -82.5t-136.5 -71.5t-173 -50t-208 -19q-41 0 -89.5 14.5t-105 51.5t-101 92
t-74.5 145.5t-30 202.5q0 101 41.5 194.5t106 160.5t142 119.5t150 81t130.5 34.5q-54 45 -81.5 110.5t-26.5 135t30 139t80 124.5t132.5 89t178.5 34q216 0 258 -132q59 84 70 102q34 5 76.5 -8.5t69.5 -33.5t24 -33q-5 -20 -42.5 -69t-79 -98.5t-76 -104.5t-35.5 -86z" />
    <glyph glyph-name="E" unicode="&#xc9;" horiz-adv-x="1257" 
d="M1166 1154q-5 -1 -13.5 -1.5t-30.5 1t-38.5 7t-30 20.5t-13.5 38q0 83 87 218q-15 94 -172 92q-73 -1 -145 -55.5t-110 -133.5t-44 -159t58 -140.5t191 -70.5q-3 -8 -8 -26t-8 -27t-8.5 -24t-11 -23.5t-12.5 -17.5t-16 -14t-19 -6q-16 -2 -51 -10.5t-95.5 -30t-122 -52
t-127.5 -80t-116.5 -108.5t-83 -144t-32.5 -182q0 -131 110 -196q109 -65 267 -34q186 36 328 184q99 103 157 245q34 25 77 -2t39 -96q-1 -23 -15 -56t-44.5 -74.5t-72.5 -83.5t-104.5 -82.5t-136.5 -71.5t-173 -50t-208 -19q-41 0 -89.5 14.5t-105 51.5t-101 92
t-74.5 145.5t-30 202.5q0 101 41.5 194.5t106 160.5t142 119.5t150 81t130.5 34.5q-54 45 -81.5 110.5t-26.5 135t30 139t80 124.5t132.5 89t178.5 34q216 0 258 -132q59 84 70 102q34 5 76.5 -8.5t69.5 -33.5t24 -33q-5 -20 -42.5 -69t-79 -98.5t-76 -104.5t-35.5 -86z" />
    <glyph glyph-name="E" unicode="&#xc8;" horiz-adv-x="1257" 
d="M1166 1154q-5 -1 -13.5 -1.5t-30.5 1t-38.5 7t-30 20.5t-13.5 38q0 83 87 218q-15 94 -172 92q-73 -1 -145 -55.5t-110 -133.5t-44 -159t58 -140.5t191 -70.5q-3 -8 -8 -26t-8 -27t-8.5 -24t-11 -23.5t-12.5 -17.5t-16 -14t-19 -6q-16 -2 -51 -10.5t-95.5 -30t-122 -52
t-127.5 -80t-116.5 -108.5t-83 -144t-32.5 -182q0 -131 110 -196q109 -65 267 -34q186 36 328 184q99 103 157 245q34 25 77 -2t39 -96q-1 -23 -15 -56t-44.5 -74.5t-72.5 -83.5t-104.5 -82.5t-136.5 -71.5t-173 -50t-208 -19q-41 0 -89.5 14.5t-105 51.5t-101 92
t-74.5 145.5t-30 202.5q0 101 41.5 194.5t106 160.5t142 119.5t150 81t130.5 34.5q-54 45 -81.5 110.5t-26.5 135t30 139t80 124.5t132.5 89t178.5 34q216 0 258 -132q59 84 70 102q34 5 76.5 -8.5t69.5 -33.5t24 -33q-5 -20 -42.5 -69t-79 -98.5t-76 -104.5t-35.5 -86z" />
    <glyph glyph-name="F" unicode="F" horiz-adv-x="1214" 
d="M1491 1785q96 -15 154.5 -44.5t79 -73t17 -93.5t-28.5 -115q-52 47 -126 71.5t-149 28.5t-174.5 -8.5t-177.5 -30t-182 -44.5q86 -47 66 -164q-10 -60 -176 -366q184 23 275 23q63 0 76 -59q8 -37 -5 -57q-3 -5 -7 -4q-96 31 -400 -14q-103 -186 -141.5 -257
t-114.5 -215.5t-109.5 -225t-40.5 -124.5q-73 -5 -127.5 63.5t-31.5 152.5q16 55 282 562q-210 -32 -323 -33q-54 0 -82.5 22t-31 53.5t3 63.5t15.5 54l10 22q34 -38 110 -55t160.5 -16t201.5 12q230 442 241 497q2 10 4 26q-139 -38 -225 -54.5t-140 -8.5q-57 9 -87 39
t-31 65.5t13 69t38 52.5q87 -22 198 -8t257.5 49t275 71.5t250 59.5t183.5 13z" />
    <glyph glyph-name="G" unicode="G" horiz-adv-x="1310" 
d="M1217 1224q-5 -1 -13.5 -1.5t-30.5 1t-38.5 7t-30 20.5t-13.5 38q0 88 100 238q-50 41 -114 41q-143 0 -340 -239q-182 -223 -329 -542q-147 -321 -160 -528q-11 -195 113 -202h4q89 -2 171 35t151 107t124 150t109 183q20 41 34 67v1l1 1q23 42 33 58q-125 -10 -180 -6
q-22 1 -37 23.5t-19 44.5l-3 22q57 -9 128 -2t119 19t97.5 17t63.5 -10q42 -32 59.5 -80t0.5 -90q-3 -7 -51.5 -101.5t-91 -186t-70 -196t-5.5 -154.5q-9 5 -35 17t-44 21t-41 29.5t-36.5 44t-20.5 62.5t-1 87q-85 -127 -197.5 -194t-291.5 -67q-253 0 -311 222
q-52 205 69 541q109 304 305 570q191 258 371 350q82 42 152 42q88 0 172.5 -24.5t133.5 -84.5q47 66 56 81q34 5 76.5 -8t69.5 -33t24 -33q-5 -20 -42.5 -69t-79 -98.5t-76 -104.5t-35.5 -86z" />
    <glyph glyph-name="H" unicode="H" horiz-adv-x="1495" 
d="M1475 1617q53 -1 94 -10t77.5 -30t53.5 -60.5t12 -96.5q-5 -51 -93.5 -259.5t-193 -435t-193 -446.5t-93.5 -291q-72 -5 -132.5 63.5t-44.5 152.5q9 51 240 594q-109 6 -363 -33q-97 -210 -150.5 -330.5t-106.5 -257.5t-56 -189q-72 -5 -133 63.5t-45 152.5
q12 61 210 517q-171 -26 -273 -27q-54 0 -84.5 22t-35.5 53.5t-2.5 63.5t10.5 54l8 22q90 -92 432 -63q167 385 206 479q34 82 45 126.5t7 55.5t-19 11q-113 0 -211.5 -32.5t-168 -87t-120 -125t-75 -148t-26.5 -155.5q0 -9 -11 -9q-57 3 -82 36.5t-23 82.5q2 65 37.5 138.5
t102.5 143.5t154 127t203.5 91.5t239.5 34.5q51 -1 93.5 -12.5t77.5 -35.5t52 -66t12 -99q-7 -70 -216 -524q224 28 318 28q19 0 36 -7q237 556 244 621q4 35 2 56.5t-6.5 30.5t-9.5 10z" />
    <glyph glyph-name="I" unicode="I" horiz-adv-x="860" 
d="M827 1615q51 -1 93.5 -12.5t77.5 -35.5t52 -66t12 -99q-5 -51 -95 -257t-196 -429t-196 -440.5t-95 -288.5q-72 -5 -132.5 64t-44.5 153q8 43 94 247t207.5 482t168.5 392q72 174 46 190q-5 3 -12 3q-113 0 -211.5 -32.5t-168 -87t-120 -125t-75 -148t-26.5 -155.5
q0 -9 -11 -9q-57 3 -82 36.5t-23 82.5q2 65 37.5 138.5t102.5 143.5t154 127t203.5 91.5t239.5 34.5z" />
    <glyph glyph-name="I" unicode="&#xcf;" horiz-adv-x="860" 
d="M827 1615q51 -1 93.5 -12.5t77.5 -35.5t52 -66t12 -99q-5 -51 -95 -257t-196 -429t-196 -440.5t-95 -288.5q-72 -5 -132.5 64t-44.5 153q8 43 94 247t207.5 482t168.5 392q72 174 46 190q-5 3 -12 3q-113 0 -211.5 -32.5t-168 -87t-120 -125t-75 -148t-26.5 -155.5
q0 -9 -11 -9q-57 3 -82 36.5t-23 82.5q2 65 37.5 138.5t102.5 143.5t154 127t203.5 91.5t239.5 34.5z" />
    <glyph glyph-name="I" unicode="&#xce;" horiz-adv-x="860" 
d="M827 1615q51 -1 93.5 -12.5t77.5 -35.5t52 -66t12 -99q-5 -51 -95 -257t-196 -429t-196 -440.5t-95 -288.5q-72 -5 -132.5 64t-44.5 153q8 43 94 247t207.5 482t168.5 392q72 174 46 190q-5 3 -12 3q-113 0 -211.5 -32.5t-168 -87t-120 -125t-75 -148t-26.5 -155.5
q0 -9 -11 -9q-57 3 -82 36.5t-23 82.5q2 65 37.5 138.5t102.5 143.5t154 127t203.5 91.5t239.5 34.5z" />
    <glyph glyph-name="I" unicode="&#xcd;" horiz-adv-x="860" 
d="M827 1615q51 -1 93.5 -12.5t77.5 -35.5t52 -66t12 -99q-5 -51 -95 -257t-196 -429t-196 -440.5t-95 -288.5q-72 -5 -132.5 64t-44.5 153q8 43 94 247t207.5 482t168.5 392q72 174 46 190q-5 3 -12 3q-113 0 -211.5 -32.5t-168 -87t-120 -125t-75 -148t-26.5 -155.5
q0 -9 -11 -9q-57 3 -82 36.5t-23 82.5q2 65 37.5 138.5t102.5 143.5t154 127t203.5 91.5t239.5 34.5z" />
    <glyph glyph-name="I" unicode="&#xcc;" horiz-adv-x="860" 
d="M827 1615q51 -1 93.5 -12.5t77.5 -35.5t52 -66t12 -99q-5 -51 -95 -257t-196 -429t-196 -440.5t-95 -288.5q-72 -5 -132.5 64t-44.5 153q8 43 94 247t207.5 482t168.5 392q72 174 46 190q-5 3 -12 3q-113 0 -211.5 -32.5t-168 -87t-120 -125t-75 -148t-26.5 -155.5
q0 -9 -11 -9q-57 3 -82 36.5t-23 82.5q2 65 37.5 138.5t102.5 143.5t154 127t203.5 91.5t239.5 34.5z" />
    <glyph glyph-name="J" unicode="J" horiz-adv-x="837" 
d="M1214 1522q6 -56 -47.5 -89.5t-153.5 -52.5q-22 -63 -49.5 -165t-51 -199.5t-57 -214.5t-68 -219t-83.5 -203t-102.5 -176t-125.5 -129t-154 -71q-134 -25 -227.5 -13.5t-151.5 49.5t-90 78.5t-43 72.5l-12 31q-4 20 8.5 33.5t33.5 9t37 -30.5q15 -24 42.5 -49
t71.5 -49.5t94.5 -28.5t112.5 14q76 27 143.5 104.5t115 177t95 232t81 250t76 252t77.5 218.5q-29 -2 -94 -6t-99 -6.5t-78.5 -7t-74.5 -10.5q-50 -9 -83.5 -52.5t-42.5 -81.5l-9 -39h-14.5h-17t-16.5 1.5t-18.5 4t-15.5 7.5t-15 11.5t-10 17.5t-8 24q-12 61 31 121t132 77
q91 17 473 26q61 117 127 149q30 14 71 21t82.5 4t72.5 -26.5t35 -66.5zM1078 1452q53 10 62 57q6 31 -8 41q-3 3 -6 2q-46 -8 -87 -104q29 2 39 4z" />
    <glyph glyph-name="K" unicode="K" horiz-adv-x="1890" 
d="M1560 23q48 6 83 12t46 9l11 3q9 -43 4.5 -86t-19 -78.5t-55.5 -61t-106 -34.5q-51 -7 -107 7t-118.5 49.5t-126 102.5t-124.5 159t-120 226.5t-107 297.5q-211 -294 -310 -636v-6q-72 -5 -133 64t-45 153q8 43 94.5 247t208 481.5t168.5 392.5q72 174 46 190q-5 3 -12 3
q-127 -2 -241 -63t-194 -153t-139.5 -202.5t-88.5 -212.5t-31 -182q0 -10 -10 -10q-57 3 -82 37t-23 83q1 47 21 112t59 141t91.5 152.5t124 147.5t151.5 126t179 88t202 33q51 -1 93.5 -12.5t77.5 -35.5t52 -66t12 -99q-2 -24 -20 -75t-58 -142.5t-70 -157.5t-90 -197
q139 184 283 337t279 252.5t218 99.5q57 0 98.5 -18t62 -47.5t29.5 -58.5t9 -60q-107 4 -258 -61t-329.5 -202.5t-330.5 -320.5q16 -49 35.5 -100t55.5 -130t74.5 -147.5t93 -140t111.5 -119.5t129 -74.5t146 -16.5z" />
    <glyph glyph-name="L" unicode="L" horiz-adv-x="1447" 
d="M1069 286q48 0 82 -13.5t49.5 -35t23.5 -47.5t6 -52t-6 -47.5t-8 -34.5l-5 -14q-156 22 -269.5 19.5t-233 -24t-206.5 -46t-190 -46t-184 -23.5q-56 -2 -89.5 13.5t-42 42t-6.5 51t12 51.5q47 -23 113.5 -25t132 11.5t151.5 39.5q-77 5 -124 59t-22 157q11 45 234.5 582
t230.5 603q4 35 2 56.5t-6.5 30.5t-9.5 10q53 -1 94 -10t77.5 -29.5t54 -60t12.5 -96.5q-5 -50 -82 -234t-168 -382.5t-171 -398.5t-89 -277q47 15 159 54t174.5 59t150 38.5t153.5 18.5z" />
    <glyph glyph-name="M" unicode="M" horiz-adv-x="1835" 
d="M2113 1449q-6 -27 -129.5 -311.5t-260.5 -613.5t-171 -454q-34 -116 -32 -274t46 -198q-28 -3 -53 -4t-53 0.5t-52 6t-49 12.5t-43.5 21t-37 31t-29 42.5t-19 55.5t-7 69.5t6.5 85.5q22 150 94 365t168.5 436.5t164.5 367t131 271.5q-157 -134 -392.5 -476t-364.5 -610
q6 -64 9 -107q-2 1 -22 -0.5t-53.5 2.5t-66 9.5t-58.5 21.5t-32 38q-40 148 -45.5 381.5t17.5 439.5q-109 -220 -253.5 -467t-271.5 -425t-170 -178q-28 0 -49.5 8.5t-31 20.5t-15.5 24t-7 20l-1 9q18 8 83 84.5t163 211t203 294t214.5 359t186.5 382.5q46 216 93 216
q76 0 141.5 -37.5t55.5 -73.5q-128 -469 -102 -1055q91 182 222.5 384.5t272 380.5t279 292t228.5 109q40 -2 71.5 -57.5t20.5 -109.5z" />
    <glyph glyph-name="N" unicode="N" horiz-adv-x="1402" 
d="M2022 1848q112 0 112 -139q-7 -2 -26 0t-69 -10.5t-98 -38.5q-95 -51 -224 -237t-246 -414.5t-221.5 -457.5t-167.5 -385.5t-66 -178.5q-4 0 -11 0.5t-27.5 3.5t-39.5 6.5t-43 11t-42 16t-32.5 21.5t-18.5 29q-30 105 -41.5 269.5t-6.5 333.5t22 337
q-106 -204 -254.5 -442.5t-281.5 -412t-177 -173.5q-45 0 -71 19.5t-30 39.5l-4 19q24 11 124 126t230.5 286t276.5 409.5t238 454.5q30 132 61 157v0q7 5 13 5q76 0 142 -35.5t56 -69.5q-64 -221 -90 -462.5t-20.5 -406t27.5 -275.5q27 81 76.5 201.5t119 271.5t148.5 305
t167.5 301.5t173 261.5t169.5 183.5t152 69.5z" />
    <glyph glyph-name="N" unicode="&#xd1;" horiz-adv-x="1402" 
d="M2022 1848q112 0 112 -139q-7 -2 -26 0t-69 -10.5t-98 -38.5q-95 -51 -224 -237t-246 -414.5t-221.5 -457.5t-167.5 -385.5t-66 -178.5q-4 0 -11 0.5t-27.5 3.5t-39.5 6.5t-43 11t-42 16t-32.5 21.5t-18.5 29q-30 105 -41.5 269.5t-6.5 333.5t22 337
q-106 -204 -254.5 -442.5t-281.5 -412t-177 -173.5q-45 0 -71 19.5t-30 39.5l-4 19q24 11 124 126t230.5 286t276.5 409.5t238 454.5q30 132 61 157v0q7 5 13 5q76 0 142 -35.5t56 -69.5q-64 -221 -90 -462.5t-20.5 -406t27.5 -275.5q27 81 76.5 201.5t119 271.5t148.5 305
t167.5 301.5t173 261.5t169.5 183.5t152 69.5z" />
    <glyph glyph-name="O" unicode="O" horiz-adv-x="1347" 
d="M884 1574q131 4 234.5 -31t169 -101t100 -154.5t34.5 -192.5q0 -153 -41 -300.5t-110.5 -268.5t-163.5 -224t-199 -172t-218 -106.5t-219 -34.5q-190 6 -290.5 113t-79.5 253q29 204 145 380q-154 86 -144 220q8 109 79.5 220t179 196.5t247 141.5t276.5 61zM465 79
q201 -11 387 207q159 187 252 467q89 269 67 470q-22 194 -146 231q-19 6 -41 8q-95 7 -193.5 -24.5t-179.5 -88.5t-152 -133t-116.5 -155t-66.5 -156t-8 -136q67 94 140 142t128 32q33 -2 58.5 -27.5t36.5 -58t8.5 -65.5t-20.5 -51q-77 -41 -157 -178q-90 -157 -105 -295
q-16 -156 86 -185q11 -3 22 -4z" />
    <glyph glyph-name="O" unicode="&#xd8;" horiz-adv-x="1347" 
d="M884 1574q131 4 234.5 -31t169 -101t100 -154.5t34.5 -192.5q0 -153 -41 -300.5t-110.5 -268.5t-163.5 -224t-199 -172t-218 -106.5t-219 -34.5q-190 6 -290.5 113t-79.5 253q29 204 145 380q-154 86 -144 220q8 109 79.5 220t179 196.5t247 141.5t276.5 61zM465 79
q201 -11 387 207q159 187 252 467q89 269 67 470q-22 194 -146 231q-19 6 -41 8q-95 7 -193.5 -24.5t-179.5 -88.5t-152 -133t-116.5 -155t-66.5 -156t-8 -136q67 94 140 142t128 32q33 -2 58.5 -27.5t36.5 -58t8.5 -65.5t-20.5 -51q-77 -41 -157 -178q-90 -157 -105 -295
q-16 -156 86 -185q11 -3 22 -4z" />
    <glyph glyph-name="O" unicode="&#xd6;" horiz-adv-x="1347" 
d="M884 1574q131 4 234.5 -31t169 -101t100 -154.5t34.5 -192.5q0 -153 -41 -300.5t-110.5 -268.5t-163.5 -224t-199 -172t-218 -106.5t-219 -34.5q-190 6 -290.5 113t-79.5 253q29 204 145 380q-154 86 -144 220q8 109 79.5 220t179 196.5t247 141.5t276.5 61zM465 79
q201 -11 387 207q159 187 252 467q89 269 67 470q-22 194 -146 231q-19 6 -41 8q-95 7 -193.5 -24.5t-179.5 -88.5t-152 -133t-116.5 -155t-66.5 -156t-8 -136q67 94 140 142t128 32q33 -2 58.5 -27.5t36.5 -58t8.5 -65.5t-20.5 -51q-77 -41 -157 -178q-90 -157 -105 -295
q-16 -156 86 -185q11 -3 22 -4z" />
    <glyph glyph-name="O" unicode="&#xd5;" horiz-adv-x="1347" 
d="M884 1574q131 4 234.5 -31t169 -101t100 -154.5t34.5 -192.5q0 -153 -41 -300.5t-110.5 -268.5t-163.5 -224t-199 -172t-218 -106.5t-219 -34.5q-190 6 -290.5 113t-79.5 253q29 204 145 380q-154 86 -144 220q8 109 79.5 220t179 196.5t247 141.5t276.5 61zM465 79
q201 -11 387 207q159 187 252 467q89 269 67 470q-22 194 -146 231q-19 6 -41 8q-95 7 -193.5 -24.5t-179.5 -88.5t-152 -133t-116.5 -155t-66.5 -156t-8 -136q67 94 140 142t128 32q33 -2 58.5 -27.5t36.5 -58t8.5 -65.5t-20.5 -51q-77 -41 -157 -178q-90 -157 -105 -295
q-16 -156 86 -185q11 -3 22 -4z" />
    <glyph glyph-name="O" unicode="&#xd4;" horiz-adv-x="1347" 
d="M884 1574q131 4 234.5 -31t169 -101t100 -154.5t34.5 -192.5q0 -153 -41 -300.5t-110.5 -268.5t-163.5 -224t-199 -172t-218 -106.5t-219 -34.5q-190 6 -290.5 113t-79.5 253q29 204 145 380q-154 86 -144 220q8 109 79.5 220t179 196.5t247 141.5t276.5 61zM465 79
q201 -11 387 207q159 187 252 467q89 269 67 470q-22 194 -146 231q-19 6 -41 8q-95 7 -193.5 -24.5t-179.5 -88.5t-152 -133t-116.5 -155t-66.5 -156t-8 -136q67 94 140 142t128 32q33 -2 58.5 -27.5t36.5 -58t8.5 -65.5t-20.5 -51q-77 -41 -157 -178q-90 -157 -105 -295
q-16 -156 86 -185q11 -3 22 -4z" />
    <glyph glyph-name="O" unicode="&#xd3;" horiz-adv-x="1347" 
d="M884 1574q131 4 234.5 -31t169 -101t100 -154.5t34.5 -192.5q0 -153 -41 -300.5t-110.5 -268.5t-163.5 -224t-199 -172t-218 -106.5t-219 -34.5q-190 6 -290.5 113t-79.5 253q29 204 145 380q-154 86 -144 220q8 109 79.5 220t179 196.5t247 141.5t276.5 61zM465 79
q201 -11 387 207q159 187 252 467q89 269 67 470q-22 194 -146 231q-19 6 -41 8q-95 7 -193.5 -24.5t-179.5 -88.5t-152 -133t-116.5 -155t-66.5 -156t-8 -136q67 94 140 142t128 32q33 -2 58.5 -27.5t36.5 -58t8.5 -65.5t-20.5 -51q-77 -41 -157 -178q-90 -157 -105 -295
q-16 -156 86 -185q11 -3 22 -4z" />
    <glyph glyph-name="O" unicode="&#xd2;" horiz-adv-x="1347" 
d="M884 1574q131 4 234.5 -31t169 -101t100 -154.5t34.5 -192.5q0 -153 -41 -300.5t-110.5 -268.5t-163.5 -224t-199 -172t-218 -106.5t-219 -34.5q-190 6 -290.5 113t-79.5 253q29 204 145 380q-154 86 -144 220q8 109 79.5 220t179 196.5t247 141.5t276.5 61zM465 79
q201 -11 387 207q159 187 252 467q89 269 67 470q-22 194 -146 231q-19 6 -41 8q-95 7 -193.5 -24.5t-179.5 -88.5t-152 -133t-116.5 -155t-66.5 -156t-8 -136q67 94 140 142t128 32q33 -2 58.5 -27.5t36.5 -58t8.5 -65.5t-20.5 -51q-77 -41 -157 -178q-90 -157 -105 -295
q-16 -156 86 -185q11 -3 22 -4z" />
    <glyph glyph-name="P" unicode="P" horiz-adv-x="1230" 
d="M919 1615q59 -1 118 -12t124 -39t113 -70.5t77 -112.5t24 -158q-7 -132 -75.5 -252t-177 -205.5t-252 -136.5t-296.5 -54q-101 -218 -158.5 -362t-62.5 -213q-37 -3 -72.5 6.5t-66.5 34.5t-41.5 68t2.5 107q11 46 213 512.5t209 532.5q4 35 2 56.5t-6.5 30.5t-9.5 10
q53 -1 94 -10t77.5 -29.5t54 -60t12.5 -96.5q-6 -72 -199 -484q208 11 359 181q120 134 157 310q34 167 -28 270q-54 91 -168 94q-46 1 -102 -8.5t-120.5 -32.5t-127 -57.5t-121 -86.5t-103 -114.5t-72 -147.5t-29.5 -180q-24 0 -37.5 1t-33 4.5t-30.5 12t-22.5 23t-16 38.5
t-3.5 56q1 79 40.5 162.5t113 157.5t168.5 132t219 91.5t254 30.5z" />
    <glyph glyph-name="Q" unicode="Q" horiz-adv-x="1429" 
d="M1025 38q92 4 154 75q12 -21 14.5 -51t-7.5 -62.5t-30 -60.5t-59 -46t-90 -18q-232 0 -355 177q-90 -25 -181 -22q-190 6 -290.5 113t-79.5 253q29 204 145 380q-154 86 -144 220q8 109 79.5 220t179 196.5t247 141.5t276.5 61q131 4 234.5 -31t169 -101t100 -154.5
t34.5 -192.5q0 -169 -49.5 -331.5t-134 -292.5t-193.5 -232t-232 -165q90 -81 212 -77zM465 120q67 -4 138 21q-34 76 -47 153t-9 124q4 49 27 81.5t44 40.5l21 8q25 -206 97 -334q172 131 298 402q119 254 138 497q19 242 -75 339q-45 46 -113 51q-95 7 -193.5 -24.5
t-179.5 -88.5t-152 -133t-116.5 -155t-66.5 -156t-8 -136q67 94 140 142t128 32q33 -2 58.5 -27.5t36.5 -58t8.5 -65.5t-20.5 -51q-77 -41 -157 -178q-90 -157 -105 -295q-16 -156 86 -185q11 -3 22 -4z" />
    <glyph glyph-name="R" unicode="R" horiz-adv-x="1363" 
d="M1375 1223q-9 -174 -120 -321.5t-288.5 -234t-379.5 -92.5q218 -375 466 -371q48 1 83 7t46 11l11 6q36 -260 -176 -260q-145 0 -269.5 107t-237.5 360q-151 -337 -157 -435q-37 -3 -72.5 6.5t-66.5 34.5t-41.5 68t2.5 107q4 17 17 51t39 96t45 106t59.5 138t58.5 135
q-3 9 -6.5 20t-8 25t-6.5 21q-20 67 21 126q5 8 14.5 7t13.5 -10q19 -52 25 -65q144 335 150 395q4 35 2 56.5t-6.5 30.5t-9.5 10q53 -1 94 -10t77.5 -29.5t54 -60t12.5 -96.5q-6 -72 -199 -484q208 11 359 181q120 134 157 310q34 167 -28 270q-54 91 -168 94
q-46 1 -102 -8.5t-120.5 -32.5t-127 -57.5t-121 -86.5t-103 -114.5t-72 -147.5t-29.5 -180q-24 0 -37.5 1t-33 4.5t-30.5 12t-22.5 23t-16 38.5t-3.5 56q1 79 40.5 162.5t113 157.5t168.5 132t219 91.5t254 30.5q59 -1 118 -12t124 -39t113 -70.5t77 -112.5t24 -158z" />
    <glyph glyph-name="S" unicode="S" horiz-adv-x="1122" 
d="M745 1110q21 -1 51 34.5t57 88.5t49 106t31 92t0 42q-8 3 -53.5 -22t-109.5 -66.5t-136.5 -100t-135 -119.5t-105 -129t-46.5 -123q-1 -14 96.5 -16.5t226 1t141.5 3.5q38 -1 85 -22.5t89.5 -61t58 -95t-10.5 -124.5q-25 -60 -78 -141t-136.5 -173.5t-178 -167t-212 -118
t-228.5 -30.5q-41 3 -94 36t-90 86.5t-26 103.5q9 41 71 129t133.5 163.5t102.5 84.5q33 8 58 2.5t40 -15.5l15 -11q-60 -54 -176.5 -204t-127.5 -227q114 -3 237.5 63t217.5 164t167 198t105 173.5t13 82.5q-35 8 -119 2t-214.5 -2t-193.5 27q-70 26 -109 69t-43 93.5
t15 108.5q27 74 88.5 149t134 133t151 107.5t142 79.5t105.5 42q59 17 125.5 -5.5t107 -78.5t24.5 -124q-8 -36 -20 -74.5t-34.5 -94.5t-54.5 -97t-68 -52q-47 -12 -78 -5.5t-45 21.5z" />
    <glyph glyph-name="T" unicode="T" horiz-adv-x="1161" 
d="M1438 1773q96 -15 154.5 -44.5t79 -73t17 -93.5t-28.5 -115q-52 47 -126 71.5t-149 28.5t-174.5 -8.5t-177.5 -30t-182 -44.5q85 -47 65 -164q-9 -51 -107.5 -239t-212 -389.5t-213 -401t-110.5 -270.5q-73 -5 -127 63.5t-31 152.5q13 47 155 319t282 543t150 321
q2 10 4 26q-139 -38 -225 -54.5t-140 -8.5q-57 9 -87 39t-31 65.5t13 69t38 52.5q87 -22 198 -8t257.5 49t275 71.5t250 59.5t183.5 13z" />
    <glyph glyph-name="U" unicode="U" horiz-adv-x="1771" 
d="M1653 1621q137 12 207.5 -33.5t52.5 -163.5q-9 -61 -151 -402.5t-281.5 -691.5t-145.5 -441q-36 -3 -76.5 16t-74 58t-44 99.5t12.5 141.5q13 42 163 408q-66 -95 -135.5 -181t-150 -168.5t-157.5 -142.5t-157 -96.5t-149 -36.5q-72 -5 -133 64t-45 153q8 43 94.5 247
t208 481.5t168.5 392.5q72 174 46 190q-5 3 -12 3q-106 -2 -216.5 -66.5t-201.5 -165t-173.5 -224.5t-139.5 -246t-90.5 -227t-34.5 -169q0 -2 -16 -5t-38 -2t-44.5 8t-38.5 28t-16 54q0 54 42 157t113 227t172.5 253t212 234.5t240 173t248.5 67.5q51 -1 93.5 -12.5
t77.5 -35.5t52 -66t12 -99q-5 -56 -113 -295.5t-245 -538.5t-188 -444q-4 -13 5.5 -24t23.5 -7q102 25 233.5 134.5t251.5 256t224 304.5t165 290q156 388 162 446q4 35 2 56.5t-6.5 30.5t-9.5 10z" />
    <glyph glyph-name="U" unicode="&#xdc;" horiz-adv-x="1771" 
d="M1653 1621q137 12 207.5 -33.5t52.5 -163.5q-9 -61 -151 -402.5t-281.5 -691.5t-145.5 -441q-36 -3 -76.5 16t-74 58t-44 99.5t12.5 141.5q13 42 163 408q-66 -95 -135.5 -181t-150 -168.5t-157.5 -142.5t-157 -96.5t-149 -36.5q-72 -5 -133 64t-45 153q8 43 94.5 247
t208 481.5t168.5 392.5q72 174 46 190q-5 3 -12 3q-106 -2 -216.5 -66.5t-201.5 -165t-173.5 -224.5t-139.5 -246t-90.5 -227t-34.5 -169q0 -2 -16 -5t-38 -2t-44.5 8t-38.5 28t-16 54q0 54 42 157t113 227t172.5 253t212 234.5t240 173t248.5 67.5q51 -1 93.5 -12.5
t77.5 -35.5t52 -66t12 -99q-5 -56 -113 -295.5t-245 -538.5t-188 -444q-4 -13 5.5 -24t23.5 -7q102 25 233.5 134.5t251.5 256t224 304.5t165 290q156 388 162 446q4 35 2 56.5t-6.5 30.5t-9.5 10z" />
    <glyph glyph-name="U" unicode="&#xdb;" horiz-adv-x="1771" 
d="M1653 1621q137 12 207.5 -33.5t52.5 -163.5q-9 -61 -151 -402.5t-281.5 -691.5t-145.5 -441q-36 -3 -76.5 16t-74 58t-44 99.5t12.5 141.5q13 42 163 408q-66 -95 -135.5 -181t-150 -168.5t-157.5 -142.5t-157 -96.5t-149 -36.5q-72 -5 -133 64t-45 153q8 43 94.5 247
t208 481.5t168.5 392.5q72 174 46 190q-5 3 -12 3q-106 -2 -216.5 -66.5t-201.5 -165t-173.5 -224.5t-139.5 -246t-90.5 -227t-34.5 -169q0 -2 -16 -5t-38 -2t-44.5 8t-38.5 28t-16 54q0 54 42 157t113 227t172.5 253t212 234.5t240 173t248.5 67.5q51 -1 93.5 -12.5
t77.5 -35.5t52 -66t12 -99q-5 -56 -113 -295.5t-245 -538.5t-188 -444q-4 -13 5.5 -24t23.5 -7q102 25 233.5 134.5t251.5 256t224 304.5t165 290q156 388 162 446q4 35 2 56.5t-6.5 30.5t-9.5 10z" />
    <glyph glyph-name="U" unicode="&#xda;" horiz-adv-x="1771" 
d="M1653 1621q137 12 207.5 -33.5t52.5 -163.5q-9 -61 -151 -402.5t-281.5 -691.5t-145.5 -441q-36 -3 -76.5 16t-74 58t-44 99.5t12.5 141.5q13 42 163 408q-66 -95 -135.5 -181t-150 -168.5t-157.5 -142.5t-157 -96.5t-149 -36.5q-72 -5 -133 64t-45 153q8 43 94.5 247
t208 481.5t168.5 392.5q72 174 46 190q-5 3 -12 3q-106 -2 -216.5 -66.5t-201.5 -165t-173.5 -224.5t-139.5 -246t-90.5 -227t-34.5 -169q0 -2 -16 -5t-38 -2t-44.5 8t-38.5 28t-16 54q0 54 42 157t113 227t172.5 253t212 234.5t240 173t248.5 67.5q51 -1 93.5 -12.5
t77.5 -35.5t52 -66t12 -99q-5 -56 -113 -295.5t-245 -538.5t-188 -444q-4 -13 5.5 -24t23.5 -7q102 25 233.5 134.5t251.5 256t224 304.5t165 290q156 388 162 446q4 35 2 56.5t-6.5 30.5t-9.5 10z" />
    <glyph glyph-name="U" unicode="&#xd9;" horiz-adv-x="1771" 
d="M1653 1621q137 12 207.5 -33.5t52.5 -163.5q-9 -61 -151 -402.5t-281.5 -691.5t-145.5 -441q-36 -3 -76.5 16t-74 58t-44 99.5t12.5 141.5q13 42 163 408q-66 -95 -135.5 -181t-150 -168.5t-157.5 -142.5t-157 -96.5t-149 -36.5q-72 -5 -133 64t-45 153q8 43 94.5 247
t208 481.5t168.5 392.5q72 174 46 190q-5 3 -12 3q-106 -2 -216.5 -66.5t-201.5 -165t-173.5 -224.5t-139.5 -246t-90.5 -227t-34.5 -169q0 -2 -16 -5t-38 -2t-44.5 8t-38.5 28t-16 54q0 54 42 157t113 227t172.5 253t212 234.5t240 173t248.5 67.5q51 -1 93.5 -12.5
t77.5 -35.5t52 -66t12 -99q-5 -56 -113 -295.5t-245 -538.5t-188 -444q-4 -13 5.5 -24t23.5 -7q102 25 233.5 134.5t251.5 256t224 304.5t165 290q156 388 162 446q4 35 2 56.5t-6.5 30.5t-9.5 10z" />
    <glyph glyph-name="V" unicode="V" horiz-adv-x="1216" 
d="M1261 1604q5 2 13 5t31 8.5t44 6t47 -7.5t44.5 -26.5t31 -57t12.5 -93.5q0 -123 -66 -285.5t-169.5 -320t-234.5 -312.5t-259 -272t-244 -189.5t-188 -72.5q-127 0 -188.5 57t-61.5 199q0 68 27.5 196t58.5 262.5t55.5 277.5t17.5 279.5t-55 230.5q65 14 115.5 17.5
t86.5 -1t62.5 -21t43 -36.5t27 -53t15.5 -65.5t8 -79.5q7 -108 -58 -494t-129 -658q-2 -10 4 -16t15 -2q105 54 221 150.5t222.5 216t204 253.5t167 269t109 255.5t33.5 221t-63 158.5z" />
    <glyph glyph-name="W" unicode="W" horiz-adv-x="1869" 
d="M2503 1848q111 0 111 -139q-7 -2 -25.5 0t-68.5 -10.5t-98 -38.5q-95 -51 -226.5 -237t-252 -415t-228.5 -457.5t-173.5 -385t-68.5 -178.5q-7 -1 -20 -2t-46.5 2.5t-61.5 14t-56 39t-39 70.5q-43 163 -52 369.5t11 355.5q-131 -128 -270 -305t-225 -306t-150 -238
q-72 -5 -132.5 64t-44.5 153q8 43 94 247t207.5 482t168.5 392q72 174 46 190q-5 3 -12 3q-106 -2 -219 -68.5t-208.5 -170t-182.5 -231t-148 -252t-97.5 -232t-37.5 -171.5q0 -9 -10 -9q-57 3 -82.5 36.5t-23.5 82.5q2 55 44.5 157.5t113.5 226.5t172.5 253t211 234.5
t239 173t248.5 67.5q51 -1 93.5 -12.5t77 -35.5t51.5 -66t12 -99q-4 -48 -74.5 -210.5t-193 -428t-180.5 -398.5q114 166 260.5 337t280.5 304q34 135 79 135q76 0 139.5 -35t58.5 -70q-32 -224 -44 -430t3 -348q34 96 98.5 244t152 329t190.5 359t204.5 326t203.5 240
t180 92z" />
    <glyph glyph-name="X" unicode="X" horiz-adv-x="1370" 
d="M1664 1880q78 0 116.5 -36t38.5 -135q-135 11 -252 -27q-254 -83 -847 -711q46 -125 74.5 -201t73 -187.5t77.5 -180t72 -138t74 -104t66 -38.5q0 -135 -202 -135q-44 0 -87.5 28t-83.5 84t-75 119.5t-73 157.5t-67 173t-66 188q-100 -110 -259 -289t-258 -288t-159 -167
q-7 -5 -17.5 -5.5t-22 7.5t-21 19t-14.5 28.5t-2 36.5q35 42 120 139.5t256 287.5t333 362q-34 102 -53.5 157.5t-50.5 140t-54 132.5t-51 100t-55 80.5t-54 38.5q36 62 91 87.5t108 16.5t99 -39.5t69 -74.5q53 -101 168 -414q768 787 988 787z" />
    <glyph glyph-name="Y" unicode="Y" horiz-adv-x="1425" 
d="M1543 1576q65 46 157 28q68 -14 87 -50q8 -16 0 -32q-12 -24 -119.5 -255t-272 -586.5t-264.5 -568.5q-59 -126 -128.5 -226t-136.5 -161t-131.5 -103.5t-123.5 -61.5t-100 -26t-74 -5q-152 8 -241 88q-18 16 -18 34t13.5 23t30.5 -3q89 -49 208 -39q59 13 120.5 60
t121 126.5t115 169.5t115 211.5t107 228t104.5 242.5q-249 -333 -461 -352q-45 -7 -93 18.5t-78.5 75.5t-24.5 106q4 40 64 172t142 318.5t125 323.5q26 84 34 130t2.5 57t-19.5 9q-105 -11 -209.5 -85t-187 -182.5t-153.5 -239t-117 -256.5t-70 -234t-20 -172
q0 -2 -15.5 -6t-38 -5t-45 4t-40 24.5t-20.5 52.5q-4 40 14 111.5t53 160.5t87.5 190t115.5 201t141 193t159 165.5t174 120t183 55.5q51 4 94 -4t79.5 -29t57.5 -61.5t21 -97.5q0 -44 -48.5 -159t-111.5 -241t-131.5 -290.5t-99.5 -286.5q-4 -14 7 -23.5t24 -5.5
q74 26 151 88t151 154.5t139.5 192.5t135.5 225q87 209 149.5 331.5t109.5 156.5z" />
    <glyph glyph-name="Y" unicode="&#x178;" horiz-adv-x="1425" 
d="M1543 1576q65 46 157 28q68 -14 87 -50q8 -16 0 -32q-12 -24 -119.5 -255t-272 -586.5t-264.5 -568.5q-59 -126 -128.5 -226t-136.5 -161t-131.5 -103.5t-123.5 -61.5t-100 -26t-74 -5q-152 8 -241 88q-18 16 -18 34t13.5 23t30.5 -3q89 -49 208 -39q59 13 120.5 60
t121 126.5t115 169.5t115 211.5t107 228t104.5 242.5q-249 -333 -461 -352q-45 -7 -93 18.5t-78.5 75.5t-24.5 106q4 40 64 172t142 318.5t125 323.5q26 84 34 130t2.5 57t-19.5 9q-105 -11 -209.5 -85t-187 -182.5t-153.5 -239t-117 -256.5t-70 -234t-20 -172
q0 -2 -15.5 -6t-38 -5t-45 4t-40 24.5t-20.5 52.5q-4 40 14 111.5t53 160.5t87.5 190t115.5 201t141 193t159 165.5t174 120t183 55.5q51 4 94 -4t79.5 -29t57.5 -61.5t21 -97.5q0 -44 -48.5 -159t-111.5 -241t-131.5 -290.5t-99.5 -286.5q-4 -14 7 -23.5t24 -5.5
q74 26 151 88t151 154.5t139.5 192.5t135.5 225q87 209 149.5 331.5t109.5 156.5z" />
    <glyph glyph-name="Y" unicode="&#xdd;" horiz-adv-x="1425" 
d="M1543 1576q65 46 157 28q68 -14 87 -50q8 -16 0 -32q-12 -24 -119.5 -255t-272 -586.5t-264.5 -568.5q-59 -126 -128.5 -226t-136.5 -161t-131.5 -103.5t-123.5 -61.5t-100 -26t-74 -5q-152 8 -241 88q-18 16 -18 34t13.5 23t30.5 -3q89 -49 208 -39q59 13 120.5 60
t121 126.5t115 169.5t115 211.5t107 228t104.5 242.5q-249 -333 -461 -352q-45 -7 -93 18.5t-78.5 75.5t-24.5 106q4 40 64 172t142 318.5t125 323.5q26 84 34 130t2.5 57t-19.5 9q-105 -11 -209.5 -85t-187 -182.5t-153.5 -239t-117 -256.5t-70 -234t-20 -172
q0 -2 -15.5 -6t-38 -5t-45 4t-40 24.5t-20.5 52.5q-4 40 14 111.5t53 160.5t87.5 190t115.5 201t141 193t159 165.5t174 120t183 55.5q51 4 94 -4t79.5 -29t57.5 -61.5t21 -97.5q0 -44 -48.5 -159t-111.5 -241t-131.5 -290.5t-99.5 -286.5q-4 -14 7 -23.5t24 -5.5
q74 26 151 88t151 154.5t139.5 192.5t135.5 225q87 209 149.5 331.5t109.5 156.5z" />
    <glyph glyph-name="Z" unicode="Z" horiz-adv-x="1712" 
d="M1371 1719q63 20 121.5 -12t83 -75.5t6.5 -54.5q-59 -36 -575.5 -589t-724.5 -801q111 -44 170.5 -66t167.5 -57t209 -53.5t202 -23.5q306 -16 380 91q14 -20 23 -50t4.5 -70t-27.5 -73.5t-86.5 -57t-161.5 -23.5q-167 0 -451 92.5t-514 195.5q-58 -53 -123.5 -76.5
t-119.5 -17t-97.5 28t-65.5 55t-15 66.5q15 75 53 110.5t95 34.5t133 -23q99 108 480.5 550.5t552.5 629.5q-51 1 -123.5 5t-124.5 7t-117 4.5t-112 -0.5t-97 -10t-85 -22t-64 -38.5t-44 -57.5q-38 0 -66.5 42t-12.5 88q10 27 19.5 43.5t31 39t60 36.5t94.5 21t123.5 7.5
t127.5 -3t134 -11.5t126 -15.5t122 -17t106 -14.5q146 154 182 165zM-56 160q6 -2 38 30q-43 8 -48 -14q-3 -13 10 -16z" />
    <glyph glyph-name="underscore" unicode="_" horiz-adv-x="1257" 
d="M977 31q29 0 68 -57.5t32 -86.5q-3 -10 -100 -14t-239.5 -2t-279.5 5.5t-246 7t-113 3.5q-22 0 -48 57q-28 61 -17 82q3 5 9 5h934z" />
    <glyph glyph-name="a" unicode="a" horiz-adv-x="966" 
d="M1049 614q19 0 28.5 -16t-0.5 -32q-147 -237 -305 -403t-240 -162q-31 2 -64.5 16t-62.5 39.5t-39.5 60.5t5.5 79q4 10 9 20q-86 -94 -168 -153.5t-136 -59.5q-39 0 -74 10t-71 34.5t-55 75.5t-14 123q6 86 77 211.5t164 233.5t191.5 185.5t156.5 77.5q64 0 113.5 -15
t77 -39t41 -42.5t21.5 -37.5q1 -3 -1.5 -5.5t-5.5 -0.5q-33 17 -76 1q-117 -41 -274.5 -224.5t-244 -349t-31.5 -165.5q40 0 91.5 30t99 74.5t99.5 103t91.5 108.5t77.5 98t55 66q52 85 65 107q12 18 63 -5t91.5 -67t25.5 -76q-6 -8 -16 -22t-39 -55.5t-55 -80t-58 -87
t-55 -86t-38.5 -68t-14.5 -40.5q52 5 196 161t273 362q10 15 26 15z" />
    <glyph glyph-name="a" unicode="&#xe5;" horiz-adv-x="966" 
d="M1049 614q19 0 28.5 -16t-0.5 -32q-147 -237 -305 -403t-240 -162q-31 2 -64.5 16t-62.5 39.5t-39.5 60.5t5.5 79q4 10 9 20q-86 -94 -168 -153.5t-136 -59.5q-39 0 -74 10t-71 34.5t-55 75.5t-14 123q6 86 77 211.5t164 233.5t191.5 185.5t156.5 77.5q64 0 113.5 -15
t77 -39t41 -42.5t21.5 -37.5q1 -3 -1.5 -5.5t-5.5 -0.5q-33 17 -76 1q-117 -41 -274.5 -224.5t-244 -349t-31.5 -165.5q40 0 91.5 30t99 74.5t99.5 103t91.5 108.5t77.5 98t55 66q52 85 65 107q12 18 63 -5t91.5 -67t25.5 -76q-6 -8 -16 -22t-39 -55.5t-55 -80t-58 -87
t-55 -86t-38.5 -68t-14.5 -40.5q52 5 196 161t273 362q10 15 26 15z" />
    <glyph glyph-name="a" unicode="&#xe4;" horiz-adv-x="966" 
d="M1049 614q19 0 28.5 -16t-0.5 -32q-147 -237 -305 -403t-240 -162q-31 2 -64.5 16t-62.5 39.5t-39.5 60.5t5.5 79q4 10 9 20q-86 -94 -168 -153.5t-136 -59.5q-39 0 -74 10t-71 34.5t-55 75.5t-14 123q6 86 77 211.5t164 233.5t191.5 185.5t156.5 77.5q64 0 113.5 -15
t77 -39t41 -42.5t21.5 -37.5q1 -3 -1.5 -5.5t-5.5 -0.5q-33 17 -76 1q-117 -41 -274.5 -224.5t-244 -349t-31.5 -165.5q40 0 91.5 30t99 74.5t99.5 103t91.5 108.5t77.5 98t55 66q52 85 65 107q12 18 63 -5t91.5 -67t25.5 -76q-6 -8 -16 -22t-39 -55.5t-55 -80t-58 -87
t-55 -86t-38.5 -68t-14.5 -40.5q52 5 196 161t273 362q10 15 26 15z" />
    <glyph glyph-name="a" unicode="&#xe3;" horiz-adv-x="966" 
d="M1049 614q19 0 28.5 -16t-0.5 -32q-147 -237 -305 -403t-240 -162q-31 2 -64.5 16t-62.5 39.5t-39.5 60.5t5.5 79q4 10 9 20q-86 -94 -168 -153.5t-136 -59.5q-39 0 -74 10t-71 34.5t-55 75.5t-14 123q6 86 77 211.5t164 233.5t191.5 185.5t156.5 77.5q64 0 113.5 -15
t77 -39t41 -42.5t21.5 -37.5q1 -3 -1.5 -5.5t-5.5 -0.5q-33 17 -76 1q-117 -41 -274.5 -224.5t-244 -349t-31.5 -165.5q40 0 91.5 30t99 74.5t99.5 103t91.5 108.5t77.5 98t55 66q52 85 65 107q12 18 63 -5t91.5 -67t25.5 -76q-6 -8 -16 -22t-39 -55.5t-55 -80t-58 -87
t-55 -86t-38.5 -68t-14.5 -40.5q52 5 196 161t273 362q10 15 26 15z" />
    <glyph glyph-name="a" unicode="&#xe2;" horiz-adv-x="966" 
d="M1049 614q19 0 28.5 -16t-0.5 -32q-147 -237 -305 -403t-240 -162q-31 2 -64.5 16t-62.5 39.5t-39.5 60.5t5.5 79q4 10 9 20q-86 -94 -168 -153.5t-136 -59.5q-39 0 -74 10t-71 34.5t-55 75.5t-14 123q6 86 77 211.5t164 233.5t191.5 185.5t156.5 77.5q64 0 113.5 -15
t77 -39t41 -42.5t21.5 -37.5q1 -3 -1.5 -5.5t-5.5 -0.5q-33 17 -76 1q-117 -41 -274.5 -224.5t-244 -349t-31.5 -165.5q40 0 91.5 30t99 74.5t99.5 103t91.5 108.5t77.5 98t55 66q52 85 65 107q12 18 63 -5t91.5 -67t25.5 -76q-6 -8 -16 -22t-39 -55.5t-55 -80t-58 -87
t-55 -86t-38.5 -68t-14.5 -40.5q52 5 196 161t273 362q10 15 26 15z" />
    <glyph glyph-name="a" unicode="&#xe1;" horiz-adv-x="966" 
d="M1049 614q19 0 28.5 -16t-0.5 -32q-147 -237 -305 -403t-240 -162q-31 2 -64.5 16t-62.5 39.5t-39.5 60.5t5.5 79q4 10 9 20q-86 -94 -168 -153.5t-136 -59.5q-39 0 -74 10t-71 34.5t-55 75.5t-14 123q6 86 77 211.5t164 233.5t191.5 185.5t156.5 77.5q64 0 113.5 -15
t77 -39t41 -42.5t21.5 -37.5q1 -3 -1.5 -5.5t-5.5 -0.5q-33 17 -76 1q-117 -41 -274.5 -224.5t-244 -349t-31.5 -165.5q40 0 91.5 30t99 74.5t99.5 103t91.5 108.5t77.5 98t55 66q52 85 65 107q12 18 63 -5t91.5 -67t25.5 -76q-6 -8 -16 -22t-39 -55.5t-55 -80t-58 -87
t-55 -86t-38.5 -68t-14.5 -40.5q52 5 196 161t273 362q10 15 26 15z" />
    <glyph glyph-name="a" unicode="&#xe0;" horiz-adv-x="966" 
d="M1049 614q19 0 28.5 -16t-0.5 -32q-147 -237 -305 -403t-240 -162q-31 2 -64.5 16t-62.5 39.5t-39.5 60.5t5.5 79q4 10 9 20q-86 -94 -168 -153.5t-136 -59.5q-39 0 -74 10t-71 34.5t-55 75.5t-14 123q6 86 77 211.5t164 233.5t191.5 185.5t156.5 77.5q64 0 113.5 -15
t77 -39t41 -42.5t21.5 -37.5q1 -3 -1.5 -5.5t-5.5 -0.5q-33 17 -76 1q-117 -41 -274.5 -224.5t-244 -349t-31.5 -165.5q40 0 91.5 30t99 74.5t99.5 103t91.5 108.5t77.5 98t55 66q52 85 65 107q12 18 63 -5t91.5 -67t25.5 -76q-6 -8 -16 -22t-39 -55.5t-55 -80t-58 -87
t-55 -86t-38.5 -68t-14.5 -40.5q52 5 196 161t273 362q10 15 26 15z" />
    <glyph glyph-name="b" unicode="b" horiz-adv-x="1032" 
d="M1110 608q19 0 28 -16t-1 -33q-56 -97 -119 -183.5t-146 -174t-169.5 -150t-191.5 -101.5t-211 -39q-61 0 -104.5 11t-62 26t-28.5 30.5t-10 26.5v11q110 -68 302.5 140t298 458.5t5.5 282.5q-47 15 -98.5 -8.5t-94 -68.5t-92 -118t-84.5 -135.5t-80.5 -144.5t-70.5 -123
q-112 -235 -145 -304q-103 0 -154 71.5t-21 145.5q17 43 185 396.5t315.5 676t140.5 344.5q15 2 43.5 2.5t62 -11.5t61 -28.5t42 -49t4.5 -72.5q-19 -80 -296 -669q106 125 219 150q41 7 83 4.5t80 -22.5t66.5 -49t42.5 -75t7 -101q-19 -149 -116.5 -341t-238.5 -316
q104 44 251 193.5t271 348.5q10 15 26 15z" />
    <glyph glyph-name="c" unicode="c" horiz-adv-x="862" 
d="M927 614q16 22 31.5 20.5t27 -14.5t6.5 -21q-19 -35 -47 -79t-73.5 -102.5t-96.5 -115t-117.5 -112t-134.5 -97t-149.5 -67.5t-161.5 -26q-130 0 -211.5 75t-82.5 214q-1 68 26 158t79.5 183t119.5 171.5t156 128.5t180 50q73 0 122.5 -19t70 -49t26.5 -68t-1.5 -75
t-19.5 -71.5t-23 -55t-17 -28.5q-27 -34 -75.5 -32t-54.5 32q53 34 86 126q27 79 10 108q-6 10 -16 9q-104 -7 -229 -168q-115 -148 -177 -326q-64 -183 -18 -254q22 -34 68 -34q72 0 158 38.5t164 98.5t153 133.5t130.5 142.5t90.5 126z" />
    <glyph glyph-name="c" unicode="&#xe7;" horiz-adv-x="862" 
d="M927 614q16 22 31.5 20.5t27 -14.5t6.5 -21q-19 -35 -47 -79t-73.5 -102.5t-96.5 -115t-117.5 -112t-134.5 -97t-149.5 -67.5t-161.5 -26q-130 0 -211.5 75t-82.5 214q-1 68 26 158t79.5 183t119.5 171.5t156 128.5t180 50q73 0 122.5 -19t70 -49t26.5 -68t-1.5 -75
t-19.5 -71.5t-23 -55t-17 -28.5q-27 -34 -75.5 -32t-54.5 32q53 34 86 126q27 79 10 108q-6 10 -16 9q-104 -7 -229 -168q-115 -148 -177 -326q-64 -183 -18 -254q22 -34 68 -34q72 0 158 38.5t164 98.5t153 133.5t130.5 142.5t90.5 126z" />
    <glyph glyph-name="d" unicode="d" horiz-adv-x="1007" 
d="M1093 1627q133 -7 189.5 -44t21.5 -131q-50 -133 -228.5 -469t-328.5 -611.5t-149 -295.5q52 5 196 161t273 362q10 15 27 15q19 0 28 -16.5t-1 -32.5q-146 -237 -304.5 -402.5t-240.5 -161.5q-69 4 -127.5 65.5t-27.5 140.5q4 10 45 92q-90 -120 -186.5 -206t-159.5 -92
q-30 -3 -60.5 1t-64 19.5t-59 42t-42 73.5t-16.5 109q0 84 59.5 207t144.5 233t189 188.5t184 78.5q36 0 72 -7t74.5 -23t69 -48t44.5 -77q387 781 378 829zM672 713q6 45 -17.5 90.5t-58.5 38.5q-124 -26 -282 -243q-126 -173 -198 -353q-59 -146 -26 -165q5 -3 12 -2
q35 3 75 25t83.5 62.5t79.5 77t82 95.5t69.5 89.5t64 86.5t44.5 62l15 21l56 112l1 1v2z" />
    <glyph glyph-name="e" unicode="e" horiz-adv-x="862" 
d="M929 614q16 22 32 21t27 -13.5t7 -21.5q-21 -41 -65 -105t-123 -152.5t-166.5 -162.5t-202 -126.5t-224.5 -52.5q-130 0 -211.5 75t-82.5 214q-1 68 26.5 159.5t79.5 185.5t119 173t156 128t180 45q84 -3 148.5 -42.5t86 -100t-11.5 -136.5q-70 -146 -210.5 -238.5
t-307.5 -86.5q-22 -62 -31.5 -115t-6.5 -95.5t24.5 -66.5t60.5 -24q72 0 158 38.5t164 98.5t153 133t130.5 142t90.5 126zM589 858q-89 0 -192 -116t-175 -275q199 22 319 160q72 84 82 166q6 58 -27 64q-3 1 -7 1z" />
    <glyph glyph-name="e" unicode="&#xeb;" horiz-adv-x="862" 
d="M929 614q16 22 32 21t27 -13.5t7 -21.5q-21 -41 -65 -105t-123 -152.5t-166.5 -162.5t-202 -126.5t-224.5 -52.5q-130 0 -211.5 75t-82.5 214q-1 68 26.5 159.5t79.5 185.5t119 173t156 128t180 45q84 -3 148.5 -42.5t86 -100t-11.5 -136.5q-70 -146 -210.5 -238.5
t-307.5 -86.5q-22 -62 -31.5 -115t-6.5 -95.5t24.5 -66.5t60.5 -24q72 0 158 38.5t164 98.5t153 133t130.5 142t90.5 126zM589 858q-89 0 -192 -116t-175 -275q199 22 319 160q72 84 82 166q6 58 -27 64q-3 1 -7 1z" />
    <glyph glyph-name="e" unicode="&#xea;" horiz-adv-x="862" 
d="M929 614q16 22 32 21t27 -13.5t7 -21.5q-21 -41 -65 -105t-123 -152.5t-166.5 -162.5t-202 -126.5t-224.5 -52.5q-130 0 -211.5 75t-82.5 214q-1 68 26.5 159.5t79.5 185.5t119 173t156 128t180 45q84 -3 148.5 -42.5t86 -100t-11.5 -136.5q-70 -146 -210.5 -238.5
t-307.5 -86.5q-22 -62 -31.5 -115t-6.5 -95.5t24.5 -66.5t60.5 -24q72 0 158 38.5t164 98.5t153 133t130.5 142t90.5 126zM589 858q-89 0 -192 -116t-175 -275q199 22 319 160q72 84 82 166q6 58 -27 64q-3 1 -7 1z" />
    <glyph glyph-name="e" unicode="&#xe9;" horiz-adv-x="862" 
d="M929 614q16 22 32 21t27 -13.5t7 -21.5q-21 -41 -65 -105t-123 -152.5t-166.5 -162.5t-202 -126.5t-224.5 -52.5q-130 0 -211.5 75t-82.5 214q-1 68 26.5 159.5t79.5 185.5t119 173t156 128t180 45q84 -3 148.5 -42.5t86 -100t-11.5 -136.5q-70 -146 -210.5 -238.5
t-307.5 -86.5q-22 -62 -31.5 -115t-6.5 -95.5t24.5 -66.5t60.5 -24q72 0 158 38.5t164 98.5t153 133t130.5 142t90.5 126zM589 858q-89 0 -192 -116t-175 -275q199 22 319 160q72 84 82 166q6 58 -27 64q-3 1 -7 1z" />
    <glyph glyph-name="e" unicode="&#xe8;" horiz-adv-x="862" 
d="M929 614q16 22 32 21t27 -13.5t7 -21.5q-21 -41 -65 -105t-123 -152.5t-166.5 -162.5t-202 -126.5t-224.5 -52.5q-130 0 -211.5 75t-82.5 214q-1 68 26.5 159.5t79.5 185.5t119 173t156 128t180 45q84 -3 148.5 -42.5t86 -100t-11.5 -136.5q-70 -146 -210.5 -238.5
t-307.5 -86.5q-22 -62 -31.5 -115t-6.5 -95.5t24.5 -66.5t60.5 -24q72 0 158 38.5t164 98.5t153 133t130.5 142t90.5 126zM589 858q-89 0 -192 -116t-175 -275q199 22 319 160q72 84 82 166q6 58 -27 64q-3 1 -7 1z" />
    <glyph glyph-name="f" unicode="f" horiz-adv-x="679" 
d="M750 592q19 0 28.5 -17t-0.5 -33q-235 -361 -460 -456q0 -83 -33.5 -189t-89 -205.5t-119.5 -184.5t-131.5 -136.5t-118.5 -51.5q-66 0 -119.5 42.5t-72.5 115.5t17 171q88 227 208 500t217.5 483.5t186.5 409.5t140.5 344.5t53.5 222.5q48 3 97 -11t88.5 -42t56.5 -76.5
t1 -108.5q-25 -89 -106 -274t-150.5 -328t-203.5 -415q-23 -47 -35 -71q35 -16 59 -40q34 -32 46 -85q197 89 413 420q10 15 27 15zM170 211q-7 -13 -20.5 -40t-19.5 -41q19 -4 51 -4q25 0 58 7q-13 50 -52 70q-12 6 -17 8zM-146 -582q38 0 103 68.5t126 165.5t108.5 212.5
t52.5 198.5q-40 -8 -84 -8q-30 0 -62 8q-151 -312 -218 -478.5t-26 -166.5z" />
    <glyph glyph-name="g" unicode="g" horiz-adv-x="1026" 
d="M1112 614q19 0 28 -16.5t-1 -32.5q-183 -298 -481 -520q-55 -126 -106.5 -229t-117.5 -213t-143.5 -202.5t-161.5 -159.5q-29 -23 -74 -35.5t-94 -9.5t-91 20t-67.5 58t-22.5 100q3 54 35.5 112.5t81 110t119.5 107.5t138 100.5t150 93.5q97 195 229 496
q-98 -146 -231 -268.5t-214 -122.5q-30 0 -58.5 5.5t-59.5 21.5t-53 41.5t-34.5 70.5t-8.5 104q6 86 77 211.5t164 233.5t191.5 185.5t156.5 77.5q64 0 113.5 -15t77 -39t41 -42.5t21.5 -37.5q1 -3 -1.5 -5.5t-5.5 -0.5q-33 17 -76 1q-117 -41 -274.5 -224.5t-244 -349
t-31.5 -165.5q47 0 115.5 48.5t135 120t133 155t113.5 152t71 111.5h1q34 0 72.5 -10.5t74 -33t47.5 -57.5t-7 -84q-24 -55 -72 -171t-58 -140q237 211 376 432q10 15 27 15zM-99 -689q108 6 351 482q-272 -162 -365 -321q-53 -89 -29 -138q13 -25 43 -23z" />
    <glyph glyph-name="h" unicode="h" horiz-adv-x="956" 
d="M1039 611q19 0 28 -16.5t-1 -32.5q-146 -236 -304.5 -400.5t-241.5 -160.5q-70 4 -127.5 63.5t-26.5 138.5q5 12 132.5 274t178.5 385q-117 -90 -319.5 -350.5t-325.5 -510.5q-109 0 -164 45.5t-27 114.5q17 43 190 409t325.5 700.5t145.5 356.5q15 2 43.5 2.5t62 -11.5
t61 -28.5t42 -49t4.5 -72.5q-14 -56 -120.5 -274t-241.5 -482.5t-172 -343.5q66 116 176 253t216.5 234.5t154.5 97.5q87 0 126 -53t18 -116q-50 -132 -135 -302t-140.5 -278t-54.5 -128q53 5 197.5 160t272.5 360q10 15 27 15z" />
    <glyph glyph-name="i" unicode="i" horiz-adv-x="448" 
d="M532 614q19 0 28 -16.5t-1 -32.5q-146 -237 -304.5 -402.5t-240.5 -161.5q-69 4 -127.5 65.5t-27.5 140.5q7 17 98.5 198t168 349.5t70.5 202.5q42 -2 73.5 -6.5t60 -12.5t45.5 -20.5t27.5 -31t9 -44.5t-14.5 -59q-32 -83 -124.5 -252.5t-165 -301.5t-71.5 -153
q52 5 196 161t273 362q10 15 27 15zM446 1066q-38 -27 -87 -29t-79.5 16.5t-24.5 46.5q5 23 19.5 71t25 83.5t9.5 39.5q15 7 42 7.5t57 -7.5t56 -21.5t39.5 -38t5.5 -54.5q-33 -92 -63 -114z" />
    <glyph glyph-name="i" unicode="&#xef;" horiz-adv-x="448" 
d="M532 614q19 0 28 -16.5t-1 -32.5q-146 -237 -304.5 -402.5t-240.5 -161.5q-69 4 -127.5 65.5t-27.5 140.5q7 17 98.5 198t168 349.5t70.5 202.5q42 -2 73.5 -6.5t60 -12.5t45.5 -20.5t27.5 -31t9 -44.5t-14.5 -59q-32 -83 -124.5 -252.5t-165 -301.5t-71.5 -153
q52 5 196 161t273 362q10 15 27 15zM446 1066q-38 -27 -87 -29t-79.5 16.5t-24.5 46.5q5 23 19.5 71t25 83.5t9.5 39.5q15 7 42 7.5t57 -7.5t56 -21.5t39.5 -38t5.5 -54.5q-33 -92 -63 -114z" />
    <glyph glyph-name="i" unicode="&#xee;" horiz-adv-x="448" 
d="M532 614q19 0 28 -16.5t-1 -32.5q-146 -237 -304.5 -402.5t-240.5 -161.5q-69 4 -127.5 65.5t-27.5 140.5q7 17 98.5 198t168 349.5t70.5 202.5q42 -2 73.5 -6.5t60 -12.5t45.5 -20.5t27.5 -31t9 -44.5t-14.5 -59q-32 -83 -124.5 -252.5t-165 -301.5t-71.5 -153
q52 5 196 161t273 362q10 15 27 15zM446 1066q-38 -27 -87 -29t-79.5 16.5t-24.5 46.5q5 23 19.5 71t25 83.5t9.5 39.5q15 7 42 7.5t57 -7.5t56 -21.5t39.5 -38t5.5 -54.5q-33 -92 -63 -114z" />
    <glyph glyph-name="i" unicode="&#xed;" horiz-adv-x="448" 
d="M532 614q19 0 28 -16.5t-1 -32.5q-146 -237 -304.5 -402.5t-240.5 -161.5q-69 4 -127.5 65.5t-27.5 140.5q7 17 98.5 198t168 349.5t70.5 202.5q42 -2 73.5 -6.5t60 -12.5t45.5 -20.5t27.5 -31t9 -44.5t-14.5 -59q-32 -83 -124.5 -252.5t-165 -301.5t-71.5 -153
q52 5 196 161t273 362q10 15 27 15zM446 1066q-38 -27 -87 -29t-79.5 16.5t-24.5 46.5q5 23 19.5 71t25 83.5t9.5 39.5q15 7 42 7.5t57 -7.5t56 -21.5t39.5 -38t5.5 -54.5q-33 -92 -63 -114z" />
    <glyph glyph-name="i" unicode="&#xec;" horiz-adv-x="448" 
d="M532 614q19 0 28 -16.5t-1 -32.5q-146 -237 -304.5 -402.5t-240.5 -161.5q-69 4 -127.5 65.5t-27.5 140.5q7 17 98.5 198t168 349.5t70.5 202.5q42 -2 73.5 -6.5t60 -12.5t45.5 -20.5t27.5 -31t9 -44.5t-14.5 -59q-32 -83 -124.5 -252.5t-165 -301.5t-71.5 -153
q52 5 196 161t273 362q10 15 27 15zM446 1066q-38 -27 -87 -29t-79.5 16.5t-24.5 46.5q5 23 19.5 71t25 83.5t9.5 39.5q15 7 42 7.5t57 -7.5t56 -21.5t39.5 -38t5.5 -54.5q-33 -92 -63 -114z" />
    <glyph glyph-name="j" unicode="j" horiz-adv-x="413" 
d="M501 623q19 3 30 -14.5t1 -33.5q-87 -141 -189 -243.5t-236 -191.5q-179 -309 -379 -509q-62 -62 -133.5 -83t-125.5 -4.5t-90 54.5t-36 86q0 90 151 190q67 44 282 155q14 8 26 14q135 255 253 558.5t110 348.5q45 0 90.5 -10.5t85.5 -33t55 -58t-1 -86.5
q-95 -257 -210 -479q180 147 292 326q8 12 24 14zM-544 -372q107 0 285 305q-239 -128 -294 -235q-24 -48 -3 -66q6 -4 12 -4zM418 1047q-38 -27 -87 -29t-79.5 16.5t-24.5 46.5q5 23 19.5 71.5t25 84t9.5 39.5q19 11 55.5 6.5t73 -15.5t59 -40t12.5 -66q-33 -92 -63 -114z
" />
    <glyph glyph-name="k" unicode="k" horiz-adv-x="1009" 
d="M1103 613q16 -5 20.5 -20t-4.5 -29q-145 -233 -303.5 -398t-240.5 -165q-71 0 -118 31.5t-79 110.5q-50 123 -84 231q-87 -118 -255 -373q-103 0 -154.5 71.5t-21.5 145.5q17 43 185 396.5t315.5 676t140.5 344.5q15 2 43.5 2.5t62 -11.5t61 -28.5t42 -49t4.5 -72.5
q-23 -99 -457 -1009q70 97 141.5 180t151.5 157.5t161 118t149 43.5q131 0 151 -98q19 -93 -63 -224q-85 -136 -222 -222q-113 -70 -227 -80q53 -175 76 -221q9 -19 18 -28t18.5 -7.5t15 4t17.5 10.5q76 54 194.5 192t224.5 307q14 22 37 14zM377 483q106 -33 276 89
q120 87 199 194q71 96 42 122q-8 8 -24 8q-168 0 -493 -413z" />
    <glyph glyph-name="l" unicode="l" horiz-adv-x="493" 
d="M257 1200q181 406 174 428q20 5 58 -2t78 -25t63.5 -56.5t11.5 -88.5q-6 -24 -97 -227q-39 -84 -115.5 -244.5t-136 -286.5t-121 -259.5t-95.5 -221.5t-34 -115q0 -17 19.5 -22.5t41.5 9.5q116 84 237.5 229t207.5 281q10 15 28 15q19 0 28 -16.5t-1 -32.5
q-147 -237 -305 -403t-240 -162q-109 0 -171.5 76t-42.5 181q5 24 31.5 91t74.5 175.5t91.5 205t111 244t103.5 227.5z" />
    <glyph glyph-name="m" unicode="m" horiz-adv-x="1456" 
d="M1537 611q19 0 28 -16.5t-1 -32.5q-147 -237 -305 -403t-240 -162q-69 4 -127.5 65.5t-27.5 140.5q5 12 132.5 274t178.5 385q-95 -73 -344 -411t-301 -450q-109 0 -164 45.5t-27 114.5q9 24 36 78t53.5 104.5t74 140t72.5 136.5q71 149 110 242q-117 -85 -318.5 -346
t-326.5 -515q-109 0 -164 45.5t-27 114.5q17 42 110 239.5t165 362.5t65 187q17 4 45 6t63.5 -1.5t62.5 -17t40 -38.5t-2 -66q-56 -154 -222 -466q84 124 179 245.5t202.5 226t168.5 113.5v1h6h5q87 0 125.5 -53t17.5 -116q-63 -167 -193 -421q400 590 540 590q87 0 126 -53
t18 -116q-50 -132 -135 -303t-140.5 -279.5t-54.5 -128.5q52 5 196 161t273 362q10 15 27 15z" />
    <glyph glyph-name="n" unicode="n" horiz-adv-x="964" 
d="M1047 611q19 0 28 -16.5t-1 -32.5q-147 -237 -305 -403t-240 -162q-69 4 -127.5 65.5t-27.5 140.5q5 12 132.5 274t178.5 385q-117 -90 -319.5 -350.5t-325.5 -510.5q-109 0 -164 46t-27 115q17 42 110 239t165 362t65 187q16 4 44.5 2t61.5 -10.5t59.5 -27t38 -47.5
t-3.5 -70q-20 -55 -42 -100.5t-63.5 -125.5t-84.5 -171q62 92 132 182.5t146 177t146 140t114 53.5q87 0 125.5 -53t17.5 -116q-50 -132 -134.5 -303t-140 -279.5t-54.5 -128.5q52 5 196 161t273 362q10 15 27 15z" />
    <glyph glyph-name="n" unicode="&#xf1;" horiz-adv-x="964" 
d="M1047 611q19 0 28 -16.5t-1 -32.5q-147 -237 -305 -403t-240 -162q-69 4 -127.5 65.5t-27.5 140.5q5 12 132.5 274t178.5 385q-117 -90 -319.5 -350.5t-325.5 -510.5q-109 0 -164 46t-27 115q17 42 110 239t165 362t65 187q16 4 44.5 2t61.5 -10.5t59.5 -27t38 -47.5
t-3.5 -70q-20 -55 -42 -100.5t-63.5 -125.5t-84.5 -171q62 92 132 182.5t146 177t146 140t114 53.5q87 0 125.5 -53t17.5 -116q-50 -132 -134.5 -303t-140 -279.5t-54.5 -128.5q52 5 196 161t273 362q10 15 27 15z" />
    <glyph glyph-name="o" unicode="o" horiz-adv-x="958" 
d="M1044 615q20 0 31.5 -12t2.5 -27q-54 -86 -103.5 -148t-110.5 -117t-133.5 -87.5t-156.5 -41.5q-167 -181 -333 -181q-144 0 -234.5 69t-90.5 172q0 109 47 240t109.5 231t124 169t92.5 71q32 2 74 -14.5t73 -40.5q21 21 27 25q33 25 99 28t152 -26q51 -20 79.5 -53.5
t35.5 -62t7 -65.5q0 -97 -52.5 -228t-138.5 -248q30 8 59 21.5t52.5 27t49.5 35t43 35.5t40 41t34 39.5t31.5 41.5t26 36.5t24 35.5t18.5 29q2 3 4.5 4.5t4 1.5t5.5 -0.5t7 -0.5zM177 80q145 13 267 112q-39 13 -75.5 37.5t-68 59t-50.5 83.5t-19 105q0 40 12 91
q-69 -115 -103.5 -228.5t-25 -185.5t62.5 -74zM510 254q130 138 194 333q49 150 26 227q-13 41 -44 41q-60 0 -141 -110q-89 -120 -125 -256q-42 -161 31 -214q24 -17 59 -21z" />
    <glyph glyph-name="o" unicode="&#xf8;" horiz-adv-x="958" 
d="M1044 615q20 0 31.5 -12t2.5 -27q-54 -86 -103.5 -148t-110.5 -117t-133.5 -87.5t-156.5 -41.5q-167 -181 -333 -181q-144 0 -234.5 69t-90.5 172q0 109 47 240t109.5 231t124 169t92.5 71q32 2 74 -14.5t73 -40.5q21 21 27 25q33 25 99 28t152 -26q51 -20 79.5 -53.5
t35.5 -62t7 -65.5q0 -97 -52.5 -228t-138.5 -248q30 8 59 21.5t52.5 27t49.5 35t43 35.5t40 41t34 39.5t31.5 41.5t26 36.5t24 35.5t18.5 29q2 3 4.5 4.5t4 1.5t5.5 -0.5t7 -0.5zM177 80q145 13 267 112q-39 13 -75.5 37.5t-68 59t-50.5 83.5t-19 105q0 40 12 91
q-69 -115 -103.5 -228.5t-25 -185.5t62.5 -74zM510 254q130 138 194 333q49 150 26 227q-13 41 -44 41q-60 0 -141 -110q-89 -120 -125 -256q-42 -161 31 -214q24 -17 59 -21z" />
    <glyph glyph-name="o" unicode="&#xf6;" horiz-adv-x="958" 
d="M1044 615q20 0 31.5 -12t2.5 -27q-54 -86 -103.5 -148t-110.5 -117t-133.5 -87.5t-156.5 -41.5q-167 -181 -333 -181q-144 0 -234.5 69t-90.5 172q0 109 47 240t109.5 231t124 169t92.5 71q32 2 74 -14.5t73 -40.5q21 21 27 25q33 25 99 28t152 -26q51 -20 79.5 -53.5
t35.5 -62t7 -65.5q0 -97 -52.5 -228t-138.5 -248q30 8 59 21.5t52.5 27t49.5 35t43 35.5t40 41t34 39.5t31.5 41.5t26 36.5t24 35.5t18.5 29q2 3 4.5 4.5t4 1.5t5.5 -0.5t7 -0.5zM177 80q145 13 267 112q-39 13 -75.5 37.5t-68 59t-50.5 83.5t-19 105q0 40 12 91
q-69 -115 -103.5 -228.5t-25 -185.5t62.5 -74zM510 254q130 138 194 333q49 150 26 227q-13 41 -44 41q-60 0 -141 -110q-89 -120 -125 -256q-42 -161 31 -214q24 -17 59 -21z" />
    <glyph glyph-name="o" unicode="&#xf5;" horiz-adv-x="958" 
d="M1044 615q20 0 31.5 -12t2.5 -27q-54 -86 -103.5 -148t-110.5 -117t-133.5 -87.5t-156.5 -41.5q-167 -181 -333 -181q-144 0 -234.5 69t-90.5 172q0 109 47 240t109.5 231t124 169t92.5 71q32 2 74 -14.5t73 -40.5q21 21 27 25q33 25 99 28t152 -26q51 -20 79.5 -53.5
t35.5 -62t7 -65.5q0 -97 -52.5 -228t-138.5 -248q30 8 59 21.5t52.5 27t49.5 35t43 35.5t40 41t34 39.5t31.5 41.5t26 36.5t24 35.5t18.5 29q2 3 4.5 4.5t4 1.5t5.5 -0.5t7 -0.5zM177 80q145 13 267 112q-39 13 -75.5 37.5t-68 59t-50.5 83.5t-19 105q0 40 12 91
q-69 -115 -103.5 -228.5t-25 -185.5t62.5 -74zM510 254q130 138 194 333q49 150 26 227q-13 41 -44 41q-60 0 -141 -110q-89 -120 -125 -256q-42 -161 31 -214q24 -17 59 -21z" />
    <glyph glyph-name="o" unicode="&#xf4;" horiz-adv-x="958" 
d="M1044 615q20 0 31.5 -12t2.5 -27q-54 -86 -103.5 -148t-110.5 -117t-133.5 -87.5t-156.5 -41.5q-167 -181 -333 -181q-144 0 -234.5 69t-90.5 172q0 109 47 240t109.5 231t124 169t92.5 71q32 2 74 -14.5t73 -40.5q21 21 27 25q33 25 99 28t152 -26q51 -20 79.5 -53.5
t35.5 -62t7 -65.5q0 -97 -52.5 -228t-138.5 -248q30 8 59 21.5t52.5 27t49.5 35t43 35.5t40 41t34 39.5t31.5 41.5t26 36.5t24 35.5t18.5 29q2 3 4.5 4.5t4 1.5t5.5 -0.5t7 -0.5zM177 80q145 13 267 112q-39 13 -75.5 37.5t-68 59t-50.5 83.5t-19 105q0 40 12 91
q-69 -115 -103.5 -228.5t-25 -185.5t62.5 -74zM510 254q130 138 194 333q49 150 26 227q-13 41 -44 41q-60 0 -141 -110q-89 -120 -125 -256q-42 -161 31 -214q24 -17 59 -21z" />
    <glyph glyph-name="o" unicode="&#xf3;" horiz-adv-x="958" 
d="M1044 615q20 0 31.5 -12t2.5 -27q-54 -86 -103.5 -148t-110.5 -117t-133.5 -87.5t-156.5 -41.5q-167 -181 -333 -181q-144 0 -234.5 69t-90.5 172q0 109 47 240t109.5 231t124 169t92.5 71q32 2 74 -14.5t73 -40.5q21 21 27 25q33 25 99 28t152 -26q51 -20 79.5 -53.5
t35.5 -62t7 -65.5q0 -97 -52.5 -228t-138.5 -248q30 8 59 21.5t52.5 27t49.5 35t43 35.5t40 41t34 39.5t31.5 41.5t26 36.5t24 35.5t18.5 29q2 3 4.5 4.5t4 1.5t5.5 -0.5t7 -0.5zM177 80q145 13 267 112q-39 13 -75.5 37.5t-68 59t-50.5 83.5t-19 105q0 40 12 91
q-69 -115 -103.5 -228.5t-25 -185.5t62.5 -74zM510 254q130 138 194 333q49 150 26 227q-13 41 -44 41q-60 0 -141 -110q-89 -120 -125 -256q-42 -161 31 -214q24 -17 59 -21z" />
    <glyph glyph-name="o" unicode="&#xf2;" horiz-adv-x="958" 
d="M1044 615q20 0 31.5 -12t2.5 -27q-54 -86 -103.5 -148t-110.5 -117t-133.5 -87.5t-156.5 -41.5q-167 -181 -333 -181q-144 0 -234.5 69t-90.5 172q0 109 47 240t109.5 231t124 169t92.5 71q32 2 74 -14.5t73 -40.5q21 21 27 25q33 25 99 28t152 -26q51 -20 79.5 -53.5
t35.5 -62t7 -65.5q0 -97 -52.5 -228t-138.5 -248q30 8 59 21.5t52.5 27t49.5 35t43 35.5t40 41t34 39.5t31.5 41.5t26 36.5t24 35.5t18.5 29q2 3 4.5 4.5t4 1.5t5.5 -0.5t7 -0.5zM177 80q145 13 267 112q-39 13 -75.5 37.5t-68 59t-50.5 83.5t-19 105q0 40 12 91
q-69 -115 -103.5 -228.5t-25 -185.5t62.5 -74zM510 254q130 138 194 333q49 150 26 227q-13 41 -44 41q-60 0 -141 -110q-89 -120 -125 -256q-42 -161 31 -214q24 -17 59 -21z" />
    <glyph glyph-name="p" unicode="p" horiz-adv-x="1013" 
d="M1096 612q19 0 28 -16t-1 -33q-56 -97 -119 -183.5t-146 -174t-169.5 -150t-191.5 -101.5t-211 -39q-61 0 -104.5 11t-62 26t-28.5 30.5t-10 26.5v11q110 -68 302.5 140t298 458.5t5.5 282.5q-47 15 -98.5 -8.5t-94 -68.5t-92 -118t-84.5 -135.5t-80.5 -144.5t-70.5 -123
q-24 -51 -136 -284.5t-211 -440.5t-111 -232q-103 0 -154.5 71.5t-21.5 145.5q17 44 198 419.5t342 721t154 367.5q15 2 44 2t63 -12t62.5 -29t43.5 -49.5t5 -72.5q-7 -28 -17 -54t-16 -38l-7 -13q106 125 219 150q41 7 83 4.5t80 -23t66.5 -49.5t42.5 -75t7 -101
q-12 -94 -56 -209t-123.5 -239t-175.5 -208q104 44 251 193t271 348q11 16 26 16z" />
    <glyph glyph-name="q" unicode="q" horiz-adv-x="954" 
d="M1039 614q19 0 28 -16.5t-1 -32.5q-137 -222 -294 -378t-257 -184q45 -36 51.5 -128.5t-22.5 -201t-76.5 -211t-115.5 -171t-133 -68.5q-88 0 -136.5 58.5t-52.5 129.5q-3 54 9.5 119.5t40 136t55 132t67.5 132.5t63.5 111t57.5 94t35 56q-80 -84 -155.5 -136.5
t-126.5 -52.5q-30 0 -58.5 5.5t-59.5 21.5t-53 41.5t-34.5 70.5t-8.5 104q6 86 77 211.5t164 233t191.5 185t156.5 77.5q64 0 113.5 -15t77 -38.5t41 -42t21.5 -37.5q1 -3 -1.5 -5.5t-5.5 -0.5q-33 17 -76 1q-117 -41 -274.5 -224.5t-244 -349t-31.5 -165.5q56 0 141 67.5
t167 165t147.5 187t103.5 152.5l1 2l1 2q1 2 7 11l1 1q15 15 65.5 -8.5t89 -66.5t24.5 -74q-7 -17 -22.5 -45.5t-40.5 -70.5t-48.5 -80.5t-61.5 -100t-64 -104.5q103 78 220.5 208.5t209.5 276.5q10 15 27 15zM236 -678q15 -31 70 30q74 83 131 227q84 212 41 361
q-296 -509 -242 -618z" />
    <glyph glyph-name="r" unicode="r" horiz-adv-x="671" 
d="M764 612q16 -5 20.5 -20t-4.5 -29q-146 -236 -304 -401.5t-240 -161.5q-33 2 -67.5 16.5t-64 45.5t-29.5 77.5t36 111.5q11 18 55.5 87t79 125.5t72.5 122t54 108t4 50.5q-23 16 -126 50q-5 -9 -182 -296q-8 -12 -23 -15.5t-26 5.5q-22 18 -6 43q156 244 180 284
q-63 27 -89 66t-1 104q26 66 69.5 102t89.5 39q44 3 85.5 -37t19.5 -87q-32 -63 -90 -162q29 -13 105 -34q68 -18 112 -57.5t53.5 -98t-37.5 -130.5q-255 -391 -252 -445q52 5 196 161.5t273 362.5q14 21 37 13zM227 884q1 -1 2 -3.5t2 -3.5q70 114 64 119q-16 9 -38 -10
t-31 -47t1 -55z" />
    <glyph glyph-name="s" unicode="s" horiz-adv-x="692" 
d="M762 618q12 15 28.5 15.5t27 -13.5t1.5 -31q-76 -133 -182 -225.5t-212 -137.5q24 -149 -101 -262q-106 -97 -255 -97q-80 0 -133 54.5t-39 120.5q6 28 24.5 50.5t41.5 38t63.5 32t74 27t88.5 27.5t93 30q2 41 -20 88.5t-56 92t-68.5 90t-61.5 97.5t-32 99q-5 46 24 95
t73.5 86t86.5 62.5t71 35.5q33 11 81.5 -17t77 -71t9.5 -70q-6 -2 -16.5 -6.5t-42 -20t-55 -31.5t-56.5 -41.5t-46 -50.5t-23.5 -58.5t10.5 -65.5q14 -29 77.5 -119t87.5 -147q228 105 359 323zM49 -36q41 0 106.5 60t110.5 141q-42 -16 -94 -32.5t-80 -25.5t-57 -22
t-43.5 -30t-20.5 -41q-4 -16 18 -33t60 -17z" />
    <glyph glyph-name="t" unicode="t" horiz-adv-x="557" 
d="M692 1220q16 0 27.5 -11.5t11.5 -28.5v-36q0 -9 -8 -9h-155q-37 -79 -113.5 -237.5t-127.5 -266.5t-107 -230t-85 -198t-29 -101q0 -17 20 -22.5t42 9.5q116 84 237.5 229t207.5 281q10 15 28 15q19 0 28 -16.5t-1 -32.5q-147 -237 -305 -403t-240 -162q-109 0 -171.5 76
t-42.5 181q5 24 26 78.5t60 143t76.5 170t96.5 211t98 215.5q12 27 27 60h-86q-16 0 -27.5 11.5t-11.5 27.5v38q0 8 8 8h154q171 391 165 408q20 5 58 -2t78 -25t63.5 -56.5t11.5 -88.5q-5 -23 -98 -236h84z" />
    <glyph glyph-name="u" unicode="u" horiz-adv-x="1001" 
d="M1085 614q19 0 28.5 -16.5t-0.5 -32.5q-146 -237 -305 -403t-241 -162q-70 4 -126.5 58.5t-33.5 136.5q1 2 4 14.5t5 19.5q-176 -228 -316 -228q-107 0 -165.5 76t-37.5 182q11 56 87.5 221.5t142.5 309t59 164.5q15 2 43.5 2t62 -11.5t61 -28.5t42 -49.5t4.5 -72.5
q-12 -50 -89.5 -199.5t-146.5 -293t-69 -197.5q0 -48 62 -17q87 45 213 196q88 106 166 233q52 107 121 227q0 1 1 2t1 2q1 2 7 11q92 157 128 195q46 0 92.5 -16t74.5 -47.5t0 -78.5q-15 -25 -40 -66.5t-89 -153t-112.5 -203.5t-89 -184.5t-40.5 -128.5q52 5 196 161.5
t273 362.5q10 15 27 15z" />
    <glyph glyph-name="u" unicode="&#xfc;" horiz-adv-x="1001" 
d="M1085 614q19 0 28.5 -16.5t-0.5 -32.5q-146 -237 -305 -403t-241 -162q-70 4 -126.5 58.5t-33.5 136.5q1 2 4 14.5t5 19.5q-176 -228 -316 -228q-107 0 -165.5 76t-37.5 182q11 56 87.5 221.5t142.5 309t59 164.5q15 2 43.5 2t62 -11.5t61 -28.5t42 -49.5t4.5 -72.5
q-12 -50 -89.5 -199.5t-146.5 -293t-69 -197.5q0 -48 62 -17q87 45 213 196q88 106 166 233q52 107 121 227q0 1 1 2t1 2q1 2 7 11q92 157 128 195q46 0 92.5 -16t74.5 -47.5t0 -78.5q-15 -25 -40 -66.5t-89 -153t-112.5 -203.5t-89 -184.5t-40.5 -128.5q52 5 196 161.5
t273 362.5q10 15 27 15z" />
    <glyph glyph-name="u" unicode="&#xfb;" horiz-adv-x="1001" 
d="M1085 614q19 0 28.5 -16.5t-0.5 -32.5q-146 -237 -305 -403t-241 -162q-70 4 -126.5 58.5t-33.5 136.5q1 2 4 14.5t5 19.5q-176 -228 -316 -228q-107 0 -165.5 76t-37.5 182q11 56 87.5 221.5t142.5 309t59 164.5q15 2 43.5 2t62 -11.5t61 -28.5t42 -49.5t4.5 -72.5
q-12 -50 -89.5 -199.5t-146.5 -293t-69 -197.5q0 -48 62 -17q87 45 213 196q88 106 166 233q52 107 121 227q0 1 1 2t1 2q1 2 7 11q92 157 128 195q46 0 92.5 -16t74.5 -47.5t0 -78.5q-15 -25 -40 -66.5t-89 -153t-112.5 -203.5t-89 -184.5t-40.5 -128.5q52 5 196 161.5
t273 362.5q10 15 27 15z" />
    <glyph glyph-name="u" unicode="&#xfa;" horiz-adv-x="1001" 
d="M1085 614q19 0 28.5 -16.5t-0.5 -32.5q-146 -237 -305 -403t-241 -162q-70 4 -126.5 58.5t-33.5 136.5q1 2 4 14.5t5 19.5q-176 -228 -316 -228q-107 0 -165.5 76t-37.5 182q11 56 87.5 221.5t142.5 309t59 164.5q15 2 43.5 2t62 -11.5t61 -28.5t42 -49.5t4.5 -72.5
q-12 -50 -89.5 -199.5t-146.5 -293t-69 -197.5q0 -48 62 -17q87 45 213 196q88 106 166 233q52 107 121 227q0 1 1 2t1 2q1 2 7 11q92 157 128 195q46 0 92.5 -16t74.5 -47.5t0 -78.5q-15 -25 -40 -66.5t-89 -153t-112.5 -203.5t-89 -184.5t-40.5 -128.5q52 5 196 161.5
t273 362.5q10 15 27 15z" />
    <glyph glyph-name="u" unicode="&#xf9;" horiz-adv-x="1001" 
d="M1085 614q19 0 28.5 -16.5t-0.5 -32.5q-146 -237 -305 -403t-241 -162q-70 4 -126.5 58.5t-33.5 136.5q1 2 4 14.5t5 19.5q-176 -228 -316 -228q-107 0 -165.5 76t-37.5 182q11 56 87.5 221.5t142.5 309t59 164.5q15 2 43.5 2t62 -11.5t61 -28.5t42 -49.5t4.5 -72.5
q-12 -50 -89.5 -199.5t-146.5 -293t-69 -197.5q0 -48 62 -17q87 45 213 196q88 106 166 233q52 107 121 227q0 1 1 2t1 2q1 2 7 11q92 157 128 195q46 0 92.5 -16t74.5 -47.5t0 -78.5q-15 -25 -40 -66.5t-89 -153t-112.5 -203.5t-89 -184.5t-40.5 -128.5q52 5 196 161.5
t273 362.5q10 15 27 15z" />
    <glyph glyph-name="v" unicode="v" horiz-adv-x="872" 
d="M725 1018q3 1 8.5 2.5t22 3t31 0.5t32.5 -8t31 -20t22 -37.5t9 -58.5q0 -91 -56 -215t-143 -240.5t-183.5 -218t-186.5 -163.5t-143 -62q-85 0 -147 41t-62 125q0 43 20 124t44 167.5t44 177.5t19 178t-31 145q68 15 118.5 11.5t84 -15t54 -37t30 -55t12.5 -68.5
q5 -73 -55 -312.5t-119 -368.5q-5 -9 3 -16.5t17 -2.5q75 42 156.5 116t153 161.5t129.5 184.5t91.5 184t33.5 161.5t-40 115.5z" />
    <glyph glyph-name="w" unicode="w" horiz-adv-x="1314" 
d="M1166 1018q3 1 8.5 2.5t22 3t31 0.5t32.5 -8t31 -20t22 -37.5t9 -58.5q0 -91 -56 -215t-142.5 -240.5t-183 -218t-186.5 -163.5t-143 -62q-59 0 -111 22.5t-80 68.5t-12 103q3 10 9 32q-176 -226 -315 -226q-107 0 -165.5 76t-37.5 182q11 56 87.5 221t142.5 308.5
t59 164.5q15 2 43.5 2.5t62 -11.5t61 -28.5t42 -49t4.5 -72.5q-12 -50 -89.5 -199.5t-146.5 -293t-69 -197.5q0 -49 62 -17q86 44 212 195q66 79 128 173q54 130 114 240.5t90 140.5q46 0 92.5 -16t74.5 -47.5t0 -78.5q-218 -453 -246 -580q-2 -10 4.5 -17t15.5 -2
q75 42 156.5 116t152.5 161.5t129.5 184.5t91.5 184t33 161.5t-40 115.5z" />
    <glyph glyph-name="x" unicode="x" horiz-adv-x="1118" 
d="M1213 613q16 -5 20.5 -20t-4.5 -29q-145 -233 -303.5 -398t-240.5 -165q-77 0 -128.5 31t-69.5 111q-9 39 -35 257l-353 -318q-12 -10 -48 -7q-31 2 -29 16l3 9l418 379q-24 195 -50 307q-14 61 -22.5 74.5t-29.5 11.5q-19 -2 -92.5 -104t-140.5 -210q-7 -12 -21 -14.5
t-25 5.5t-13.5 20t4.5 23q177 285 240 334q44 34 107 39.5t119 -30.5t70 -110q9 -52 29 -187l337 306q23 21 64 3q23 -12 18 -21l-408 -367q46 -327 72 -434q5 -20 21.5 -28t33.5 3q77 54 195.5 192.5t224.5 306.5q14 22 37 14z" />
    <glyph glyph-name="y" unicode="y" horiz-adv-x="1011" 
d="M1096 614q19 0 28 -16.5t-1 -32.5q-191 -310 -506 -539q-308 -612 -526 -785q-29 -23 -72.5 -35.5t-90 -9.5t-87 20t-64.5 58t-20 100q13 207 523 517q62 123 176 367q-189 -257 -337 -257q-107 0 -166 76t-38 182q11 56 87.5 221t142.5 308.5t59 164.5q15 2 43.5 2.5
t62 -11.5t61 -28.5t42 -49t4.5 -72.5q-12 -50 -89.5 -199.5t-146.5 -293t-69 -197.5q0 -49 62 -17q86 44 212 194q163 195 280 444q99 224 101 228q48 1 87.5 -6t72 -25t41 -49t-6.5 -78q-98 -262 -281 -641q242 210 389 445q10 15 27 15zM-114 -689q95 5 341 476
q-267 -161 -357 -318q-52 -89 -26 -135q13 -25 42 -23z" />
    <glyph glyph-name="y" unicode="&#xff;" horiz-adv-x="1011" 
d="M1096 614q19 0 28 -16.5t-1 -32.5q-191 -310 -506 -539q-308 -612 -526 -785q-29 -23 -72.5 -35.5t-90 -9.5t-87 20t-64.5 58t-20 100q13 207 523 517q62 123 176 367q-189 -257 -337 -257q-107 0 -166 76t-38 182q11 56 87.5 221t142.5 308.5t59 164.5q15 2 43.5 2.5
t62 -11.5t61 -28.5t42 -49t4.5 -72.5q-12 -50 -89.5 -199.5t-146.5 -293t-69 -197.5q0 -49 62 -17q86 44 212 194q163 195 280 444q99 224 101 228q48 1 87.5 -6t72 -25t41 -49t-6.5 -78q-98 -262 -281 -641q242 210 389 445q10 15 27 15zM-114 -689q95 5 341 476
q-267 -161 -357 -318q-52 -89 -26 -135q13 -25 42 -23z" />
    <glyph glyph-name="y" unicode="&#xfd;" horiz-adv-x="1011" 
d="M1096 614q19 0 28 -16.5t-1 -32.5q-191 -310 -506 -539q-308 -612 -526 -785q-29 -23 -72.5 -35.5t-90 -9.5t-87 20t-64.5 58t-20 100q13 207 523 517q62 123 176 367q-189 -257 -337 -257q-107 0 -166 76t-38 182q11 56 87.5 221t142.5 308.5t59 164.5q15 2 43.5 2.5
t62 -11.5t61 -28.5t42 -49t4.5 -72.5q-12 -50 -89.5 -199.5t-146.5 -293t-69 -197.5q0 -49 62 -17q86 44 212 194q163 195 280 444q99 224 101 228q48 1 87.5 -6t72 -25t41 -49t-6.5 -78q-98 -262 -281 -641q242 210 389 445q10 15 27 15zM-114 -689q95 5 341 476
q-267 -161 -357 -318q-52 -89 -26 -135q13 -25 42 -23z" />
    <glyph glyph-name="z" unicode="z" horiz-adv-x="1179" 
d="M1265 623q19 3 30 -15t1 -34q-95 -154 -209.5 -263t-269.5 -206q-129 -278 -325 -474q-63 -63 -131.5 -86t-119.5 -9.5t-84.5 49t-33.5 83.5q0 62 72 132t144 113t227 127q21 11 31 17q120 213 129 316q-27 4 -230.5 -132t-222.5 -162q-10 -13 -46 17.5t-63.5 74
t-17.5 62.5q17 32 603 632q-291 -3 -430 50q-5 -9 -34.5 -63.5t-43 -78.5t-39.5 -69t-49.5 -80.5t-47.5 -67.5q-17 -24 -44 -13q-23 9 -19 30l4 9q21 35 71.5 113t89 140t61.5 105q-53 34 -53 82q0 31 16 51.5t39.5 26.5t47.5 4.5t41.5 -12.5t20.5 -27q4 -21 -34 -98
q44 -16 127 -21t148.5 -3t154 7.5t97.5 5.5q51 1 92.5 -48.5t20.5 -83.5q-25 -40 -480 -492q187 121 255 121q66 0 112 -52t23 -111q-5 -13 -15 -36.5t-14 -33.5q236 168 375 388q9 13 23 15zM293 1024q-1 -12 5 -23q13 31 15 50q-2 0 -5 -0.5t-8.5 -7.5t-6.5 -19zM220 -373
q51 -1 136 89.5t173 228.5q-256 -133 -316 -244q-27 -50 -5 -69q6 -4 12 -5z" />
    <glyph glyph-name="braceleft" unicode="{" horiz-adv-x="411" 
d="M496 1139q-51 -13 -93.5 -78.5t-71.5 -149t-58.5 -165.5t-69 -138.5t-87.5 -57.5q40 -1 62 -44.5t26 -107.5t7 -139t4 -139t17 -107.5t47 -44.5q39 -2 64.5 9.5t31.5 23.5l6 12q4 0 9 -13.5t5 -33t-6 -39.5t-27 -36t-54 -19q-69 -7 -112.5 18.5t-61 74.5t-24 111t-8 132
t-5.5 132.5t-22.5 117t-54.5 82.5q-17 13 -16 34.5t19 33.5q58 38 101.5 113.5t69 154.5t49.5 153t57 121.5t77 47.5q34 0 63.5 -15t42.5 -29z" />
    <glyph glyph-name="braceright" unicode="}" horiz-adv-x="618" 
d="M523 529q17 -13 16 -34.5t-19 -33.5q-58 -38 -101.5 -113.5t-69 -154.5t-49.5 -153t-57 -121.5t-77 -47.5q-34 0 -63.5 15t-42.5 30l-13 15q51 13 93.5 78.5t71.5 149t58.5 165.5t69 138.5t87.5 57.5q-40 1 -62 44.5t-26 107.5t-7 138.5t-4 138.5t-17 107.5t-47 44.5
q-25 1 -44.5 -3t-29.5 -10.5t-17 -13.5t-9 -12l-2 -5q-4 0 -9 13.5t-5 32.5t6 39t27 36t54 19q69 7 112.5 -18.5t61 -74.5t24 -111t8 -132t5.5 -132.5t22.5 -117t54.5 -82.5z" />
    <glyph glyph-name="nonbreakingspace" unicode="&#xa0;" horiz-adv-x="698" 
 />
    <glyph glyph-name="softhyphen" unicode="&#xad;" 
 />
    <glyph glyph-name="a.alt1" unicode="&#xf001;" horiz-adv-x="1107" 
d="M990 493q58 -14 91 -49t38 -79.5t1.5 -80t-14.5 -67.5q-20 -61 -50.5 -120.5t-81 -125t-110.5 -114.5t-145 -81t-179 -32q-96 0 -159 62t-68.5 161.5t57.5 225.5q4 10 9 20q-86 -94 -168 -153.5t-136 -59.5q-39 0 -74 10t-70.5 34t-54.5 75t-14 124q6 86 76.5 211.5
t163.5 233.5t191.5 185.5t156.5 77.5q64 0 113.5 -15t77 -39t41 -42.5t21.5 -37.5q1 -3 -1.5 -5.5t-5.5 -0.5q-31 15 -76 1q-117 -41 -274.5 -224.5t-244 -349t-31.5 -165.5q59 0 142 65t146.5 139.5t136 166t89.5 109.5q52 85 65 107q12 18 63 -5t91.5 -67t25.5 -76
q-64 -72 -141.5 -179t-144 -220.5t-90.5 -197t17 -106.5q36 -15 79 -7.5t89 36.5t92.5 69.5t89.5 92t80 105t65 108t43.5 100.5t15.5 82t-18 54q-38 38 -97 -29t-99 -159t-35 -125q-2 0 -6 0.5t-15 3.5t-19.5 7.5t-20.5 12t-17 18.5t-9 26t3 35q36 137 113 208t186 46z" />
    <glyph glyph-name="b.alt1" unicode="&#xf002;" horiz-adv-x="1216" 
d="M1094 741q6 1 15.5 2.5t34 -1.5t43 -13t32.5 -37t12 -68q-12 -235 -483 -392q-76 -109 -159 -181q-67 -56 -139 -88t-129.5 -36.5t-104.5 5t-71.5 33t-22.5 51.5q16 -26 55 -24q111 6 252 150q-30 -8 -94.5 -24t-94.5 -24q-37 -10 -57.5 -38.5t-15.5 -46.5
q-9 6 -17.5 16.5t-13 26.5t1 32t30 34t67.5 32q34 11 127 36.5t142 40.5q60 75 113.5 163t90 171.5t55 155t10.5 120t-45 60.5q-47 15 -98.5 -8.5t-94 -68.5t-92 -118t-84.5 -135.5t-80.5 -144.5t-70.5 -123q-37 -77 -100 -194.5t-72 -137.5q-103 0 -154.5 71.5t-21.5 145.5
q18 46 195.5 403t335 686t150.5 351q12 5 33 2.5t47 -6t51.5 -15.5t46 -27.5t31.5 -41t7 -56.5q-1 -2 -156.5 -339.5t-155.5 -339.5q56 66 105 103t114 47q52 8 104.5 -5t94.5 -43t65 -84t14 -122q-20 -156 -124 -350q306 156 276 394z" />
    <glyph glyph-name="c.alt1" unicode="&#xf003;" horiz-adv-x="841" 
d="M736 602q14 8 48.5 8t59.5 -47.5t5 -124.5q-47 -183 -237 -316.5t-417 -124.5q-129 5 -202.5 78t-74.5 213q-1 69 24.5 158.5t75 182t114 170.5t151.5 127.5t178 49.5q73 0 122.5 -19t70 -49t27 -68t-1 -75t-20 -71t-23 -55t-16.5 -29q-27 -34 -76 -32t-55 32
q53 33 86 126q28 80 10 109q-6 10 -16 9q-105 -7 -221 -160q-109 -143 -162 -318q-54 -182 -2 -260q23 -34 66 -41t101.5 11.5t121 63.5t117.5 107.5t95 153t51 191.5z" />
    <glyph glyph-name="e.alt1" unicode="&#xf005;" horiz-adv-x="788" 
d="M693 535q5 1 12 1.5t26.5 -2.5t34 -12t26.5 -32.5t12 -58.5q0 -39 -23.5 -92.5t-73.5 -113.5t-117 -110.5t-166.5 -84t-209.5 -33.5q-130 0 -211.5 75t-82.5 215q-1 57 19 130.5t55 151.5t87.5 152.5t112.5 132.5t135.5 92t151.5 31q85 -4 149 -42.5t85.5 -99
t-11.5 -136.5q-70 -146 -210.5 -238.5t-307.5 -86.5q-44 -121 -21 -207.5t102 -85.5q80 2 147.5 32t113 76t81 108t54.5 120t30 118zM589 854q-89 0 -192 -116t-175 -274q198 22 318 159q73 84 83 166q6 58 -27 64q-3 1 -7 1z" />
    <glyph glyph-name="f.alt1" unicode="&#xf006;" horiz-adv-x="698" 
d="M448 1442q82 165 237 232q132 57 253 21q109 -33 145 -124q24 -62 8 -138q-25 -117 -101 -200.5t-177.5 -124.5t-224.5 -49q-2 0 -6 -0.5t-6 -0.5q-215 -501 -342 -760q35 -16 59 -40q32 -31 45 -85q199 89 414 420q10 15 27 15q19 0 28 -17t-1 -33q-235 -361 -460 -456
q0 -83 -33.5 -189t-89 -205.5t-119.5 -184.5t-131.5 -136.5t-118.5 -51.5q-66 0 -119 42.5t-72 115.5t17 171q265 683 597 1412q-84 12 -181 32.5t-179 41.5t-166 43t-152.5 38.5t-127 27t-100 9.5t-61.5 -16q-32 115 23.5 180.5t157.5 59.5q57 -3 156.5 -42.5t198 -89.5
t232 -107t240.5 -87q98 211 130 276zM-117 -566q38 0 103 68.5t126 165.5t108.5 212.5t52.5 198.5q-40 -8 -84 -8q-31 0 -63 8q-150 -310 -217 -477.5t-26 -167.5zM267 149q-13 50 -52 70q-2 1 -4.5 2.5t-4 2t-3.5 1.5l-4 2q-7 -13 -20 -40t-20 -41q19 -4 51 -4q24 0 57 7z
M802 1192q125 74 166 203q30 95 1 161q-25 57 -77 42q-75 -21 -157 -183q-30 -59 -127 -283q107 9 194 60z" />
    <glyph glyph-name="g.alt1" unicode="&#xf007;" horiz-adv-x="1345" 
d="M1347 659q28 -101 -4.5 -202t-103.5 -184t-189 -169t-234 -151.5t-264 -137.5q-89 -169 -176 -296t-146 -166q-73 -48 -144 -68.5t-121.5 -16.5t-93 19.5t-64 32t-28.5 28.5q4 -3 12 -6.5t32 -9.5t48.5 -4.5t60 16t67.5 43.5q80 72 187 259q-177 -81 -248 -118
q-55 -29 -78.5 -78t-11.5 -77q-16 7 -32.5 21t-28 38t-8 51t37 63t97.5 71q29 16 72.5 36.5t73 33.5t100 43.5t95.5 41.5q45 86 94 192t80 176.5t66 154t41 96.5q-98 -146 -231 -268.5t-214 -122.5q-39 0 -74 10t-70.5 34t-54.5 75t-14 124q6 86 76.5 211.5t163.5 233
t191.5 185t156.5 77.5q64 0 113.5 -15t77 -39t41 -42.5t21.5 -37.5q1 -3 -1.5 -5t-5.5 0q-29 15 -76 0q-117 -41 -274.5 -224.5t-244 -348.5t-31.5 -165q58 0 147 72t173 173t150 193t98 148h1q34 0 72.5 -10.5t74.5 -32.5t48 -57t-7 -84q-6 -14 -182 -433q-21 -47 -44 -97
q113 62 200.5 123.5t164.5 142t116.5 163.5t40 185.5t-48.5 211.5q8 3 22 7.5t52 8.5t70 -3.5t65 -38.5t48 -86z" />
    <glyph glyph-name="h.alt1" unicode="&#xf008;" horiz-adv-x="976" 
d="M1056 608q19 0 28 -16.5t-1 -32.5q-146 -236 -304.5 -401t-241.5 -161q-70 4 -127.5 64t-26.5 139q5 12 132.5 274t178.5 385q-117 -90 -319.5 -350.5t-325.5 -510.5q-109 0 -164 45.5t-27 114.5q19 47 418 922q-89 14 -197.5 41t-197 54t-183 52.5t-166 40t-134 12
t-98.5 -27.5q-32 115 23.5 180.5t157.5 59.5q60 -3 161.5 -46.5t199 -97.5t229.5 -112t238 -83q96 208 129 289q67 162 205 226q114 54 221 19q94 -32 126 -118q24 -66 1 -149q-38 -135 -149 -225.5t-243 -116.5q-18 -4 -58 -8q-281 -574 -343 -706q66 116 176.5 253.5
t217 235t154.5 97.5q87 0 125.5 -53t17.5 -116q-50 -132 -135 -302t-140.5 -278t-54.5 -128q53 5 197.5 160t272.5 360q10 15 27 15zM689 1372q-7 -15 -22 -46t-42.5 -86.5t-47.5 -97.5q78 16 140 52q128 75 171 195q29 83 3 135q-24 45 -72 21q-64 -32 -130 -173z" />
    <glyph glyph-name="i.alt1" unicode="&#xf01a;" horiz-adv-x="608" 
d="M419 1062q-38 -27 -87 -29t-79.5 16.5t-24.5 46.5q5 23 19.5 71.5t24.5 84t9 39.5q19 11 55.5 6.5t73.5 -15.5t59.5 -40t12.5 -66q-33 -92 -63 -114zM478 493q58 -14 91 -49t38 -79.5t1.5 -80t-14.5 -67.5q-20 -61 -50.5 -120.5t-81 -125t-111 -114.5t-145.5 -81
t-179 -32q-96 0 -158.5 62t-70 163.5t48.5 230.5l157 331l156 331q29 63 23 92q42 -2 73.5 -6.5t60 -12.5t46 -20.5t27.5 -31t9 -44.5t-14 -59q-16 -44 -51.5 -114.5t-64 -122.5t-82 -149t-70.5 -127q-15 -29 -30 -59.5t-40 -84t-42.5 -100t-31.5 -92t-13 -76.5t18 -39
q44 -20 102 -1.5t114 64.5t112.5 110t98.5 133.5t72.5 135.5t33.5 116t-18 75q-38 38 -97 -29t-99 -159t-35 -125q-2 1 -5.5 2t-14.5 5.5t-19 10t-19 15.5t-15.5 22t-8.5 28.5t3 35.5q35 135 110 199t185 39z" />
    <glyph glyph-name="j.alt1" unicode="&#xf01b;" horiz-adv-x="921" 
d="M518 1062q-38 -27 -87 -29t-79.5 16.5t-24.5 46.5q5 23 19.5 71.5t24.5 84t9 39.5q19 11 55.5 6.5t73.5 -15.5t59.5 -40t12.5 -66q-33 -92 -63 -114zM911 659q28 -101 -4.5 -202t-104 -184.5t-189.5 -169.5t-234 -151.5t-264 -137.5q-168 -340 -321 -461
q-68 -54 -137.5 -76.5t-121 -17.5t-95.5 22.5t-67 36t-30 30.5q4 -3 11.5 -6.5t32 -9.5t48.5 -4.5t59.5 16t67.5 43.5q68 62 165 248q-141 -63 -225 -107q-55 -29 -78.5 -78t-11.5 -77q-16 7 -32.5 21t-28 38t-8 51t37 63t97.5 71q62 34 310 141q84 175 182.5 414.5
t172.5 431.5t85 217q12 34 17.5 67.5t5 49.5t-1.5 16q38 2 76 -3t75 -18.5t60 -37t31.5 -58t-10.5 -81.5q-6 -15 -53 -155t-115 -321t-138 -338q80 43 146.5 86t131.5 96t112 106.5t82 116.5t48.5 128.5t4 141t-45.5 154.5q8 3 22 7.5t52 8.5t70 -3.5t65 -38.5t48 -86z" />
    <glyph glyph-name="k.alt1" unicode="&#xf01c;" horiz-adv-x="1015" 
d="M862 963q128 0 152 -91q23 -88 -55 -213q-85 -135 -236 -225q-137 -82 -289 -95q54 -375 421 -363h12q8 -16 -12 -58.5t-63.5 -81t-91.5 -38.5q-68 0 -124.5 19t-94 48.5t-67 73t-46.5 86t-30 95.5t-19 93.5t-13.5 87.5t-12.5 70q-81 -109 -255 -374q-103 0 -154.5 72
t-21.5 146q17 43 185 396.5t315.5 676t140.5 344.5q15 2 43.5 2.5t62 -11.5t61 -28.5t42 -49t4.5 -72.5q-23 -99 -457 -1009q70 97 141.5 180t151.5 157.5t161 118t149 43.5zM376 480q106 -33 276 89q120 87 199 194q71 96 42 122q-8 8 -24 8q-168 0 -493 -413z" />
    <glyph glyph-name="l.alt1" unicode="&#xf01d;" horiz-adv-x="462" 
d="M457 1444q97 171 248 216q120 36 218 -19q89 -50 105 -147q5 -30 1 -62q-7 -64 -45.5 -130t-97 -119t-138.5 -87.5t-165 -37.5h-29q-72 -140 -212.5 -404.5t-217 -413t-75.5 -165.5q52 5 196 161t273 362q10 15 27 15q19 0 28 -16.5t-1 -32.5q-147 -237 -305 -403
t-240 -162q-69 4 -127.5 66t-27.5 141q25 65 412 880q-106 21 -238.5 60t-230.5 70.5t-196 56t-174 21t-126 -39.5q-21 81 -1 135.5t68 81.5t113 23q59 -3 158.5 -46t196 -96.5t226.5 -112.5t235 -87q121 255 142 292zM740 1187q127 74 166 196q27 85 -1 140q-24 47 -70 28
q-65 -28 -128 -177q-36 -87 -114 -241q80 14 147 54z" />
    <glyph glyph-name="m.alt1" unicode="&#xf01e;" horiz-adv-x="1615" 
d="M1485 493q58 -14 91 -49t38 -79.5t1.5 -80t-14.5 -67.5q-20 -61 -50.5 -120.5t-81 -125t-110.5 -114.5t-145 -81t-179 -32q-96 0 -158.5 62t-70.5 163.5t48 230.5q4 11 136 273.5t183 385.5q-95 -73 -344 -411t-301 -450q-109 0 -164 45.5t-27 114.5q9 24 36 78
t53.5 104.5t74 140t72.5 136.5q71 149 110 242q-117 -85 -318.5 -346t-326.5 -515q-109 0 -164 45.5t-27 114.5q17 42 110 239.5t165 362.5t65 187q22 6 60.5 6t80.5 -8t63.5 -38t4.5 -78q-57 -157 -221 -465q84 124 179 245.5t202 226t168 113.5v1h6h5q87 0 125.5 -53
t17.5 -116q-63 -167 -193 -421q400 590 540 590q87 0 126 -53t18 -116q-19 -51 -42 -104t-54.5 -118t-48 -97.5t-56 -108.5t-44.5 -86q-15 -29 -30 -59.5t-40 -84t-42.5 -100t-31.5 -92t-13 -76.5t18 -39q44 -20 102.5 -1.5t114 64.5t112.5 110t99 133.5t72.5 135.5
t33.5 116t-18 75q-38 38 -97 -29t-99 -159t-35 -125q-2 1 -5.5 2t-14.5 5.5t-19 10t-19.5 15.5t-16 22t-8.5 28.5t3 35.5q35 135 110 199t185 39z" />
    <glyph glyph-name="n.alt1" unicode="&#xf01f;" horiz-adv-x="1136" 
d="M1006 493q58 -14 91 -49t38 -79.5t1.5 -80t-14.5 -67.5q-20 -61 -50.5 -120.5t-81 -125t-111 -114.5t-145.5 -81t-179 -32q-96 0 -158.5 62t-70.5 163.5t48 230.5q5 12 131.5 274t177.5 385q-117 -90 -319.5 -350.5t-325.5 -510.5q-109 0 -164 45.5t-27 114.5
q17 42 110 239.5t165 362.5t65 187q16 4 44.5 2t61.5 -10.5t59.5 -27t38 -47.5t-3.5 -70q-20 -55 -42 -100.5t-63.5 -125.5t-84.5 -171q62 92 132 182.5t146 177t146 140t114 53.5q88 0 127.5 -53t16.5 -116q-17 -47 -45 -110t-58 -126t-64.5 -133t-66 -135.5t-60.5 -129.5
t-50.5 -118.5t-34 -98.5t-11.5 -73.5t16 -40.5q40 -28 96 -13.5t111.5 60.5t113 110.5t101 137.5t75.5 141t36 120.5t-17 76.5q-38 38 -97 -29t-99 -159t-35 -125q-2 1 -5.5 2t-14.5 5.5t-19 10t-19 15.5t-15.5 22t-8.5 28.5t3 35.5q35 135 110 199t185 39z" />
    <glyph glyph-name="o.alt1" unicode="&#xf020;" horiz-adv-x="1144" 
d="M1018 796q24 8 49.5 1.5t47.5 -27.5t29.5 -60.5t-5.5 -98.5q-23 -98 -82.5 -178t-139.5 -131.5t-167.5 -82.5t-177.5 -41q-167 -181 -333 -181q-144 0 -234.5 69t-90.5 173q0 109 47 240.5t110 231t124.5 168.5t92.5 71q32 2 74 -14.5t73 -40.5q23 23 26 25
q33 25 99.5 27.5t151.5 -26.5q39 -15 65 -37t37.5 -47.5t15.5 -47t4 -48.5q0 -95 -57.5 -233t-145.5 -257q90 33 159 80.5t108.5 97.5t65.5 103t36 99.5t13.5 83t3.5 59t1 22.5zM175 77q146 13 268 112q-39 13 -75.5 37.5t-68 59t-50.5 83.5t-19 105q0 39 12 90
q-69 -115 -104 -228t-25.5 -185t62.5 -74zM509 250q130 138 193 333q49 150 26 228q-12 41 -44 41q-60 0 -141 -110q-88 -119 -124 -256q-42 -161 30 -215q24 -17 60 -21z" />
    <glyph glyph-name="p.alt1" unicode="&#xf021;" horiz-adv-x="1193" 
d="M1060 741q6 1 15.5 2.5t34 -1.5t43 -13t32.5 -37t12 -68q-12 -235 -483 -392q-76 -109 -159 -181q-67 -56 -139 -88t-129.5 -36.5t-104.5 5t-71.5 33t-22.5 51.5q16 -26 55 -24q111 6 252 150q-31 -8 -95.5 -24t-94.5 -24q-37 -10 -57 -38.5t-15 -46.5q-9 6 -17.5 16.5
t-13 26.5t1 32t30 34t67.5 32q34 11 127 36.5t142 40.5q60 75 113.5 163t90 171.5t55 155t10.5 120t-45 60.5q-47 15 -98.5 -8.5t-94 -68.5t-92 -118t-84.5 -135.5t-80.5 -144.5t-70.5 -123q-33 -69 -243 -505t-223 -464q-103 0 -154 71.5t-21 145.5q18 46 191.5 396.5
t327.5 673t147 344.5q15 2 43.5 2t61.5 -11.5t61 -28.5t42 -49.5t4 -72.5q56 66 105 103t114 47q52 8 104.5 -5t94.5 -43t65 -84t14 -122q-20 -156 -124 -350q306 156 276 394z" />
    <glyph glyph-name="q.alt1" unicode="&#xf022;" horiz-adv-x="1148" 
d="M520 9l-5 -9q45 -36 52.5 -116.5t-20 -172t-73.5 -177t-113 -142t-132 -56.5q-88 0 -136 58.5t-52 129.5q-4 74 21 159.5t69 164.5t86 142t86 122.5t54 76.5q-80 -84 -155.5 -136.5t-126.5 -52.5q-39 0 -74 10t-70.5 34t-54.5 75t-14 124q6 86 76.5 211.5t163.5 233
t191.5 185t156.5 77.5q64 0 113.5 -15t77 -39t41 -42.5t21.5 -37.5q1 -3 -1.5 -5t-5.5 0q-29 15 -76 0q-117 -41 -274.5 -224.5t-244 -348.5t-31.5 -165q56 0 141 67.5t167.5 165t148 187t103.5 152.5q0 1 1 2t1 2q2 4 6 10l2 2q15 15 65.5 -8.5t89 -67t24.5 -74.5
q-11 -27 -41 -78.5t-98 -161t-99 -160.5q54 30 97 57.5t93.5 65t86.5 74.5t67.5 84t46 95t13.5 106t-22 119q6 2 17 4.5t39 4.5t51 -3t45 -24t29 -53q18 -81 -15.5 -161.5t-88.5 -139.5t-157.5 -127.5t-174.5 -107t-188 -96.5zM247 -565q16 -32 70 12q70 56 122 167
q81 173 38 323q-25 -43 -55 -92.5t-51.5 -83.5t-44.5 -73t-38 -66t-28 -56.5t-18 -51t-4 -42t9 -37.5z" />
    <glyph glyph-name="r.alt1" unicode="&#xf023;" horiz-adv-x="735" 
d="M712 493q58 -14 91 -49t38 -79.5t1.5 -80t-14.5 -67.5q-20 -58 -53.5 -119t-85.5 -123.5t-113 -111t-141.5 -79t-165.5 -30.5q-81 0 -141 36.5t-88 99t-12 155.5t82 196q148 233 187 300q101 175 77 193q-24 17 -125 50q-24 -39 -54.5 -90.5t-47 -79t-38.5 -62t-42 -64.5
q-8 -12 -23 -15.5t-26 5.5q-22 18 -6 43q156 244 180 284q-63 27 -89 66t-1 104q26 66 69 102t89 39q44 3 86 -37t20 -87q-32 -63 -90 -162q29 -13 105 -34q68 -18 112 -57.5t53.5 -98t-37.5 -130.5q-218 -334 -247 -420q-4 -9 -13.5 -28.5t-15.5 -33t-15.5 -34t-14.5 -35.5
l-11 -33t-7 -31.5t-0.5 -26t6.5 -21.5t17 -13q45 -19 104 -0.5t115 63.5t113 106.5t99.5 129t73 131t33.5 112.5t-18 73q-38 38 -97 -29t-99 -159t-35 -125q-44 0 -73.5 33.5t-15.5 77.5q94 295 304 246zM230 867q70 114 64 119q-16 9 -38 -10t-31 -47t1 -55q1 -1 2.5 -3.5
t1.5 -3.5z" />
    <glyph glyph-name="s.alt1" unicode="&#xf024;" horiz-adv-x="798" 
d="M799 712q9 -72 -17 -138t-83.5 -122t-125.5 -100.5t-158 -88.5q8 -26 10 -39q24 -149 -101 -262q-106 -97 -255 -97q-90 0 -138.5 53t-34.5 122q-2 -6 1.5 -15t14.5 -20t28 -20t45.5 -15.5t63.5 -7.5q44 -1 115.5 64.5t104.5 169.5q-53 -22 -146.5 -59t-111.5 -44
q-35 -14 -51.5 -44.5t-10.5 -48.5q-10 5 -19.5 14t-16 25t-3 32.5t25.5 37.5t63 40q22 10 123 53.5t161 74.5q-3 45 -39 103t-77.5 105.5t-79 110t-43.5 115.5q-5 46 24 95t73.5 86t86.5 63t71 36q33 11 81.5 -17t77 -71t9.5 -70q-6 -2 -16.5 -6.5t-42 -20t-55 -31.5
t-57 -42t-46.5 -51t-23.5 -58.5t10.5 -65.5q11 -23 67 -98.5t82 -125.5q308 193 239 465q6 1 17 3t39 1.5t50.5 -7.5t43 -28.5t24.5 -55.5z" />
    <glyph glyph-name="u.alt1" unicode="&#xf026;" horiz-adv-x="1140" 
d="M1010 493q58 -14 91 -49t38 -79.5t1.5 -80t-14.5 -67.5q-20 -61 -50.5 -120.5t-81 -125t-111 -114.5t-145.5 -81t-179 -32q-90 0 -151.5 56t-74 149t29.5 212q-145 -164 -263 -164q-107 0 -166 76.5t-38 182.5q11 56 87.5 221t143 308.5t59.5 164.5q15 2 43.5 2.5
t62 -11.5t61 -28.5t42 -49t4.5 -72.5q-12 -50 -89.5 -199.5t-146.5 -293.5t-69 -198q0 -48 62 -17q86 45 213 197q70 84 135 184l188 398q29 63 23 92q42 -2 73.5 -6.5t60 -12.5t46 -20.5t27.5 -31t9 -44.5t-14 -59q-16 -44 -51.5 -114.5t-64 -122.5t-82 -149t-70.5 -127
q-15 -29 -30 -59.5t-40 -84t-42.5 -100t-31.5 -92t-13 -76.5t18 -39q44 -20 102.5 -1.5t114 64.5t112.5 110t99 133.5t72.5 135.5t33.5 116t-18 75q-38 38 -97 -29t-99.5 -159t-35.5 -125q-2 1 -5.5 2t-14.5 5.5t-19 10t-19 15.5t-15.5 22t-8.5 28.5t3 35.5q35 135 110 199
t185 39z" />
    <glyph glyph-name="v.alt1" unicode="&#xf027;" horiz-adv-x="952" 
d="M714 1122q5 1 13.5 3t34 4.5t48 1.5t50.5 -8.5t48 -21.5t34 -42t14 -67q0 -91 -64 -225t-162 -264.5t-205.5 -246t-205.5 -187.5t-151 -72q-85 0 -147 41.5t-62 125.5q0 43 20.5 124t44.5 167.5t44 177.5t19 178t-31 145q68 15 118.5 11.5t83.5 -15t54 -37t30 -55
t12 -68.5q5 -73 -55 -313t-119 -369q-5 -9 3 -16t17 -2q75 42 156 124t151 181t127 210.5t89 210t31.5 181t-40.5 123.5z" />
    <glyph glyph-name="w.alt1" unicode="&#xf028;" horiz-adv-x="1388" 
d="M1159 1142q5 0 13.5 0.5t32.5 -0.5t46 -4.5t48.5 -13.5t46 -25.5t32.5 -41.5t13 -60q0 -77 -45.5 -184.5t-116.5 -216.5t-160 -218t-175 -193t-162.5 -136t-120.5 -52q-59 0 -111 23t-80 69t-12 103q2 5 4.5 16t3.5 16q-177 -227 -314 -227q-107 0 -166 76.5t-38 182.5
q11 56 87.5 221t143 308.5t59.5 164.5q15 2 43.5 2.5t62 -11.5t61 -28.5t42 -49t4.5 -72.5q-12 -50 -89.5 -199.5t-146.5 -293.5t-69 -198q0 -49 62 -17q86 44 212 195q66 79 128 173q54 130 114 241t90 141q46 0 92.5 -16t74.5 -47.5t0 -78.5q-218 -454 -246 -581
q-2 -10 4.5 -16.5t15.5 -1.5q75 42 156 125.5t151.5 185t128 215t89.5 214.5t31.5 185t-40.5 125z" />
    <glyph glyph-name="x.alt1" unicode="&#xf029;" horiz-adv-x="1204" 
d="M1074 643q58 -14 91 -49t38 -79.5t1.5 -80t-14.5 -67.5q-25 -75 -62.5 -140.5t-91.5 -125.5t-131.5 -95t-168.5 -35q-54 0 -96.5 22t-71 57t-51.5 93.5t-37 116t-29 140.5l-353 -319q-12 -10 -48 -7q-31 2 -29 16l3 9l417 380q-25 202 -49 306q-14 60 -23 74t-30 12
q-19 -2 -92.5 -104t-140.5 -209q-8 -12 -21 -15t-24 5t-13.5 20t4.5 23q179 288 239 335q32 25 78 34t90.5 0t81 -44t46.5 -92q10 -56 29 -186l337 306q23 21 64 3q23 -12 18 -21l-407 -367q7 -51 16 -165t21 -188.5t35 -109.5q66 -102 178 -17q90 69 164.5 218.5
t68.5 244.5q-3 38 -22 57q-38 38 -97 -29t-99 -159t-35 -125q-2 1 -5.5 2t-14.5 5.5t-19 10t-19 15.5t-15.5 22t-8.5 28.5t3 35.5q35 135 110 199t185 39z" />
    <glyph glyph-name="y.alt1" unicode="&#xf02a;" horiz-adv-x="1345" 
d="M1078 771q22 23 66.5 32t90.5 1t80 -47t34 -103q0 -85 -30.5 -167.5t-89 -156.5t-130.5 -141.5t-167.5 -132.5t-187 -118.5t-201.5 -110.5q-177 -349 -336 -472q-58 -45 -117 -67.5t-105.5 -23t-88 8.5t-71 26.5t-47 32t-22.5 24.5q4 -3 12 -6.5t32 -9.5t49 -5t60 15
t68 43q65 57 165 240q-145 -69 -215 -105q-55 -29 -78.5 -78t-11.5 -77q-16 7 -32.5 21t-28.5 38t-8.5 51t37 63t97.5 71q34 19 78 40t120.5 57l110.5 52q83 168 204 450q-171 -219 -308 -219q-107 0 -166 76.5t-38 182.5q11 56 87.5 221t142.5 308.5t59 164.5
q15 2 43.5 2.5t62 -11.5t61 -28.5t42 -49t4.5 -72.5q-12 -50 -89.5 -199.5t-146.5 -293.5t-69 -198q0 -48 62 -17q86 44 212 196q84 100 159 221q121 297 130 317q13 34 18.5 67t4.5 49v16q38 1 76 -4.5t75 -19.5t59.5 -37.5t30.5 -58t-12 -81.5q-4 -10 -51.5 -145
t-113 -304.5t-134.5 -320.5q451 271 507 552q30 149 -45 241z" />
    <glyph glyph-name="z.alt1" unicode="&#xf02b;" horiz-adv-x="1333" 
d="M1334 640q10 -67 -14.5 -132.5t-69.5 -119.5t-120 -111t-150.5 -102t-176.5 -97q-129 -254 -312 -450q-41 -44 -84.5 -70.5t-80.5 -33.5t-71 -1.5t-57.5 23.5t-37.5 45t-14 58q4 -4 10.5 -10t25.5 -13t38 -1q39 13 126 105t168 203q-138 -68 -241 -128q-34 -20 -55 -45.5
t-25.5 -49.5t-3.5 -42t7 -32q-17 8 -31.5 19.5t-25.5 34t-6.5 48.5t36 63.5t92.5 78.5q27 18 69 40.5t72.5 37.5t97 47t93.5 45q1 0 2 2l1 2q55 91 89.5 177.5t39.5 138.5q-27 4 -230.5 -132t-222.5 -162q-10 -13 -46 17.5t-63.5 74t-17.5 62.5q17 32 603 632
q-291 -3 -430 50q-5 -9 -34.5 -63.5t-43 -78.5t-39.5 -69t-49.5 -80.5t-47.5 -67.5q-14 -15 -31 -15.5t-27.5 13t-0.5 29.5q22 36 71.5 113t88.5 139t62 105q-53 34 -53 82q0 31 16 51.5t39.5 26.5t47.5 4.5t41.5 -12.5t20.5 -27q4 -21 -34 -98q44 -16 127 -21t148.5 -3
t154 7.5t97.5 5.5q33 1 65.5 -22.5t46.5 -55.5t1 -53q-25 -40 -480 -492q187 121 256 121q66 0 110.5 -51.5t23.5 -111.5q-20 -56 -37 -95q68 43 119.5 86t93.5 96t61.5 107.5t15.5 120.5t-37 135q8 3 21.5 8t49 10t63.5 -1t55 -34.5t34 -80.5zM297 999q13 31 15 50
q-2 0 -5 -0.5t-8.5 -7.5t-6.5 -19t5 -23z" />
    <glyph glyph-name="r.alt2" unicode="&#xf02e;" horiz-adv-x="616" 
d="M248 915q0 -1 2 -3.5t2 -3.5q70 114 64 119q-16 9 -38 -10t-31 -47t1 -55zM144 301q200 305 242 406q24 56 11 67q-25 18 -126 51q-5 -9 -182 -296q-8 -12 -23 -15.5t-26 5.5q-22 18 -6 43q156 244 180 284q-63 27 -89 66t-1 104q26 66 69.5 101.5t89.5 38.5
q44 3 85.5 -37t19.5 -87q-28 -56 -90 -161q29 -13 105 -34q68 -18 112 -57.5t53.5 -98t-37.5 -130.5q-41 -63 -82 -133t-63.5 -111.5t-60 -112.5t-46.5 -88q-5 -9 -24 -41t-31 -54t-24.5 -57t-13.5 -60.5t12 -53t43 -45.5q45 -21 94 -12.5t124.5 37t144 59.5t153 54.5
t151.5 22.5q53 -1 92.5 -15.5t59 -36t28 -48t6.5 -50.5t-12 -43q-68 28 -156.5 33t-179 -8t-175 -30t-173 -32t-145.5 -15q-49 0 -98.5 20.5t-89 57t-58.5 92t-6 118.5q5 25 12.5 50.5t14.5 44.5t19 43t18.5 37.5t21 37t19.5 31.5t20.5 31t17.5 27z" />
    <glyph glyph-name="h.alt2" unicode="&#xf02f;" horiz-adv-x="841" 
d="M279 -1q7 23 86.5 191.5t176 374.5t133.5 294q-117 -90 -319.5 -350.5t-325.5 -510.5q-109 0 -164 45.5t-27 114.5q17 43 190 409t325.5 700.5t145.5 356.5q15 2 43.5 2t62 -11.5t61 -28.5t42 -49.5t4.5 -72.5q-14 -56 -120.5 -274t-241.5 -482.5t-172 -343.5
q66 116 176 253.5t216.5 235t154.5 97.5q87 0 126 -53t18 -116q-51 -136 -125.5 -293.5t-128.5 -261t-59 -120.5q-3 -5 -15 -27t-19.5 -36t-20 -39.5t-18.5 -44.5t-13 -44t-6.5 -45t4.5 -41t17 -38t33 -29q48 -21 127.5 -8t204 48t239 72t232.5 65t185 27q53 -1 94.5 -18
t63 -42t35 -54.5t11 -56t-9.5 -45.5q-69 28 -189.5 32t-258 -11t-267 -34t-252.5 -37.5t-178 -21.5q-65 -3 -119 13t-89 46t-57.5 71.5t-23.5 90t12 100.5z" />
    <glyph glyph-name="r.alt3" unicode="&#xf032;" horiz-adv-x="714" 
d="M809 612q16 -5 20.5 -20t-4.5 -29q-146 -236 -304 -401.5t-240 -161.5q-33 2 -67.5 16.5t-64.5 45.5t-30 77.5t36 111.5q11 18 55.5 87t79 125.5t72.5 122t54 108t4 50.5q-23 16 -126 50q-28 -47 -107 -174t-156.5 -251t-142 -227.5t-65.5 -104.5q-23 -37 -72 -37
q-36 0 -61 11q-11 5 -6 10q37 37 268 372t285 422q-63 27 -89 66t-1 104q26 66 69.5 102t89.5 39q44 3 85.5 -37t19.5 -87q-31 -63 -90 -162q29 -13 105 -34q68 -18 112 -57.5t53.5 -98t-37.5 -130.5q-254 -389 -251 -445q52 5 195.5 161.5t272.5 362.5q14 21 38 13z
M272 885q0 -1 1 -4t2 -4q70 114 64 119q-16 9 -37.5 -9.5t-30.5 -46.5t1 -55z" />
    <glyph glyph-name="b.alt2" unicode="&#xf034;" horiz-adv-x="999" 
d="M931 697q-5 -61 -29 -139.5t-65 -168t-108.5 -180t-149.5 -158.5q-67 -56 -139.5 -87.5t-130 -36t-104 5t-71 32.5t-22.5 51q16 -26 55 -24q117 6 251 150q70 75 135.5 173t111 193.5t72 179t22.5 140.5t-41 69q-47 15 -98.5 -8.5t-94 -68.5t-92.5 -118t-85 -135.5
t-80.5 -144.5t-70.5 -123q-37 -77 -100 -194.5t-72 -137.5q-103 0 -154 71.5t-21 145.5q18 46 195.5 403t335 686t150.5 351q15 2 41.5 2t58.5 -10.5t59.5 -25.5t44 -44t11.5 -66q0 -2 -155 -339.5t-156 -339.5q56 66 105 103t114 47q52 8 103 -5t92.5 -43t64.5 -84t17 -122
z" />
    <glyph glyph-name="p.alt2" unicode="&#xf035;" horiz-adv-x="1007" 
d="M924 668q-8 -82 -48.5 -196t-120 -239.5t-173.5 -196.5q-70 -53 -144 -82t-132.5 -32t-106 8t-72.5 34.5t-23 51.5q16 -26 55 -24q118 6 252 150q70 75 135.5 173t110.5 193.5t71.5 179t22.5 140.5t-41 69q-47 15 -98.5 -8.5t-94 -68.5t-92 -118t-84.5 -135.5
t-80.5 -144.5t-70.5 -123q-37 -76 -254.5 -512t-227.5 -457q-103 0 -154 71.5t-21 145.5q18 46 203.5 418t351.5 716t159 366q15 2 41.5 2t58.5 -10.5t59.5 -25.5t44 -44t11.5 -66q0 -3 -17 -51.5t-17 -50.5q56 66 105 103t114 47q54 8 104 -3.5t93 -42t65.5 -92
t14.5 -145.5z" />
    <glyph glyph-name="g.alt2" unicode="&#xf038;" horiz-adv-x="935" 
d="M1122 -36q65 -10 102 -42.5t42.5 -74t-2.5 -81t-28 -70.5q-102 89 -303.5 136.5t-387.5 38.5q-135 -255 -194 -343q-70 -104 -181 -144t-192 -1.5t-75 137.5q13 129 130 237.5t314 169.5q40 88 82 188.5t73.5 178t40.5 97.5q-98 -146 -231 -268.5t-214 -122.5
q-30 0 -58.5 5.5t-59.5 21.5t-53 41.5t-34.5 70.5t-8.5 104q6 86 77 211.5t164 233t191.5 185t156.5 77.5q64 0 113.5 -15t77 -39t41 -42.5t21.5 -37.5q1 -3 -1.5 -5t-5.5 0q-29 15 -76 0q-117 -41 -274.5 -224.5t-244 -348.5t-31.5 -165q58 0 147 72t173 173t150 193
t98 148h1q34 0 72.5 -10.5t74 -32.5t47.5 -57t-7 -84q-53 -121 -248 -497q247 27 521 -14zM40 -553q93 36 256 371q-277 -101 -303 -290q-6 -41 11 -64.5t36 -16.5z" />
    <glyph glyph-name="g.alt3" unicode="&#xf039;" horiz-adv-x="968" 
d="M1547 -117q18 -28 20.5 -62.5t-11 -68.5t-39.5 -62t-69 -45t-95 -16q-99 3 -244.5 45.5t-309.5 98t-265 75.5q-142 -269 -187 -340q-53 -85 -119.5 -134t-126 -55t-109.5 12.5t-78.5 66t-24.5 107.5q4 156 128.5 277.5t332.5 152.5q40 88 81.5 186.5t72.5 174.5t39 95
q-98 -146 -231 -268.5t-214 -122.5q-30 0 -58.5 5.5t-59.5 21.5t-53 41.5t-34.5 70.5t-8.5 104q6 86 77 211.5t164 233t191.5 185t156.5 77.5q64 0 113.5 -15t77 -39t41 -42.5t21.5 -37.5q1 -3 -1.5 -5t-5.5 0q-29 15 -76 0q-117 -41 -274.5 -224.5t-244 -348.5t-31.5 -165
q58 0 147 72t173 173t150 193t98 148h1q34 0 72.5 -10.5t74 -32.5t47.5 -57t-7 -84q-47 -109 -269 -538q111 -13 224 -47q166 -51 291 -75.5t195.5 -28.5t125.5 13t75 32t51 47zM23 -588q101 39 291 444q-78 -16 -149 -61.5t-125 -125t-63 -175.5q-4 -41 12 -65t34 -17z" />
    <glyph glyph-name="m.alt2" unicode="&#xf03b;" horiz-adv-x="1370" 
d="M1058 127q-5 -10 -29.5 -52.5t-38.5 -74t-26 -73.5t-0.5 -76t47.5 -56q27 -19 85.5 -15.5t120.5 20t143.5 42t153.5 49t150.5 41t135.5 19.5q60 2 102.5 -12t62.5 -37t26 -53t-2 -61t-27 -59q-46 43 -132 59.5t-194.5 8.5t-205.5 -22.5t-208.5 -34.5t-159.5 -25
q-67 -7 -129 12t-103.5 58t-60 94t1.5 120q7 22 88 191t179 374.5t135 294.5q-95 -73 -344 -411t-301 -450q-109 0 -164 45.5t-27 114.5q9 24 36 78t53.5 104.5t74 140t72.5 136.5q71 149 110 242q-117 -85 -318.5 -346t-326.5 -515q-109 0 -164 45.5t-27 114.5
q17 42 110 239.5t165 362.5t65 187q22 6 60.5 6t80.5 -8t63.5 -38t4.5 -78q-57 -157 -221 -465q84 124 179 245.5t202 226t168 113.5v1h6h5q87 0 126 -53t18 -116q-60 -160 -194 -421q400 590 540 590q87 0 126 -53t18 -116q-42 -113 -102.5 -240.5t-130 -261t-78.5 -152.5z
" />
    <glyph glyph-name="n.alt2" unicode="&#xf03c;" horiz-adv-x="911" 
d="M276 -1q6 22 88.5 191t182 374.5t136.5 294.5q-117 -90 -319.5 -350.5t-325.5 -510.5q-109 0 -164 45.5t-27 114.5q17 42 110 239.5t165 362.5t65 187q16 4 44.5 2t61.5 -10.5t59.5 -27t38 -47.5t-3.5 -70q-20 -55 -42 -100.5t-63.5 -125.5t-84.5 -171q62 92 132 182.5
t146 177t146 140t114 53.5q87 0 125.5 -53t17.5 -116q-42 -111 -105.5 -244.5t-135 -270t-83.5 -160.5q-5 -9 -29 -50t-36.5 -69.5t-23 -67.5t2 -70.5t48.5 -53.5q27 -19 87.5 -16t126.5 19t152 39.5t162 45.5t156.5 37t137.5 14q88 -1 130 -41.5t35 -94.5t-49 -104
q-32 45 -99.5 68.5t-145.5 26t-177.5 -6t-180.5 -22t-170 -28t-133 -18.5q-57 -5 -114.5 14.5t-98.5 58t-59.5 93t0.5 119.5z" />
    <glyph glyph-name="y.alt2" unicode="&#xf03d;" horiz-adv-x="995" 
d="M1523 -117q18 -28 21 -62.5t-11 -68.5t-39.5 -62t-68.5 -45t-95 -16q-99 3 -244.5 45.5t-310 98t-265.5 75.5q-145 -275 -187 -341q-53 -85 -119.5 -134t-126 -55t-109.5 13t-78.5 66.5t-24.5 107.5q4 156 129 277.5t333 152.5q48 114 84 206t46 114q-190 -258 -338 -258
q-107 0 -166 76.5t-38 182.5q11 56 87.5 221t143 308.5t59.5 164.5q15 2 43.5 2.5t62 -11.5t61 -28.5t42 -49t4.5 -72.5q-12 -50 -89.5 -199.5t-146.5 -293.5t-69 -198q0 -48 61 -17q87 44 213 195q163 195 280 444q21 48 45 104t37 85t18 39q38 1 70.5 -3.5t63 -15
t47.5 -29t23 -46t-9 -64.5q-24 -65 -271 -577q-61 -136 -131 -272l-1 -1q-1 -1 -1 -2.5t-1 -2.5q109 -13 223 -47q166 -51 291 -75.5t195.5 -28.5t125.5 13t75 32t51 47zM0 -588q101 39 291 444q-57 -12 -113 -42t-104 -74.5t-81 -108.5t-40 -137q-4 -41 12.5 -65t34.5 -17z
" />
    <glyph glyph-name="y.alt3" unicode="&#xf03e;" horiz-adv-x="929" 
d="M-31 -553q93 36 256 371q-277 -101 -303 -290q-6 -41 11 -64.5t36 -16.5zM276 -73q46 109 85 205t51 123q-190 -258 -338 -258q-107 0 -165.5 76.5t-37.5 182.5q11 56 87.5 221t142.5 308.5t59 164.5q15 2 43.5 2.5t62 -11.5t61 -28.5t42 -49t4.5 -72.5
q-12 -50 -89.5 -199.5t-146.5 -293.5t-69 -198q0 -48 61 -17q87 44 213 195q163 195 280 444q21 48 45 104t37 85t18 39q38 1 70.5 -3.5t63 -15t47.5 -29t23 -46t-9 -64.5q-5 -12 -185.5 -385.5t-201.5 -428.5q247 27 521 -14q65 -10 102 -42t42.5 -73.5t-2.5 -80.5t-28 -71
q-102 89 -303.5 136t-387.5 38q-135 -255 -194 -343q-70 -104 -181 -144t-192 -1.5t-75 137.5q13 129 130 237.5t314 169.5z" />
    <glyph glyph-name="h.alt3" unicode="&#xf03f;" horiz-adv-x="884" 
d="M737 950q87 0 125.5 -53t17.5 -116q-41 -110 -108 -248t-132.5 -263t-83.5 -164q-46 -101 -35 -191q110 22 122 24q47 8 87.5 -7.5t59.5 -45.5t20.5 -64t-28.5 -67t-88 -51q-83 -26 -173 3t-145 103q-53 -16 -120 -37.5t-113 -37t-108 -34.5t-104 -29t-102 -21t-101 -10
t-101 4q-100 11 -140 100q-24 53 -13 89q4 11 11 11q61 -31 158.5 -40.5t222 2t230 28t242.5 43.5q-54 137 29 318l69.5 139t137.5 280t111 244q-117 -90 -319.5 -350.5t-325.5 -510.5q-109 0 -164 45.5t-27 114.5q15 37 182 407.5t311 703.5t137 355q16 4 44.5 2
t61.5 -10.5t59.5 -27t38 -47.5t-3.5 -70q-31 -85 -206.5 -475.5t-273.5 -598.5q62 92 132 182.5t146 177t146 140t114 53.5zM635 -126q-6 -1 -97 -21q21 -48 63 -67.5t98 -0.5q42 14 43 45q2 29 -36 42q-29 10 -71 2z" />
    <glyph glyph-name="n.alt3" unicode="&#xf040;" horiz-adv-x="864" 
d="M536 94q-46 -101 -35 -191q85 17 121 23q39 7 74 -3t57.5 -31t31.5 -49.5t2 -56.5t-36 -54t-77 -41q-83 -26 -173 3.5t-146 103.5q-67 -20 -199.5 -63.5t-200 -63.5t-166.5 -34t-183 -5q-100 11 -139 100q-24 53 -13 89q4 12 11 11q61 -31 158 -40.5t222 2.5t230 28.5
t243 43.5q-54 139 28 318q5 10 69.5 138.5t138 280t111.5 244.5q-117 -90 -320 -351t-326 -511q-109 0 -164 46t-27 115q17 42 110 239t165 362t65 187q16 4 44.5 2.5t61.5 -10.5t60 -27t38.5 -47t-3.5 -70q-20 -55 -42 -100.5t-63.5 -126t-84.5 -171.5q63 92 132 182.5
t145.5 177.5t146 140.5t113.5 53.5q87 0 126 -53.5t18 -116.5q-41 -110 -108 -247.5t-132.5 -262.5t-83.5 -164zM614 -138q-6 -1 -97 -21q21 -48 63 -67.5t98 -0.5q42 14 43 45q2 29 -36 42q-29 10 -71 2z" />
    <glyph glyph-name="m.alt3" unicode="&#xf041;" horiz-adv-x="1363" 
d="M1040 106q-47 -98 -35 -191q15 3 41.5 9t45.5 10t35 5q46 4 84 -7.5t59.5 -32.5t29 -48.5t-2 -54.5t-40.5 -52t-79 -40q-83 -26 -173.5 3t-145.5 103q-53 -16 -120 -37.5t-113 -37t-108 -34.5t-104 -29t-102 -21t-101 -10t-101 4q-100 11 -139 100q-24 53 -13 89
q4 12 11 11q61 -31 158.5 -40.5t222 2t230 28t242.5 43.5q-46 118 28 318q6 17 135.5 279.5t179.5 383.5q-95 -73 -344 -411t-301 -450q-109 0 -164 45.5t-27 114.5q9 24 36 78t53.5 104.5t74 140t72.5 136.5q71 149 110 242q-117 -85 -318.5 -346t-326.5 -515
q-109 0 -164 45.5t-27 114.5q17 42 110 239.5t165 362.5t65 187q22 6 60.5 6t80.5 -8t63.5 -38t4.5 -78q-55 -151 -222 -465q84 124 179 245.5t202.5 226t168.5 113.5l-1 1h6h5q87 0 126 -53t18 -116q-63 -167 -193 -421q400 590 540 590q87 0 126 -53t18 -116
q-42 -113 -106 -247.5t-133 -268t-82 -159.5zM1118 -126q-6 -1 -97 -21q21 -48 63 -67.5t98 -0.5q42 14 43 45q2 29 -36 42q-29 10 -71 2z" />
    <glyph glyph-name="t.alt1" unicode="&#xf042;" horiz-adv-x="880" 
d="M849 1339q20 -16 29 -40.5t0 -57.5q-7 5 -23.5 7t-42 0t-51.5 -4.5t-63 -6t-66 -5.5q-85 -174 -198 -410.5t-182.5 -383t-84.5 -172.5q-15 -29 -30 -59.5t-40 -84t-42.5 -100t-31.5 -92t-13 -76.5t18 -39q39 -18 90 -4.5t102.5 51t105.5 91.5t99 116.5t84 126t59 120.5
t25 100t-17 64q-38 38 -97 -29t-99 -159t-35 -125q-2 1 -5.5 2t-14.5 5.5t-19 10t-19 15.5t-15.5 22t-8.5 28.5t3 35.5q35 135 109.5 199t184.5 39q58 -14 92 -45.5t40.5 -71.5t3.5 -73t-13 -64q-20 -60 -55 -126t-91 -138.5t-122 -129.5t-155 -94.5t-183 -37.5
q-71 0 -129.5 38t-91.5 100.5t-32 150.5t44 179q7 19 82.5 175.5t194 401.5t197.5 414q-63 -8 -228.5 -17t-310 -15.5t-151.5 -7.5q-29 -3 -63.5 1.5t-70.5 19t-55.5 49t-10.5 83.5q54 -25 248 -29.5t388.5 5t305.5 23.5q132 287 127 317q133 -7 190 -44t22 -131
q-23 -58 -48 -113q18 1 49 3t49 3t37 -1.5t29 -9.5z" />
    <glyph glyph-name="e.alt2" unicode="&#xf044;" horiz-adv-x="1017" 
d="M811 705q9 10 33.5 12.5t55 -5t59 -24t46.5 -49.5t15 -77q-3 -47 -16.5 -102t-42 -121t-68.5 -128t-100 -119.5t-131.5 -99t-168.5 -63.5t-207 -16q-66 4 -125.5 27t-110.5 67t-80 119t-25 172q2 57 23 130.5t56 151.5t86.5 152.5t111 132.5t134 92t150.5 31
q85 -4 149 -42.5t85.5 -99t-11.5 -136.5q-70 -146 -210.5 -238.5t-307.5 -86.5q-52 -159 -29 -269.5t104 -120.5q69 -9 133.5 10t115.5 58t97 93t77.5 115.5t57.5 125t36.5 122.5t15 107t-7.5 79zM614 865q-89 0 -192 -116t-175 -274q198 22 318 159q73 84 83 166
q6 58 -27 64q-3 1 -7 1z" />
    <glyph glyph-name="c.alt2" unicode="&#xf045;" horiz-adv-x="966" 
d="M648 575q-21 -20 -48 -26t-49.5 0.5t-39 18t-18.5 24.5q74 49 96 77q74 94 64 152q-5 33 -39 33q-60 0 -141.5 -79t-151 -188.5t-110.5 -212.5q-40 -101 -41 -190t31 -141t85 -59q69 -9 133.5 10t115.5 58t97 93t77.5 115.5t57.5 125t36.5 122.5t15 107t-7.5 79
q9 10 33.5 12.5t55 -5t59 -23.5t46.5 -49t15 -77q-3 -47 -16.5 -102.5t-42 -121t-68.5 -128t-100 -120t-131.5 -99t-168.5 -63.5t-207 -16q-66 4 -125.5 27t-110.5 67t-80 119t-25 172q2 57 23 130.5t56 151.5t86.5 152.5t111 132.5t134 92t150.5 31q85 -4 149 -42.5
t85.5 -99t-11.5 -136.5q-40 -84 -81 -124z" />
    <glyph glyph-name="t.alt2" unicode="&#xf046;" horiz-adv-x="548" 
d="M1347 1359q66 5 115.5 0.5t84.5 -18t58 -31.5t36 -40t19 -44.5t6.5 -43t-1 -37t-3.5 -25.5l-3 -10q-95 34 -221 50t-285 15.5t-282.5 -7t-305.5 -19.5q-1 -2 -7 -17q-39 -84 -111 -234.5t-124.5 -262t-107 -231t-84 -197.5t-29.5 -105q0 -17 20 -22.5t42 9.5
q116 84 237.5 229t207.5 281q10 15 27 15q19 0 28.5 -16.5t-0.5 -32.5q-147 -237 -305 -403t-240 -162q-109 0 -171.5 76t-42.5 181q3 18 15.5 52t35.5 90t45.5 107.5t60.5 137t63.5 142.5t72.5 160t71 157q4 8 12 26q-386 -24 -492 19q-71 29 -79 111q-4 46 9 62q6 6 10 -1
q34 -52 199.5 -63.5t412.5 9.5q42 98 89 226t44 136q20 5 58 -2t77.5 -25t63 -56.5t11.5 -88.5q-2 -9 -25 -76.5t-32 -89.5q85 8 331 32.5t389 36.5z" />
    <glyph glyph-name="j.alt2" unicode="&#xf047;" horiz-adv-x="399" 
d="M431 1044q-38 -27 -87 -29t-79.5 16.5t-24.5 46.5q5 23 19.5 71.5t25 84t9.5 39.5q19 11 55.5 6.5t73 -15.5t59 -40t12.5 -66q-33 -92 -63 -114zM521 -36q65 -10 102 -42t42.5 -73.5t-2.5 -80.5t-28 -71q-102 89 -303.5 136t-387.5 38q-131 -249 -195 -343
q-70 -104 -180.5 -144t-191.5 -1.5t-75 137.5q13 129 130 237.5t314 169.5q1 2 130 283.5t223 498t93 241.5q38 1 70.5 -3.5t63 -15t47.5 -29t23 -46t-9 -64.5q-5 -12 -185.5 -385.5t-201.5 -428.5q247 27 521 -14zM-562 -553q94 36 257 371q-278 -102 -304 -290
q-6 -41 11 -64.5t36 -16.5z" />
    <glyph glyph-name="j.alt3" unicode="&#xf048;" horiz-adv-x="401" 
d="M437 1044q-38 -27 -87 -29t-79.5 16.5t-24.5 46.5q5 23 19.5 71.5t25 84t9.5 39.5q19 11 55.5 6.5t73 -15.5t59 -40t12.5 -66q-33 -92 -63 -114zM943 -117q18 -28 21 -62.5t-11 -68.5t-39.5 -62t-68.5 -45t-95 -16q-99 3 -244.5 45.5t-309.5 98t-265 75.5
q-140 -265 -188 -341q-53 -85 -119.5 -134t-125.5 -55t-109 13t-78.5 66.5t-24.5 107.5q4 156 128.5 277.5t332.5 152.5q8 18 131 285.5t217.5 485.5t92.5 244q48 1 87.5 -6t72 -25t41 -49t-6.5 -78q-11 -28 -189 -404.5t-213 -444.5v-1q0 -1 -1 -2.5t-2 -2.5
q109 -13 223 -47q166 -51 291 -75.5t195.5 -28.5t125.5 13t75 32t51 47zM-580 -588q101 39 291 444q-57 -12 -113 -42t-104 -74.5t-81 -108.5t-40 -137q-4 -41 12.5 -65t34.5 -17z" />
    <glyph glyph-name="O.alt1" unicode="&#xf049;" horiz-adv-x="2170" 
d="M1637 1585q131 4 234.5 -31t169 -101t100 -154.5t34.5 -192.5q0 -153 -41 -300.5t-110.5 -268.5t-163.5 -224t-199 -172t-218 -106.5t-219 -34.5q-190 6 -290.5 113.5t-79.5 253.5q15 109 63 224q-211 -84 -429 -133t-382 -35q-56 5 -83.5 34.5t-26.5 68t9.5 76.5
t20.5 64l13 26q92 -82 388.5 -70t562.5 110l9 15q-154 86 -144 220q8 109 79.5 219.5t179 196t247 141.5t276.5 61zM1218 90q201 -11 387 207q159 187 252 467q89 269 67 470q-22 194 -146 231q-19 6 -41 8q-95 7 -193.5 -24.5t-179.5 -88.5t-151.5 -132.5t-116 -154.5
t-66.5 -156t-8 -136q67 93 139.5 141t127.5 32q33 -2 58.5 -27.5t36.5 -58t8.5 -65.5t-20.5 -51q-77 -41 -157 -178q-90 -157 -105 -295q-16 -156 86 -185q11 -3 22 -4z" />
    <glyph glyph-name="d.alt1" unicode="&#xf04c;" horiz-adv-x="1021" 
d="M1066 1429q81 168 228 235q125 57 238 18q101 -34 135 -129q33 -95 -15 -219q-37 -96 -122 -168.5t-196 -106t-224 -18.5q-84 -158 -269 -498t-223 -417l-8 -53q52 5 196 161t273 362q10 15 27 15q19 0 28 -16.5t-1 -32.5q-147 -237 -305 -403t-240 -162
q-69 4 -127.5 65.5t-27.5 140.5q10 25 44 93q-90 -119 -186.5 -206t-158.5 -93q-39 -4 -77.5 5t-77.5 33.5t-63.5 78t-24.5 129.5q0 84 59.5 207t145 233t189.5 188.5t184 78.5q36 0 72 -7t74 -23.5t68.5 -48.5t44.5 -77q74 134 156 285q-177 58 -331.5 91.5t-274.5 38
t-169 -31.5q-32 115 23.5 180t157.5 59q78 -4 161 -31t239 -94t252 -104q96 178 126 242zM684 710q6 45 -17.5 90t-58.5 38q-124 -26 -282 -243q-126 -173 -198 -353q-59 -146 -26 -165q5 -3 12 -2q30 3 66.5 22.5t69.5 45.5t73 67t70 76t68.5 84t60 78.5t52 72t38.5 53.5
l15 21q9 18 27 55t28 56l1 2zM1395 1208q120 74 150 195q23 90 -13 148q-33 54 -90 33q-73 -27 -144 -169q-6 -12 -53.5 -110.5t-79.5 -160.5q65 -5 116.5 10.5t113.5 53.5z" />
    <glyph glyph-name="h.alt4" unicode="&#xf04d;" horiz-adv-x="1128" 
d="M997 493q58 -14 91 -49t38 -79.5t1.5 -80t-14.5 -67.5q-20 -61 -50.5 -120.5t-81 -125t-110.5 -114.5t-145 -81t-179 -32q-96 0 -158.5 62t-70.5 163.5t48 230.5q5 12 131.5 274t177.5 385q-117 -90 -319.5 -350.5t-325.5 -510.5q-109 0 -164 45.5t-27 114.5
q12 29 175.5 406.5t301.5 709t131 354.5q16 4 44.5 2.5t61.5 -10.5t60 -27t38.5 -47t-3.5 -70q-38 -102 -210 -508.5t-249 -570.5q62 92 131.5 182t146 177t146 140.5t113.5 53.5q88 0 127.5 -53t16.5 -116q-17 -47 -45 -110t-58 -126t-64.5 -133t-65.5 -135.5t-60.5 -129.5
t-50.5 -118.5t-33.5 -98.5t-11.5 -73.5t16 -40.5q40 -28 96 -13.5t111.5 60.5t113 110.5t101 137.5t75.5 141t36 120.5t-17 76.5q-38 38 -97 -29t-99 -159t-35 -125q-2 1 -5.5 2t-14.5 5.5t-19 10t-19.5 15.5t-16 22t-8.5 28.5t3 35.5q35 135 110 199t185 39z" />
    <glyph glyph-name="d.alt2" unicode="&#xf04e;" horiz-adv-x="1312" 
d="M1092 1624q42 -2 74.5 -6.5t62 -12.5t48 -21.5t30 -32t11 -44.5t-13.5 -59q-51 -135 -228.5 -467t-331 -607.5t-156.5 -294.5q-25 -56 -42 -109.5t-21.5 -100t18.5 -53.5q45 -19 103.5 0.5t114.5 66t112.5 110t98 133t72 134.5t33 114.5t-18.5 74.5q-38 38 -97 -29
t-99 -159t-35 -125q-2 1 -5.5 2t-14.5 5.5t-19 10t-19 15.5t-15.5 22t-8.5 28.5t3 35.5q35 135 110 199t185 39q58 -14 91 -49t38 -79.5t1.5 -80t-14.5 -67.5q-20 -61 -50.5 -120.5t-81 -125t-111 -114.5t-145.5 -81t-179 -32q-96 0 -159.5 64.5t-69.5 166.5t57 228
q6 15 45 93q-91 -121 -186.5 -207t-158.5 -92q-39 -4 -77.5 5t-77.5 33.5t-63.5 78t-24.5 129.5q0 84 59.5 207t144.5 233t189 188.5t184 78.5q36 0 72 -7t74.5 -23.5t69 -48.5t44.5 -77q387 781 378 830zM671 710q6 45 -17.5 90t-58.5 38q-124 -26 -282 -243
q-126 -173 -198 -353q-59 -146 -26 -165q5 -3 12 -2q35 3 75 25t84 62.5t79.5 77.5t82 96t70 89.5t64 87t44.5 61.5q2 4 7 11t7 10l27.5 55t28.5 56v2z" />
    <glyph glyph-name="d.alt3" unicode="&#xf04f;" horiz-adv-x="1640" 
d="M1080 1429q81 178 222 237q115 47 217 1q89 -41 115 -132q26 -88 -23 -192q-112 -238 -463 -257q-82 -155 -224.5 -417t-225.5 -417.5t-86 -172.5q-25 -56 -42 -109.5t-21.5 -100t18.5 -53.5q45 -19 103.5 0.5t114.5 66t112.5 110t98 133t72 134.5t33 114.5t-18.5 74.5
q-38 38 -97 -29t-99 -159t-35 -125q-2 1 -5.5 2t-14.5 5.5t-19 10t-19 15.5t-15.5 22t-8.5 28.5t3 35.5q35 135 110 199t185 39q58 -14 91 -49t38 -79.5t1.5 -80t-14.5 -67.5q-20 -61 -50.5 -120.5t-81 -125t-111 -114.5t-145.5 -81t-179 -32q-96 0 -159.5 64.5t-69.5 166.5
t57 228q6 15 45 93q-91 -121 -186.5 -207t-158.5 -92q-39 -4 -77.5 5t-77.5 33.5t-63.5 78t-24.5 129.5q0 84 59.5 207t144.5 233t189 188.5t184 78.5q36 0 72 -7t74.5 -23.5t69 -48.5t44.5 -77q81 148 165 302q-99 11 -217 33.5t-215 45.5t-196.5 45.5t-172.5 36t-131 13.5
t-83 -18q-32 115 23.5 180.5t157.5 59.5q60 -3 167.5 -43t214 -88.5t248.5 -99.5t256 -71q106 197 125 239zM695 711q5 45 -18 89.5t-58 37.5q-124 -26 -282 -243q-126 -173 -198 -353q-59 -146 -26 -165q5 -3 12 -2q30 3 66.5 22.5t69.5 45.5t73 67t70 76t68.5 84t60 78.5
t52 72t38.5 53.5h1q2 4 6.5 11t7.5 10l27.5 55t28.5 56v2q1 2 1 3zM1374 1243q123 72 162 193q29 88 -1 146q-25 50 -75 31q-74 -30 -148 -198q-33 -76 -113 -232q96 14 175 60z" />
    </font>
</defs>
</svg>
